<?xml version="1.0" encoding="utf-8"?>
<!-- Generator: Adobe Illustrator 25.4.1, SVG Export Plug-In . SVG Version: 6.00 Build 0)  -->
<svg version="1.1" id="Layer_1" xmlns="http://www.w3.org/2000/svg" xmlns:xlink="http://www.w3.org/1999/xlink" x="0px" y="0px"
	 viewBox="0 0 266.6 144.6" style="enable-background:new 0 0 266.6 144.6;" xml:space="preserve">
<style type="text/css">
	.st0{fill:#808285;}
	.st1{fill:#FFFFFF;}
	.st2{fill-rule:evenodd;clip-rule:evenodd;fill:#808285;}
</style>
<g id="Layer_2_00000140724979284071240160000008944810811236088208_">
	<g id="Layer_1-2">
		<path class="st0" d="M127.6,72.3c0,30.5-24.7,55.3-55.3,55.3S17,102.8,17,72.3C17,41.7,41.7,17,72.3,17
			C102.8,17,127.6,41.7,127.6,72.3"/>
		<path class="st1" d="M72.3,63.5c-4.9,0-8.8,3.9-8.8,8.8c0,4.9,3.9,8.8,8.8,8.8c4.9,0,8.8-3.9,8.8-8.8c0,0,0,0,0,0
			C81.1,67.4,77.1,63.5,72.3,63.5 M72.3,77.6c-2.9,0-5.3-2.4-5.3-5.3s2.4-5.3,5.3-5.3s5.3,2.4,5.3,5.3
			C77.6,75.2,75.2,77.6,72.3,77.6C72.3,77.6,72.3,77.6,72.3,77.6"/>
		<path class="st1" d="M72.3,69.5c1.5,0,2.8,1.2,2.8,2.8s-1.2,2.8-2.8,2.8c-1.5,0-2.8-1.2-2.8-2.8l0,0
			C69.5,70.7,70.7,69.5,72.3,69.5"/>
		<path class="st1" d="M72.3,91.3c-4.7,0-9.9-2.6-13.2-5.4L49,88.5l5.9-8.6c-4.2-9.6,0.2-20.8,9.8-25c7.1-3.1,15.3-1.6,20.8,3.8
			l2.4-2.3l12.4-12.7c-15.8-15.5-41.2-15.3-56.7,0.6s-15.3,41.2,0.6,56.7c15.6,15.3,40.5,15.3,56.1,0l-14.8-15
			C82.1,89.4,77.3,91.3,72.3,91.3"/>
		<polygon class="st2" points="76.1,0 72.3,2.8 68.4,0 69.9,4.6 66.1,7.3 70.9,7.3 72.3,11.8 73.8,7.3 78.5,7.3 74.7,4.5 		"/>
		<polygon class="st2" points="48.2,4 45.7,8.1 41.1,7 44.2,10.6 41.7,14.6 46.1,12.8 49.2,16.4 48.8,11.6 53.2,9.9 48.5,8.8 		"/>
		<polygon class="st2" points="23.9,18.5 23.2,23.2 18.5,23.9 22.7,26 22,30.7 25.3,27.3 29.5,29.5 27.4,25.3 30.7,21.9 26,22.7 		
			"/>
		<polygon class="st2" points="14.6,41.7 10.6,44.2 7,41.1 8.1,45.7 4.1,48.2 8.8,48.5 9.9,53.1 11.7,48.7 16.4,49.1 12.8,46 		"/>
		<polygon class="st2" points="4.6,74.6 7.3,78.5 7.3,73.7 11.8,72.3 7.3,70.8 7.3,66.1 4.5,69.9 0,68.4 2.8,72.3 0,76.1 		"/>
		<polygon class="st2" points="11.6,95.8 9.9,91.4 8.8,96 4,96.4 8.1,98.9 7,103.5 10.6,100.4 14.6,102.9 12.8,98.4 16.4,95.4 		"/>
		<polygon class="st2" points="29.5,115 25.3,117.2 21.9,113.8 22.7,118.5 18.5,120.7 23.2,121.4 23.9,126.1 26,121.8 30.7,122.6 
			27.3,119.2 		"/>
		<polygon class="st2" points="49.1,128.1 46,131.8 41.7,129.9 44.2,134 41.1,137.6 45.7,136.5 48.2,140.5 48.5,135.8 53.1,134.7 
			48.7,132.9 		"/>
		<polygon class="st2" points="73.7,137.3 72.3,132.8 70.8,137.3 66.1,137.3 69.9,140.1 68.4,144.6 72.3,141.8 76.1,144.6 74.6,140 
			78.5,137.3 		"/>
		<polygon class="st2" points="102.9,129.9 98.4,131.8 95.4,128.2 95.8,132.9 91.4,134.7 96,135.8 96.4,140.5 98.9,136.5 
			103.5,137.6 100.4,134 		"/>
		<polygon class="st2" points="122.6,113.8 119.2,117.2 115,115.1 117.2,119.3 113.8,122.6 118.5,121.9 120.7,126.1 121.4,121.4 
			126.1,120.7 121.8,118.5 		"/>
		<polygon class="st2" points="135.8,96 134.7,91.4 132.9,95.8 128.1,95.4 131.8,98.6 129.9,102.9 134,100.4 137.6,103.5 
			136.5,98.9 140.5,96.4 		"/>
		<polygon class="st2" points="140,69.9 137.3,66.1 137.3,70.9 132.8,72.3 137.3,73.8 137.3,78.5 140.1,74.7 144.6,76.1 141.8,72.3 
			144.6,68.4 		"/>
		<polygon class="st2" points="132.9,48.8 134.7,53.2 135.8,48.5 140.5,48.2 136.5,45.7 137.6,41.1 134,44.2 129.9,41.7 131.8,46.1 
			128.2,49.2 		"/>
		<polygon class="st2" points="120.7,18.5 118.5,22.7 113.8,22 117.2,25.3 115.1,29.5 119.3,27.4 122.6,30.7 121.9,26 126.1,23.9 
			121.4,23.2 		"/>
		<polygon class="st2" points="96.4,4.1 96,8.8 91.4,9.9 95.8,11.7 95.4,16.4 98.6,12.8 102.9,14.6 100.4,10.6 103.5,7 98.9,8.1 		
			"/>
		<path class="st0" d="M158.7,92.6V94h-0.3c-0.2-1.1-0.7-1.6-1.6-1.6c-1.2,0-1.8,1.2-1.8,2.8c0,1.5,0.7,3,1.9,3
			c0.8,0,1.4-0.5,1.7-1.8h0.4l-0.1,1.7c-0.6,0.4-1.4,0.6-2.1,0.5c-1.6,0.1-3-1.1-3.2-2.7c0-0.1,0-0.3,0-0.4
			c-0.1-1.7,1.2-3.3,2.9-3.4c0.1,0,0.2,0,0.2,0C157.4,92,158.1,92.2,158.7,92.6"/>
		<path class="st0" d="M162.3,96.1c0,1.1,0.5,1.8,1.5,1.8c1,0,1.7-0.5,1.7-1.8v-3c0-0.5-0.1-0.6-0.9-0.6v-0.3h2.1v0.3
			c-0.6,0.1-0.7,0.1-0.7,0.6v3.2c0.1,1.2-0.8,2.2-1.9,2.3c-0.1,0-0.3,0-0.4,0c-1.6,0-2.5-0.7-2.5-2.3V93c0-0.5-0.1-0.5-0.7-0.6v-0.3
			h2.8v0.3c-0.6,0.1-0.7,0.1-0.7,0.6L162.3,96.1z"/>
		<path class="st0" d="M173.3,93.6l-1.7,4.8h-0.4l-1.8-4.8l-0.5,3.7c0,0.1,0,0.1,0,0.2c0,0.4,0.2,0.5,0.9,0.6v0.3h-2.1v-0.3
			c0.5,0,0.7-0.1,0.7-0.5l0.6-4.5c0-0.5-0.2-0.6-0.8-0.7v-0.3h2c0,0.2,0.1,0.4,0.1,0.5l1.5,3.9l1.4-3.9c0.1-0.2,0.1-0.4,0.1-0.5h2
			v0.3c-0.6,0-0.8,0.2-0.8,0.7l0.6,4.5c0.1,0.4,0.2,0.5,0.7,0.5v0.3h-2.9v-0.3c0.6,0,0.8-0.1,0.8-0.6c0-0.1,0-0.1,0-0.2L173.3,93.6z
			"/>
		<path class="st0" d="M179.1,94.9h2.7v-1.9c0-0.5-0.1-0.5-0.7-0.6v-0.3h2.8v0.3c-0.6,0.1-0.7,0.1-0.7,0.6v4.4
			c0,0.5,0.1,0.5,0.7,0.6v0.3h-2.7v-0.3c0.6-0.1,0.7-0.1,0.7-0.6v-2.1h-2.7v2.1c0,0.5,0.1,0.5,0.7,0.6v0.3H177v-0.3
			c0.6-0.1,0.7-0.1,0.7-0.6v-4.4c0-0.5-0.1-0.5-0.7-0.6v-0.3h2.8v0.3c-0.6,0.1-0.7,0.1-0.7,0.6V94.9z"/>
		<path class="st0" d="M187.1,96.1c0,1.1,0.5,1.8,1.5,1.8s1.7-0.5,1.7-1.8v-3c0-0.5-0.1-0.6-0.9-0.6v-0.3h2.1v0.3
			c-0.6,0.1-0.7,0.1-0.7,0.6v3.2c0.1,1.2-0.8,2.2-1.9,2.3c-0.1,0-0.3,0-0.4,0c-1.6,0-2.5-0.7-2.5-2.3V93c0-0.5-0.1-0.5-0.7-0.6v-0.3
			h2.7v0.3c-0.6,0.1-0.7,0.1-0.7,0.6L187.1,96.1z"/>
		<path class="st0" d="M194.7,97.5c0,0.5,0.1,0.5,0.7,0.6v0.3h-2.8v-0.3c0.6-0.1,0.7-0.1,0.7-0.6v-4.4c0-0.5-0.1-0.5-0.7-0.6v-0.3
			h2.9c1.5,0,2.4,0.7,2.4,1.8c0,0.8-0.6,1.5-1.5,1.7l1.4,1.8c0.4,0.5,0.6,0.7,1.1,0.7v0.3h-1.7c-0.3-0.2-0.6-0.5-0.7-0.9l-1.2-1.8
			h-0.5L194.7,97.5z M194.7,92.5v2.9h0.4c0.8-0.1,1.4-0.8,1.3-1.6c-0.1-0.7-0.6-1.2-1.3-1.3H194.7z"/>
		<path class="st0" d="M200,98.4v-0.3c0.6-0.1,0.7-0.1,0.7-0.6v-4.4c0-0.5-0.1-0.5-0.7-0.6v-0.3h2.9c1.4,0,2.2,0.5,2.2,1.6
			s-0.8,1.4-1.7,1.5c1.2,0,2,0.6,2,1.6c0,1-0.8,1.7-2.4,1.7H200z M202,92.5v2.5h0.4c0.9,0,1.3-0.4,1.3-1.3c0-0.8-0.5-1.2-1.3-1.2
			L202,92.5z M202,95.4v2.1c0,0.5,0.2,0.6,0.7,0.6h0.1c0.8,0,1.2-0.5,1.2-1.4s-0.4-1.3-1.5-1.3L202,95.4z"/>
		<path class="st0" d="M210.5,96.4h-2.4l-0.4,1.1c-0.1,0.1-0.1,0.2-0.1,0.3c0,0.3,0.2,0.4,0.8,0.4v0.3h-1.8v-0.4
			c0.3,0,0.4-0.1,0.5-0.3l2-5l-0.3-0.7h1.4l2.3,5.7c0.1,0.2,0.3,0.3,0.5,0.3v0.3h-2.8v-0.3c0.5,0,0.7-0.1,0.7-0.4
			c0-0.1,0-0.2-0.1-0.3L210.5,96.4z M208.2,96h2.1l-1.1-2.7L208.2,96z"/>
		<path class="st0" d="M215.3,100.2c0.6,0,1-0.2,1-0.5c0-0.3-0.3-0.3-0.7-0.4l0.4-0.9c-0.6,0-1.2-0.2-1.7-0.6l-0.1-1.5h0.4
			c0.2,1.1,0.8,1.8,1.7,1.8c0.7,0,1.2-0.4,1.2-1.1s-0.4-0.9-1.5-1.3c-1.1-0.4-1.7-0.9-1.7-1.9c0-1,0.8-1.9,1.9-1.9
			c0.1,0,0.2,0,0.2,0c0.7,0,1.3,0.2,1.9,0.5v1.3h-0.3c-0.2-1-0.7-1.5-1.5-1.5c-0.5-0.1-1,0.3-1,0.8c0,0.1,0,0.1,0,0.2
			c0,0.6,0.3,0.9,1.3,1.2c1.2,0.4,1.9,0.9,1.9,2s-1.1,1.9-2.3,1.9l-0.1,0.3c0.6,0,0.9,0.2,0.9,0.7c0,0.6-0.7,0.9-1.6,0.9
			L215.3,100.2z"/>
		<path class="st0" d="M222,97.5c0,0.5,0.1,0.5,0.7,0.6v0.3h-2.8v-0.3c0.6-0.1,0.7-0.1,0.7-0.6v-4.4c0-0.5-0.1-0.5-0.7-0.6v-0.3h2.8
			v0.3c-0.6,0.1-0.7,0.1-0.7,0.6V97.5z M225.1,97.5c0.4,0.5,0.5,0.6,1,0.6v0.3h-1.7c-0.3-0.3-0.6-0.6-0.8-0.9l-1.6-2.2l2.2-2.3
			c0.1-0.1,0.2-0.2,0.2-0.4c0-0.1-0.1-0.2-0.7-0.2v-0.3h2v0.3c-0.3,0-0.6,0.1-0.8,0.4l-1.8,1.9L225.1,97.5z"/>
		<path class="st0" d="M231,96.4h-2.4l-0.4,1.1c0,0.1-0.1,0.2-0.1,0.3c0,0.3,0.2,0.4,0.8,0.4v0.3h-1.8v-0.4c0.3,0,0.4-0.1,0.5-0.3
			l2-5l-0.3-0.7h1.4l2.3,5.7c0.1,0.2,0.3,0.3,0.5,0.3v0.3h-2.7v-0.3c0.5,0,0.8-0.1,0.8-0.4c0-0.1,0-0.2-0.1-0.3L231,96.4z M228.8,96
			h2.1l-1.1-2.7L228.8,96z"/>
		<path class="st0" d="M239.8,93.1c0-0.5-0.2-0.6-0.9-0.6v-0.3h2.1v0.3c-0.6,0.1-0.7,0.1-0.7,0.6v5.4h-0.4l-3.9-5v4
			c0,0.5,0.1,0.6,0.9,0.6v0.3h-2.1v-0.3c0.6-0.1,0.7-0.1,0.7-0.6V93c-0.3-0.4-0.4-0.5-0.7-0.6v-0.3h1.9l3.3,4.2L239.8,93.1z"/>
		<path class="st0" d="M244.3,97.5c0,0.5,0.2,0.6,0.8,0.6h0.4c0.7,0,1-0.4,1.6-1.6h0.3l-0.3,2h-4.8v-0.3c0.6-0.1,0.7-0.1,0.7-0.6
			v-4.4c0-0.5-0.1-0.5-0.7-0.6v-0.3h2.7v0.3c-0.6,0.1-0.7,0.1-0.7,0.6L244.3,97.5z"/>
		<path class="st0" d="M250.7,97.5c0,0.5,0.1,0.5,0.7,0.6v0.3h-2.8v-0.3c0.6-0.1,0.7-0.1,0.7-0.6v-4.4c0-0.5-0.1-0.5-0.7-0.6v-0.3
			h2.8v0.3c-0.6,0.1-0.7,0.1-0.7,0.6L250.7,97.5z"/>
		<path class="st0" d="M257,96.4c0-0.5-0.1-0.6-0.7-0.6v-0.3h2.7v0.3c-0.6,0.1-0.7,0.1-0.7,0.6v1.5c-0.7,0.4-1.5,0.6-2.3,0.6
			c-1.6,0.1-3-1.1-3.1-2.7c0-0.1,0-0.3,0-0.4c-0.1-1.7,1.2-3.3,2.9-3.4c0.1,0,0.2,0,0.3,0c0.7,0,1.4,0.2,2,0.5V94h-0.3
			c-0.2-1.1-0.7-1.6-1.6-1.6c-1.3,0-1.9,1.2-1.9,2.8c0,1.5,0.6,3,1.9,3c0.3,0,0.6-0.1,0.9-0.2V96.4z M254.8,90.4h0.3
			c0.1,0.5,0.5,0.7,1,0.7c0.5,0.1,0.9-0.2,1-0.7h0.3c0,0.7-0.6,1.3-1.3,1.3C255.4,91.7,254.8,91.1,254.8,90.4L254.8,90.4"/>
		<path class="st0" d="M262.2,97.5c0,0.5,0.1,0.5,0.7,0.6v0.3h-2.8v-0.3c0.6-0.1,0.7-0.1,0.7-0.6v-4.4c0-0.5-0.1-0.5-0.7-0.6v-0.3
			h2.7v0.3c-0.6,0.1-0.7,0.1-0.7,0.6L262.2,97.5z"/>
		<path class="st0" d="M155.6,108c0,0.5,0.1,0.5,0.7,0.6v0.3h-2.8v-0.3c0.6-0.1,0.7-0.1,0.7-0.6v-4.4c0-0.5-0.1-0.5-0.7-0.6v-0.3
			h2.8v0.3c-0.6,0.1-0.7,0.1-0.7,0.6V108z M154.2,101.5c0-0.4,0.3-0.7,0.7-0.7c0,0,0,0,0,0c0.4,0,0.7,0.3,0.7,0.7c0,0,0,0,0,0
			c0,0.4-0.3,0.7-0.7,0.7c0,0,0,0,0,0C154.6,102.2,154.2,101.9,154.2,101.5C154.2,101.5,154.2,101.5,154.2,101.5"/>
		<path class="st0" d="M159.7,107.9c0,0.5,0.2,0.6,0.8,0.6h0.4c0.7,0,1-0.4,1.6-1.6h0.3l-0.3,2h-4.8v-0.3c0.6-0.1,0.7-0.1,0.7-0.6
			v-4.4c0-0.5-0.1-0.5-0.7-0.6v-0.3h2.8v0.3c-0.6,0.1-0.7,0.1-0.7,0.6L159.7,107.9z"/>
		<path class="st0" d="M164.1,108.6c0.6-0.1,0.7-0.1,0.7-0.6v-4.4c0-0.5-0.1-0.5-0.7-0.6v-0.3h4.9v1.6h-0.3c-0.4-1-0.7-1.3-1.4-1.3
			h-1.3v2.5h1.1c0.4,0,0.5-0.3,0.6-0.8h0.3v2h-0.3c-0.1-0.6-0.2-0.8-0.6-0.8h-1.1v2.1c0,0.5,0.2,0.6,0.8,0.6h0.5
			c0.7,0,1-0.4,1.6-1.4h0.3l-0.3,1.8h-5L164.1,108.6z"/>
		<path class="st0" d="M176.2,102.6l0.1,2.1h-0.3c-0.6-1.3-0.8-1.8-1.5-1.8h-0.5v5.1c0,0.5,0.2,0.5,0.8,0.6v0.3H172v-0.3
			c0.6-0.1,0.8-0.1,0.8-0.6V103h-0.5c-0.7,0-0.9,0.4-1.5,1.8h-0.3l0.1-2.1H176.2z"/>
		<path class="st0" d="M179.7,108c0,0.5,0.1,0.5,0.7,0.6v0.3h-2.8v-0.3c0.6-0.1,0.7-0.1,0.7-0.6v-4.4c0-0.5-0.1-0.5-0.7-0.6v-0.3
			h2.8v0.3c-0.6,0.1-0.7,0.1-0.7,0.6V108z M178.3,101.5c0-0.4,0.3-0.7,0.7-0.7c0,0,0,0,0,0c0.4,0,0.7,0.3,0.7,0.7c0,0,0,0,0,0
			c0,0.4-0.3,0.7-0.7,0.7c0,0,0,0,0,0C178.6,102.2,178.3,101.9,178.3,101.5C178.3,101.5,178.3,101.5,178.3,101.5"/>
		<path class="st0" d="M183,110.6c0.6,0,1-0.2,1-0.5c0-0.3-0.3-0.3-0.7-0.4l0.4-0.9c-0.6,0-1.2-0.2-1.7-0.6l-0.1-1.5h0.4
			c0.2,1.1,0.8,1.8,1.7,1.8c0.7,0,1.2-0.4,1.2-1.1s-0.4-0.9-1.5-1.3c-1.1-0.4-1.7-0.9-1.7-1.9c0-1,0.8-1.9,1.9-1.9
			c0.1,0,0.2,0,0.2,0c0.7,0,1.3,0.2,1.9,0.5v1.3h-0.3c-0.2-1-0.7-1.5-1.5-1.5c-0.5-0.1-1,0.3-1,0.8c0,0.1,0,0.1,0,0.2
			c0,0.6,0.3,0.9,1.3,1.2c1.2,0.4,1.9,0.9,1.9,2s-1.1,1.9-2.3,1.9l-0.1,0.3c0.6,0,0.9,0.2,0.9,0.7c0,0.6-0.7,0.9-1.6,0.9L183,110.6z
			"/>
		<path class="st0" d="M189.7,108c0,0.5,0.1,0.5,0.7,0.6v0.3h-2.8v-0.3c0.6-0.1,0.7-0.1,0.7-0.6v-4.4c0-0.5-0.1-0.5-0.7-0.6v-0.3
			h2.8v0.3c-0.6,0.1-0.7,0.1-0.7,0.6V108z M188.3,101.5c0-0.4,0.3-0.7,0.7-0.7c0,0,0,0,0,0c0.4,0,0.7,0.3,0.7,0.7c0,0,0,0,0,0
			c0,0.4-0.3,0.7-0.7,0.7c0,0,0,0,0,0C188.6,102.2,188.3,101.9,188.3,101.5C188.3,101.5,188.3,101.5,188.3,101.5"/>
		<path class="st0" d="M197.3,104.1l-1.7,4.8h-0.4l-1.8-4.8l-0.5,3.7c0,0.1,0,0.1,0,0.2c0,0.4,0.2,0.5,0.9,0.6v0.3h-2.1v-0.3
			c0.5,0,0.7-0.1,0.7-0.5l0.6-4.5c0-0.5-0.2-0.6-0.8-0.7v-0.3h2c0,0.2,0.1,0.4,0.1,0.5l1.5,3.9l1.4-3.9c0.1-0.2,0.1-0.4,0.1-0.5h2
			v0.3c-0.6,0-0.7,0.2-0.7,0.7l0.5,4.5c0.1,0.4,0.2,0.5,0.7,0.5v0.3h-2.9v-0.3c0.6,0,0.8-0.1,0.8-0.6c0-0.1,0-0.1,0-0.2L197.3,104.1
			z"/>
		<path class="st0" d="M209.2,104.1l-1.7,4.8H207l-1.8-4.8l-0.5,3.7c0,0.1,0,0.1,0,0.2c0,0.4,0.2,0.5,0.9,0.6v0.3h-2.1v-0.3
			c0.5,0,0.7-0.1,0.7-0.5l0.6-4.5c0-0.5-0.2-0.6-0.8-0.7v-0.3h2c0,0.2,0.1,0.4,0.1,0.5l1.5,3.9l1.4-3.9c0.1-0.2,0.1-0.4,0.1-0.5h2.1
			v0.3c-0.6,0-0.7,0.2-0.7,0.7l0.6,4.5c0,0.4,0.2,0.5,0.7,0.5v0.3h-3v-0.3c0.6,0,0.8-0.1,0.8-0.6c0-0.1,0-0.1,0-0.2L209.2,104.1z"/>
		<path class="st0" d="M213,108.6c0.6-0.1,0.7-0.1,0.7-0.6v-4.4c0-0.5-0.1-0.5-0.7-0.6v-0.3h4.9v1.6h-0.3c-0.4-1-0.7-1.3-1.4-1.3
			H215v2.5h1.1c0.4,0,0.5-0.3,0.6-0.8h0.3v2h-0.3c-0.1-0.6-0.2-0.8-0.6-0.8H215v2.1c0,0.5,0.2,0.6,0.8,0.6h0.5c0.7,0,1-0.4,1.6-1.4
			h0.3l-0.3,1.8h-5L213,108.6z"/>
		<path class="st0" d="M221.6,108c0,0.5,0.1,0.5,0.7,0.6v0.3h-2.8v-0.3c0.6-0.1,0.7-0.1,0.7-0.6v-4.4c0-0.5-0.1-0.5-0.7-0.6v-0.3
			h2.9c1.5,0,2.4,0.7,2.4,1.8c0,0.8-0.6,1.5-1.5,1.7l1.4,1.8c0.4,0.5,0.6,0.7,1.1,0.7v0.3H224c-0.3-0.2-0.6-0.5-0.8-0.9l-1.2-1.8
			h-0.5L221.6,108z M221.6,103v2.9h0.4c0.8-0.1,1.4-0.8,1.3-1.6c-0.1-0.7-0.6-1.2-1.3-1.3H221.6z"/>
		<path class="st0" d="M228.9,108c0,0.5,0.1,0.5,0.7,0.6v0.3h-2.8v-0.3c0.6-0.1,0.7-0.1,0.7-0.6v-4.4c0-0.5-0.1-0.5-0.7-0.6v-0.3
			h2.8v0.3c-0.6,0.1-0.7,0.1-0.7,0.6V108z M232.1,108c0.4,0.5,0.5,0.6,1,0.6v0.3h-1.7c-0.3-0.3-0.6-0.6-0.8-0.9l-1.6-2.2l2.2-2.3
			c0.1-0.1,0.2-0.2,0.2-0.4c0-0.1-0.1-0.2-0.7-0.2v-0.3h2v0.3c-0.3,0-0.6,0.1-0.8,0.4l-1.8,1.9L232.1,108z"/>
		<path class="st0" d="M234.2,108.6c0.6-0.1,0.7-0.1,0.7-0.6v-4.4c0-0.5-0.1-0.5-0.7-0.6v-0.3h4.9l0.1,1.6h-0.3
			c-0.4-1-0.7-1.3-1.4-1.3h-1.3v2.5h1.1c0.4,0,0.5-0.3,0.6-0.8h0.3v2H238c-0.1-0.6-0.2-0.8-0.6-0.8h-1.1v2.1c0,0.5,0.2,0.6,0.8,0.6
			h0.6c0.7,0,1-0.4,1.6-1.4h0.3l-0.3,1.8h-5V108.6z"/>
		<path class="st0" d="M244,108.5c0.7,0,1.1-0.3,1.7-1.6h0.3l-0.3,1.9h-4.9v-0.2l3.4-5.7h-1.5c-0.8,0-0.9,0.4-1.4,1.4H241l0.1-1.8
			h4.7v0.2l-3.4,5.7L244,108.5z"/>
		<path class="st0" d="M249.2,108c0,0.5,0.1,0.5,0.7,0.6v0.3h-2.8v-0.3c0.6-0.1,0.7-0.1,0.7-0.6v-4.4c0-0.5-0.1-0.5-0.7-0.6v-0.3
			h2.8v0.3c-0.6,0.1-0.7,0.1-0.7,0.6V108z M247.8,101.5c0-0.4,0.3-0.7,0.7-0.7c0,0,0,0,0,0c0.4,0,0.7,0.3,0.7,0.7c0,0,0,0,0,0
			c0,0.4-0.3,0.7-0.7,0.7c0,0,0,0,0,0C248.2,102.2,247.9,101.9,247.8,101.5C247.8,101.5,247.8,101.5,247.8,101.5"/>
		<path class="st0" d="M158.8,35.6v1.4h-0.3c-0.2-1.1-0.7-1.6-1.6-1.6c-1.2,0-1.8,1.2-1.8,2.8c0,1.5,0.7,3,1.9,3
			c0.8,0,1.4-0.5,1.7-1.8h0.4l-0.1,1.7c-0.6,0.4-1.4,0.6-2.1,0.5c-1.6,0.1-3-1.1-3.2-2.7c0-0.1,0-0.3,0-0.4
			c-0.1-1.7,1.2-3.3,2.9-3.4c0.1,0,0.2,0,0.2,0C157.5,35.1,158.2,35.2,158.8,35.6"/>
		<path class="st0" d="M162.4,39.2c0,1.1,0.5,1.8,1.5,1.8c1,0,1.7-0.5,1.7-1.8v-3c0-0.5-0.1-0.6-0.8-0.6v-0.3h2v0.3
			c-0.6,0.1-0.7,0.1-0.7,0.6v3.2c0.1,1.2-0.8,2.2-1.9,2.3c-0.2,0-0.3,0-0.5,0c-1.6,0-2.5-0.7-2.5-2.3v-3.2c0-0.5-0.1-0.5-0.7-0.6
			v-0.3h2.7v0.3c-0.6,0.1-0.7,0.1-0.7,0.6L162.4,39.2z"/>
		<path class="st0" d="M173.3,36.6l-1.7,4.8h-0.5l-1.8-4.8l-0.5,3.7c0,0.1,0,0.1,0,0.2c0,0.4,0.2,0.5,0.9,0.6v0.3h-2.1v-0.3
			c0.5,0,0.7-0.1,0.7-0.5l0.6-4.5c0-0.5-0.2-0.6-0.8-0.7v-0.3h2c0,0.2,0.1,0.4,0.1,0.5l1.5,3.9l1.4-3.9c0.1-0.2,0.1-0.4,0.1-0.5h2.1
			v0.3c-0.6,0-0.7,0.2-0.7,0.7l0.5,4.5c0.1,0.4,0.2,0.5,0.7,0.5v0.3H173v-0.3c0.6,0,0.8-0.1,0.8-0.6c0-0.1,0-0.1,0-0.2L173.3,36.6z"
			/>
		<path class="st0" d="M179.2,38h2.7v-1.9c0-0.5-0.1-0.5-0.7-0.6v-0.3h2.7v0.3c-0.6,0.1-0.7,0.1-0.7,0.6v4.4c0,0.5,0.1,0.5,0.7,0.6
			v0.3h-2.7v-0.3c0.6-0.1,0.7-0.1,0.7-0.6v-2.1h-2.7v2.1c0,0.5,0.1,0.5,0.7,0.6v0.3h-2.8v-0.3c0.6-0.1,0.7-0.1,0.7-0.6v-4.4
			c0-0.5-0.1-0.5-0.7-0.6v-0.3h2.8v0.3c-0.6,0.1-0.7,0.1-0.7,0.6V38z"/>
		<path class="st0" d="M187.2,39.2c0,1.1,0.5,1.8,1.5,1.8c1,0,1.7-0.5,1.7-1.8v-3c0-0.5-0.1-0.6-0.9-0.6v-0.3h2.1v0.3
			c-0.6,0.1-0.7,0.1-0.7,0.6v3.2c0.1,1.2-0.8,2.2-1.9,2.3c-0.2,0-0.3,0-0.5,0c-1.6,0-2.5-0.7-2.5-2.3v-3.2c0-0.5-0.1-0.5-0.7-0.6
			v-0.3h2.7v0.3c-0.6,0.1-0.7,0.1-0.7,0.6L187.2,39.2z"/>
		<path class="st0" d="M194.8,40.5c0,0.5,0.1,0.5,0.7,0.6v0.3h-2.8v-0.3c0.6-0.1,0.7-0.1,0.7-0.6v-4.4c0-0.5-0.1-0.5-0.7-0.6v-0.3
			h2.9c1.5,0,2.4,0.7,2.4,1.8c0,0.8-0.6,1.5-1.5,1.7l1.4,1.8c0.4,0.5,0.6,0.7,1.1,0.7v0.3h-1.7c-0.3-0.2-0.6-0.5-0.7-0.9l-1.2-1.8
			h-0.5L194.8,40.5z M194.8,35.5v2.9h0.4c0.7,0.1,1.3-0.4,1.4-1.2c0-0.1,0-0.2,0-0.3c0.1-0.7-0.5-1.3-1.2-1.4c-0.1,0-0.1,0-0.2,0
			L194.8,35.5z"/>
		<path class="st0" d="M200.1,41.5v-0.3c0.6-0.1,0.7-0.1,0.7-0.6v-4.4c0-0.5-0.1-0.5-0.7-0.6v-0.3h2.9c1.4,0,2.2,0.5,2.2,1.6
			c0,1-0.8,1.4-1.7,1.5c1.2,0,2,0.6,2,1.6c0,1-0.8,1.7-2.4,1.7L200.1,41.5z M202.1,35.5V38h0.4c0.7,0.1,1.3-0.4,1.4-1.1
			c0.1-0.7-0.4-1.3-1.1-1.4c-0.1,0-0.2,0-0.2,0H202.1z M202.1,38.4v2.1c0,0.5,0.2,0.6,0.7,0.6h0.1c0.8,0,1.2-0.5,1.2-1.4
			s-0.4-1.3-1.4-1.3L202.1,38.4z"/>
		<path class="st0" d="M210.6,39.4h-2.4l-0.4,1c0,0.1-0.1,0.2-0.1,0.3c0,0.3,0.2,0.4,0.8,0.4v0.3h-1.8v-0.3c0.3,0,0.4-0.1,0.5-0.3
			l2-5l-0.3-0.7h1.3l2.3,5.7c0.1,0.2,0.3,0.3,0.5,0.3v0.3h-2.7v-0.3c0.5,0,0.8-0.1,0.8-0.4c0-0.1,0-0.2-0.1-0.3L210.6,39.4z
			 M208.3,39h2.1l-1.1-2.7L208.3,39z"/>
		<path class="st0" d="M215.5,43.2c0.6,0,1-0.2,1-0.5s-0.3-0.3-0.7-0.4l0.3-0.9c-0.6,0-1.2-0.2-1.7-0.6l-0.1-1.5h0.4
			c0.2,1.1,0.8,1.8,1.7,1.8c0.7,0,1.2-0.4,1.2-1.1s-0.4-0.9-1.5-1.3c-1.1-0.4-1.8-0.9-1.8-1.9c0-1,0.8-1.9,1.9-1.9
			c0.1,0,0.2,0,0.2,0c0.7,0,1.3,0.2,1.9,0.5v1.3h-0.3c-0.2-0.9-0.7-1.5-1.5-1.5c-0.5-0.1-1,0.3-1,0.8c0,0.1,0,0.1,0,0.2
			c0,0.6,0.3,0.9,1.3,1.2c1.2,0.4,1.9,0.9,1.9,2s-1.1,1.9-2.3,1.9l-0.1,0.3c0.6,0,0.9,0.2,0.9,0.7c0,0.6-0.7,0.9-1.6,0.9L215.5,43.2
			z"/>
		<path class="st0" d="M222.1,40.5c0,0.5,0.1,0.5,0.7,0.6v0.3H220v-0.3c0.6-0.1,0.7-0.1,0.7-0.6v-4.4c0-0.5-0.1-0.5-0.7-0.6v-0.3
			h2.8v0.3c-0.6,0.1-0.7,0.1-0.7,0.6L222.1,40.5z M225.2,40.5c0.4,0.5,0.5,0.6,1,0.6v0.3h-1.7c-0.3-0.3-0.6-0.6-0.8-0.9l-1.6-2.2
			l2.2-2.3c0.1-0.1,0.2-0.2,0.2-0.4c0-0.1-0.1-0.2-0.7-0.2v-0.3h2v0.3c-0.3,0-0.6,0.2-0.8,0.4l-1.8,1.9L225.2,40.5z"/>
		<path class="st0" d="M231.1,39.4h-2.4l-0.4,1c0,0.1-0.1,0.2-0.1,0.3c0,0.3,0.2,0.4,0.8,0.4v0.3h-1.8v-0.3c0.3,0,0.4-0.1,0.5-0.3
			l2-5l-0.3-0.7h1.4l2.3,5.7c0.1,0.2,0.3,0.3,0.5,0.3v0.3h-2.8v-0.3c0.5,0,0.8-0.1,0.8-0.4c0-0.1,0-0.2-0.1-0.3L231.1,39.4z
			 M228.9,39h2.1l-1.1-2.7L228.9,39z"/>
		<path class="st0" d="M239.9,36.1c0-0.5-0.2-0.6-0.9-0.6v-0.3h2.1v0.3c-0.6,0.1-0.7,0.1-0.7,0.6v5.4H240l-3.9-5v4
			c0,0.5,0.1,0.6,0.9,0.6v0.3h-2.1v-0.3c0.6-0.1,0.7-0.1,0.7-0.6V36c-0.3-0.4-0.4-0.5-0.7-0.6v-0.3h1.8l3.3,4.2V36.1z"/>
		<path class="st0" d="M244.4,40.5c0,0.5,0.2,0.6,0.8,0.6h0.4c0.7,0,1-0.4,1.6-1.6h0.3l-0.3,1.9h-4.8v-0.3c0.6-0.1,0.7-0.1,0.7-0.6
			v-4.4c0-0.5-0.1-0.5-0.7-0.6v-0.3h2.8v0.3c-0.6,0.1-0.7,0.1-0.7,0.6V40.5z"/>
		<path class="st0" d="M250.8,40.5c0,0.5,0.1,0.5,0.7,0.6v0.3h-2.8v-0.3c0.6-0.1,0.7-0.1,0.7-0.6v-4.4c0-0.5-0.1-0.5-0.7-0.6v-0.3
			h2.8v0.3c-0.6,0.1-0.7,0.1-0.7,0.6L250.8,40.5z"/>
		<path class="st0" d="M257.1,39.4c0-0.5-0.1-0.6-0.7-0.6v-0.3h2.7v0.3c-0.6,0.1-0.7,0.1-0.7,0.6v1.5c-0.7,0.4-1.5,0.6-2.3,0.6
			c-1.6,0.1-3-1.1-3.1-2.7c0-0.1,0-0.2,0-0.4c-0.1-1.7,1.2-3.3,2.9-3.4c0.1,0,0.2,0,0.2,0c0.7,0,1.4,0.2,2,0.5v1.5h-0.3
			c-0.2-1.1-0.7-1.6-1.6-1.6c-1.3,0-1.9,1.2-1.9,2.8c0,1.5,0.6,3,1.9,3c0.3,0,0.6-0.1,0.9-0.2L257.1,39.4z M254.9,33.4h0.3
			c0.1,0.5,0.5,0.7,1,0.7s0.9-0.2,1-0.7h0.3c0.1,0.7-0.5,1.4-1.2,1.4c-0.7,0.1-1.4-0.5-1.4-1.2C254.9,33.5,254.9,33.5,254.9,33.4"/>
		<path class="st0" d="M262.3,40.5c0,0.5,0.1,0.5,0.7,0.6v0.3h-2.8v-0.3c0.6-0.1,0.7-0.1,0.7-0.6v-4.4c0-0.5-0.1-0.5-0.7-0.6v-0.3
			h2.8v0.3c-0.6,0.1-0.7,0.1-0.7,0.6V40.5z"/>
		<path class="st0" d="M155.7,51c0,0.5,0.1,0.5,0.7,0.6v0.3h-2.8v-0.3c0.6-0.1,0.7-0.1,0.7-0.6v-4.4c0-0.5-0.1-0.5-0.7-0.6v-0.3h2.7
			v0.3c-0.6,0.1-0.7,0.1-0.7,0.6L155.7,51z M154.3,44.5c0-0.4,0.3-0.7,0.7-0.7c0,0,0,0,0,0c0.4,0,0.7,0.3,0.7,0.7c0,0,0,0,0,0
			c0,0.4-0.3,0.7-0.7,0.7c0,0,0,0,0,0C154.6,45.2,154.3,44.9,154.3,44.5C154.3,44.5,154.3,44.5,154.3,44.5"/>
		<path class="st0" d="M159.8,51c0,0.5,0.2,0.6,0.8,0.6h0.4c0.7,0,1-0.4,1.6-1.6h0.3l-0.3,1.9h-4.8v-0.3c0.6-0.1,0.7-0.1,0.7-0.6
			v-4.4c0-0.5-0.1-0.5-0.7-0.6v-0.3h2.8v0.3c-0.6,0.1-0.7,0.1-0.7,0.6L159.8,51z"/>
		<path class="st0" d="M164.2,51.6c0.6-0.1,0.7-0.1,0.7-0.6v-4.4c0-0.5-0.1-0.5-0.7-0.6v-0.3h4.9v1.6h-0.3c-0.4-1-0.7-1.2-1.4-1.2
			h-1.3v2.5h1.1c0.4,0,0.5-0.3,0.6-0.8h0.3v2H168c-0.1-0.6-0.2-0.8-0.6-0.8h-1.1V51c0,0.5,0.2,0.6,0.8,0.6h0.6c0.7,0,1-0.4,1.6-1.4
			h0.3l-0.3,1.8h-5L164.2,51.6z"/>
		<path class="st0" d="M176.3,45.6l0.1,2.1h-0.3c-0.6-1.3-0.8-1.8-1.5-1.8h-0.5v5.1c0,0.5,0.2,0.5,0.8,0.6V52h-2.9v-0.3
			c0.6-0.1,0.8-0.1,0.8-0.6V46h-0.5c-0.7,0-0.9,0.4-1.5,1.8h-0.3l0.1-2.1H176.3z"/>
		<path class="st0" d="M179.8,51c0,0.5,0.1,0.5,0.7,0.6v0.3h-2.8v-0.3c0.6-0.1,0.7-0.1,0.7-0.6v-4.4c0-0.5-0.1-0.5-0.7-0.6v-0.3h2.8
			v0.3c-0.6,0.1-0.7,0.1-0.7,0.6V51z M178.4,44.5c0-0.4,0.3-0.7,0.7-0.7c0,0,0,0,0,0c0.4,0,0.7,0.3,0.7,0.7c0,0,0,0,0,0
			c0,0.4-0.3,0.7-0.7,0.7c0,0,0,0,0,0C178.7,45.2,178.4,44.9,178.4,44.5C178.4,44.5,178.4,44.5,178.4,44.5"/>
		<path class="st0" d="M183.1,53.7c0.6,0,1-0.2,1-0.5s-0.3-0.3-0.7-0.4l0.3-0.9c-0.6,0-1.2-0.2-1.7-0.6l-0.1-1.5h0.4
			c0.2,1.1,0.8,1.8,1.7,1.8c0.7,0,1.2-0.4,1.2-1.1s-0.4-0.9-1.5-1.3s-1.7-0.9-1.7-1.9c0-1,0.8-1.9,1.9-1.9c0.1,0,0.2,0,0.2,0
			c0.7,0,1.3,0.2,1.9,0.5v1.4h-0.3c-0.2-0.9-0.7-1.5-1.5-1.5c-0.5-0.1-1,0.3-1,0.8c0,0,0,0.1,0,0.1c0,0.6,0.3,0.9,1.3,1.2
			c1.2,0.4,1.9,0.9,1.9,2c0,1.1-1.1,1.9-2.3,1.9l-0.1,0.3c0.6,0,0.9,0.2,0.9,0.7c0,0.6-0.7,0.9-1.6,0.9L183.1,53.7z"/>
		<path class="st0" d="M189.7,51c0,0.5,0.1,0.5,0.7,0.6v0.3h-2.8v-0.3c0.6-0.1,0.7-0.1,0.7-0.6v-4.4c0-0.5-0.1-0.5-0.7-0.6v-0.3h2.8
			v0.3c-0.6,0.1-0.7,0.1-0.7,0.6V51z M188.4,44.5c0-0.4,0.3-0.7,0.7-0.7c0,0,0,0,0,0c0.4,0,0.7,0.3,0.7,0.7c0,0,0,0,0,0
			c0,0.4-0.3,0.7-0.7,0.7c0,0,0,0,0,0C188.7,45.2,188.4,44.9,188.4,44.5C188.4,44.5,188.4,44.5,188.4,44.5"/>
		<path class="st0" d="M197.4,47.1l-1.7,4.8h-0.5l-1.8-4.8l-0.5,3.7c0,0.1,0,0.1,0,0.2c0,0.4,0.2,0.5,0.9,0.6v0.3h-2.1v-0.3
			c0.5,0,0.7-0.1,0.7-0.5l0.6-4.5c0-0.5-0.2-0.6-0.8-0.7v-0.3h2c0,0.2,0.1,0.4,0.1,0.5l1.5,3.9l1.4-3.9c0.1-0.2,0.1-0.4,0.1-0.5h2
			v0.3c-0.6,0-0.7,0.2-0.7,0.7l0.6,4.5c0.1,0.4,0.2,0.5,0.7,0.5v0.3H197v-0.3c0.6,0,0.8-0.1,0.8-0.6c0-0.1,0-0.1,0-0.2L197.4,47.1z"
			/>
		<path class="st0" d="M203.8,51.9v-0.3c0.6-0.1,0.7-0.1,0.7-0.6v-4.4c0-0.5-0.1-0.5-0.7-0.6v-0.3h2.9c1.4,0,2.2,0.5,2.2,1.6
			s-0.8,1.4-1.7,1.5c1.2,0,2,0.6,2,1.6s-0.8,1.7-2.4,1.7H203.8z M205.8,46v2.5h0.4c0.6,0.1,1.2-0.3,1.3-1c0-0.1,0-0.2,0-0.3
			c0-0.8-0.5-1.2-1.3-1.2L205.8,46z M205.8,48.9V51c0,0.5,0.2,0.6,0.7,0.6h0.1c0.8,0,1.2-0.5,1.2-1.4c0-0.9-0.5-1.3-1.5-1.3
			L205.8,48.9z"/>
		<path class="st0" d="M214.3,49.9h-2.4l-0.4,1c0,0.1-0.1,0.2-0.1,0.3c0,0.3,0.2,0.4,0.8,0.4v0.3h-1.8v-0.3c0.3,0,0.4-0.1,0.5-0.3
			l2-5l-0.3-0.7h1.4l2.3,5.7c0.1,0.2,0.3,0.3,0.5,0.3v0.3H214v-0.3c0.5,0,0.7-0.1,0.7-0.4c0-0.1,0-0.2-0.1-0.3L214.3,49.9z
			 M212,49.5h2.1l-1.1-2.7L212,49.5z"/>
		<path class="st0" d="M219.1,53.7c0.7,0,1-0.2,1-0.5s-0.3-0.3-0.7-0.4l0.3-0.9c-0.6,0-1.2-0.2-1.7-0.6l-0.1-1.5h0.4
			c0.2,1.1,0.8,1.8,1.7,1.8c0.7,0,1.2-0.4,1.2-1.1s-0.4-0.9-1.5-1.3s-1.7-0.9-1.7-1.9c0-1,0.9-1.9,1.9-1.9c0.1,0,0.1,0,0.2,0
			c0.7,0,1.3,0.2,1.9,0.5v1.4h-0.3c-0.2-0.9-0.7-1.5-1.5-1.5c-0.5-0.1-1,0.3-1,0.8c0,0.1,0,0.1,0,0.2c0,0.6,0.3,0.9,1.3,1.2
			c1.2,0.4,1.9,0.9,1.9,2c0,1.1-1.1,1.9-2.3,1.9l-0.1,0.3c0.5,0,0.9,0.2,0.9,0.7c0,0.6-0.7,0.9-1.6,0.9L219.1,53.7z"/>
		<path class="st0" d="M225.8,51c0,0.5,0.1,0.5,0.7,0.6v0.3h-2.8v-0.3c0.6-0.1,0.7-0.1,0.7-0.6v-4.4c0-0.5-0.1-0.5-0.7-0.6v-0.3h2.8
			v0.3c-0.6,0.1-0.7,0.1-0.7,0.6V51z M228.9,51c0.4,0.5,0.5,0.6,1,0.6V52h-1.7c-0.3-0.3-0.6-0.6-0.8-0.9l-1.6-2.2l2.2-2.3
			c0.1-0.1,0.2-0.2,0.2-0.4c0-0.1-0.1-0.2-0.7-0.2v-0.3h2V46c-0.3,0-0.6,0.1-0.8,0.4l-1.8,1.9L228.9,51z"/>
		<path class="st0" d="M234.8,49.9h-2.4l-0.4,1c0,0.1-0.1,0.2-0.1,0.3c0,0.3,0.2,0.4,0.8,0.4v0.3h-1.8v-0.3c0.3,0,0.4-0.1,0.5-0.3
			l2-5l-0.3-0.7h1.4l2.3,5.7c0.1,0.2,0.3,0.3,0.5,0.3v0.3h-2.7v-0.3c0.5,0,0.7-0.1,0.7-0.4c0-0.1,0-0.2-0.1-0.3L234.8,49.9z
			 M232.5,49.5h2.1l-1.1-2.7L232.5,49.5z"/>
		<path class="st0" d="M243.6,46.6c0-0.5-0.2-0.6-0.9-0.6v-0.3h2.1v0.3c-0.6,0.1-0.7,0.1-0.7,0.6v5.4h-0.4l-3.9-5v4
			c0,0.5,0.2,0.6,0.9,0.6v0.3h-2.1v-0.3c0.6-0.1,0.7-0.1,0.7-0.6v-4.5c-0.3-0.4-0.4-0.5-0.7-0.6v-0.3h1.8l3.3,4.2L243.6,46.6z"/>
		<path class="st0" d="M248.2,51c0,0.5,0.2,0.6,0.8,0.6h0.4c0.7,0,1-0.4,1.6-1.6h0.3l-0.3,1.9h-4.9v-0.3c0.6-0.1,0.7-0.1,0.7-0.6
			v-4.4c0-0.5-0.1-0.5-0.7-0.6v-0.3h2.8v0.3c-0.6,0.1-0.7,0.1-0.7,0.6L248.2,51z"/>
		<path class="st0" d="M254.5,51c0,0.5,0.1,0.5,0.7,0.6v0.3h-2.8v-0.3c0.6-0.1,0.7-0.1,0.7-0.6v-4.4c0-0.5-0.1-0.5-0.7-0.6v-0.3h2.8
			v0.3c-0.6,0.1-0.7,0.1-0.7,0.6V51z"/>
		<path class="st0" d="M260.8,49.9c0-0.5-0.1-0.6-0.7-0.6V49h2.7v0.3c-0.6,0.1-0.7,0.1-0.7,0.6v1.5c-0.7,0.4-1.5,0.6-2.3,0.6
			c-1.6,0.1-3-1-3.2-2.6c0-0.2,0-0.3,0-0.5c-0.1-1.7,1.2-3.3,2.9-3.4c0.1,0,0.2,0,0.2,0c0.7,0,1.4,0.2,2,0.5v1.5h-0.3
			c-0.2-1.1-0.7-1.6-1.6-1.6c-1.3,0-1.9,1.2-1.9,2.8s0.6,3,1.9,3c0.3,0,0.6-0.1,0.9-0.2L260.8,49.9z M258.7,43.9h0.3
			c0.1,0.5,0.5,0.7,1,0.7c0.5,0.1,0.9-0.2,1-0.7h0.3c0,0.7-0.6,1.3-1.3,1.3C259.2,45.2,258.7,44.6,258.7,43.9
			C258.7,43.9,258.7,43.9,258.7,43.9"/>
		<path class="st0" d="M266,51c0,0.5,0.1,0.5,0.7,0.6v0.3H264v-0.3c0.6-0.1,0.7-0.1,0.7-0.6v-4.4c0-0.5-0.1-0.5-0.7-0.6v-0.3h2.8
			v0.3c-0.6,0.1-0.7,0.1-0.7,0.6L266,51z"/>
		<path class="st0" d="M171.2,65.3v5h-1.2c-0.7-3.6-2.6-5.5-5.5-5.5c-4.2,0-6.2,4.2-6.2,9.5c0,5.7,2.3,10.1,6.5,10.1
			c2.9,0,4.9-1.8,5.9-6.3h1.2l-0.5,5.8c-2.1,1.3-4.6,1.9-7.1,1.8c-6.7,0-10.9-4.2-10.9-10.6c0-7.1,4.8-11.6,10.9-11.6
			C166.8,63.4,169.2,64.1,171.2,65.3"/>
		<path class="st0" d="M183.8,82.2c0,1.7,0.3,1.9,2.5,2.1v1.1h-9.5v-1.1c2.2-0.2,2.5-0.4,2.5-2.1V67c0-1.7-0.3-1.9-2.5-2.1v-1.1h9.5
			v1.1c-2.2,0.3-2.5,0.4-2.5,2.1V82.2z"/>
		<path class="st0" d="M209.9,68.9L204,85.4h-1.6l-6.2-16.5l-1.6,12.7c0,0.2-0.1,0.5-0.1,0.7c0,1.5,0.7,1.8,2.9,2v1.1h-7.1v-1.1
			c1.7-0.1,2.4-0.4,2.6-1.8l1.9-15.4c0-1.6-0.6-2.2-2.7-2.3v-1.1h7c0.1,0.6,0.2,1.3,0.5,1.9l5,13.4l4.7-13.5
			c0.3-0.6,0.4-1.2,0.5-1.9h6.9v1.1c-2,0.1-2.6,0.6-2.6,2.3l1.9,15.4c0.2,1.5,0.8,1.7,2.5,1.8v1.1h-10v-1.1c2.2-0.1,2.9-0.5,2.9-2
			c0-0.1,0-0.5,0-0.7L209.9,68.9z"/>
		<path class="st0" d="M222.8,84.3c2.2-0.2,2.5-0.4,2.5-2.1V67c0-1.7-0.3-1.9-2.5-2.1v-1.1h16.9l0.1,5.5H239
			c-1.5-3.4-2.4-4.3-4.9-4.3h-4.3v8.6h3.9c1.3,0,1.8-0.9,2.1-2.8h1.1v7h-1.1c-0.3-2-0.8-2.8-2.1-2.8h-3.9v7.1c0,1.7,0.8,2.1,2.7,2.1
			h1.9c2.5,0,3.4-1.3,5.4-4.9h1.1l-1,6.2h-17.1V84.3z"/>
		<path class="st0" d="M252.4,82.2c0,1.7,0.3,1.9,2.5,2.1v1.1h-9.4v-1.1c2.2-0.2,2.5-0.4,2.5-2.1V67c0-1.7-0.3-1.9-2.5-2.1v-1.1h9.8
			c5.1,0,8,2.4,8,6c-0.1,2.8-2.1,5.2-4.9,5.8l4.6,6.3c1.3,1.9,2.2,2.5,3.8,2.5v1.1h-5.8c-1-0.8-1.9-1.9-2.6-3l-4.2-6.2h-1.6
			L252.4,82.2z M252.4,65.1v9.8h1.5c3.2,0,4.8-1.9,4.8-5c0.2-2.5-1.6-4.6-4.1-4.8c-0.3,0-0.5,0-0.8,0H252.4z"/>
		<path class="st0" d="M179,59.6c0-1.3,1-2.4,2.4-2.4c0,0,0.1,0,0.1,0c1.3-0.1,2.5,0.9,2.6,2.2c0.1,1.3-0.9,2.5-2.2,2.6
			c-0.1,0-0.2,0-0.4,0c-1.3,0.1-2.4-1-2.5-2.3C179,59.7,179,59.6,179,59.6"/>
	</g>
</g>
</svg>
