<svg width="130" height="130" viewBox="0 0 130 130" fill="none" xmlns="http://www.w3.org/2000/svg">
<g clip-path="url(#clip0_2056_4262)">
<path d="M65 130C100.899 130 130 100.899 130 65C130 29.1015 100.899 0 65 0C29.1015 0 0 29.1015 0 65C0 100.899 29.1015 130 65 130Z" fill="white"/>
<path d="M64.9987 37.2738C59.5153 37.2738 54.155 38.8998 49.5957 41.9462C45.0364 44.9926 41.4828 49.3225 39.3843 54.3885C37.2858 59.4544 36.7367 65.0289 37.8063 70.407C38.8759 75.785 41.5162 80.7252 45.3935 84.6027C49.2707 88.4802 54.2106 91.1209 59.5886 92.1909C64.9666 93.2609 70.5411 92.7121 75.6072 90.614C80.6733 88.5158 85.0035 84.9626 88.0502 80.4035C91.0969 75.8444 92.7233 70.4842 92.7237 65.0008C92.7238 61.3598 92.0068 57.7544 90.6136 54.3905C89.2203 51.0266 87.1781 47.97 84.6036 45.3953C82.0291 42.8206 78.9727 40.7782 75.6089 39.3847C72.2451 37.9912 68.6397 37.274 64.9987 37.2738ZM70.3317 55.4838L71.9147 56.5608C72.0178 56.6206 72.135 56.6521 72.2542 56.6521C72.3734 56.6521 72.4905 56.6206 72.5937 56.5608L74.2327 55.7698C74.3615 55.7007 74.51 55.6771 74.6539 55.7029C74.7978 55.7287 74.9288 55.8023 75.0257 55.9118C75.5134 56.4264 75.9579 56.9803 76.3547 57.5678C76.4321 57.6889 76.4682 57.8318 76.4575 57.9752C76.4469 58.1185 76.3901 58.2545 76.2957 58.3628L75.0887 59.7388C75.011 59.828 74.9583 59.9361 74.936 60.0522C74.9137 60.1683 74.9226 60.2883 74.9617 60.3998L75.5847 62.2068C75.6255 62.318 75.695 62.4163 75.7862 62.4918C75.8774 62.5674 75.9869 62.6174 76.1037 62.6368L77.9087 62.9368C78.0517 62.96 78.1833 63.029 78.2838 63.1334C78.3842 63.2378 78.4481 63.372 78.4657 63.5158C78.5262 63.8597 78.5503 64.2089 78.5377 64.5578V65.6438C78.5285 65.789 78.4731 65.9274 78.3798 66.0389C78.2864 66.1504 78.1599 66.2292 78.0187 66.2638L76.2447 66.6638C76.1295 66.6912 76.0234 66.7482 75.9371 66.8293C75.8508 66.9103 75.7872 67.0126 75.7527 67.1258L75.2117 68.9408C75.1811 69.0563 75.1806 69.1776 75.2102 69.2933C75.2398 69.409 75.2985 69.5152 75.3807 69.6018L76.6727 70.9018C76.7749 71.0031 76.8411 71.1351 76.8612 71.2776C76.8812 71.4201 76.854 71.5653 76.7837 71.6908C76.4267 72.314 76.0218 72.9084 75.5727 73.4688C75.4791 73.5846 75.3494 73.6655 75.2043 73.6987C75.0593 73.7319 74.9073 73.7154 74.7727 73.6518L73.0927 72.9308C72.984 72.8829 72.8643 72.8655 72.7464 72.8805C72.6285 72.8954 72.517 72.9422 72.4237 73.0158L70.9057 74.1818C70.8114 74.2542 70.7386 74.3509 70.6951 74.4616C70.6516 74.5722 70.639 74.6926 70.6587 74.8098L70.9267 76.6248C70.9534 76.7665 70.931 76.9131 70.8632 77.0404C70.7954 77.1676 70.6862 77.268 70.5537 77.3248C69.9036 77.6525 69.2277 77.9261 68.5327 78.1428C68.3932 78.1762 68.2466 78.1645 68.1142 78.1093C67.9818 78.0541 67.8703 77.9584 67.7957 77.8358L66.8607 76.2478C66.8002 76.1467 66.7141 76.0635 66.6109 76.0066C66.5078 75.9497 66.3914 75.9211 66.2737 75.9238L64.3577 75.9798C64.2387 75.9802 64.1222 76.0137 64.0212 76.0766C63.9201 76.1395 63.8386 76.2293 63.7857 76.3358L62.9367 77.9198C62.8722 78.0477 62.7675 78.151 62.6388 78.2138C62.51 78.2767 62.3642 78.2956 62.2237 78.2678C61.5204 78.1225 60.8304 77.9191 60.1607 77.6598C60.0285 77.6064 59.9172 77.5118 59.8431 77.39C59.7691 77.2682 59.7363 77.1257 59.7497 76.9838L59.9227 75.1528C59.9335 75.0348 59.9129 74.9161 59.8631 74.8086C59.8132 74.7011 59.7358 74.6087 59.6387 74.5408L58.0567 73.4568C57.9602 73.3908 57.8478 73.3516 57.7312 73.3431C57.6145 73.3347 57.4977 73.3574 57.3927 73.4088L55.7517 74.2068C55.6233 74.2753 55.4758 74.2993 55.3323 74.2751C55.1889 74.2508 55.0574 74.1797 54.9587 74.0728C54.477 73.5366 54.037 72.9643 53.6427 72.3608C53.5651 72.2393 53.5296 72.0957 53.5417 71.952C53.5538 71.8083 53.6128 71.6726 53.7097 71.5658L54.9247 70.1898C55.0026 70.1008 55.0554 69.9927 55.0777 69.8765C55.1 69.7604 55.091 69.6404 55.0517 69.5288L54.4117 67.7288C54.3732 67.6167 54.3053 67.5169 54.2151 67.4401C54.1248 67.3632 54.0155 67.312 53.8987 67.2918L52.0877 66.9918C51.9461 66.9673 51.8163 66.8977 51.7175 66.7934C51.6187 66.689 51.5564 66.5555 51.5397 66.4128C51.4913 66.0816 51.4652 65.7475 51.4617 65.4128V64.2838C51.4686 64.1374 51.5236 63.9973 51.6181 63.8852C51.7127 63.7731 51.8415 63.6953 51.9847 63.6638L53.7747 63.2638C53.8893 63.2362 53.9945 63.1789 54.0799 63.0976C54.1652 63.0163 54.2276 62.9139 54.2607 62.8008L54.8087 60.9708C54.8423 60.8562 54.8451 60.7348 54.8168 60.6188C54.7885 60.5027 54.7302 60.3962 54.6477 60.3098L53.3627 59.0068C53.2602 58.9057 53.1939 58.7735 53.1742 58.6308C53.1545 58.4882 53.1825 58.343 53.2537 58.2178C53.6126 57.5965 54.0202 57.0047 54.4727 56.4478C54.564 56.3316 54.6924 56.25 54.8364 56.2167C54.9805 56.1834 55.1316 56.2004 55.2647 56.2648L56.9537 56.9938C57.0627 57.0413 57.1825 57.0585 57.3004 57.0435C57.4183 57.0286 57.53 56.982 57.6237 56.9088L59.1407 55.7418C59.2362 55.6722 59.3107 55.5776 59.3561 55.4684C59.4014 55.3592 59.4158 55.2397 59.3977 55.1228L59.1137 53.2758C59.0909 53.1347 59.1149 52.99 59.1818 52.8636C59.2488 52.7373 59.3551 52.6363 59.4847 52.5758C60.1404 52.281 60.819 52.0399 61.5137 51.8548C61.6521 51.8192 61.7983 51.8299 61.93 51.8854C62.0616 51.9408 62.1715 52.038 62.2427 52.1618L63.1797 53.7458C63.2396 53.8477 63.3255 53.9318 63.4287 53.9895C63.5319 54.0471 63.6485 54.0763 63.7667 54.0738L65.6827 54.0258C65.8013 54.0241 65.9171 53.9901 66.0178 53.9273C66.1184 53.8646 66.2 53.7756 66.2537 53.6698L67.1127 52.0818C67.1761 51.9533 67.2809 51.8499 67.4102 51.7882C67.5396 51.7265 67.6859 51.7102 67.8257 51.7418C68.4921 51.8861 69.1469 52.0796 69.7847 52.3208C69.9176 52.3727 70.0302 52.4662 70.1058 52.5873C70.1813 52.7084 70.2156 52.8506 70.2037 52.9928L70.0367 54.8728C70.0265 54.9919 70.0485 55.1115 70.1004 55.2192C70.1523 55.3269 70.2322 55.4176 70.3317 55.4838ZM77.0877 77.3798L76.9767 77.5018C76.6897 77.8538 76.4237 78.2298 76.1187 78.5628C75.3187 79.4368 74.5107 80.3198 73.6447 81.1628C72.972 81.8305 72.2165 82.4093 71.3967 82.8848C71.0269 83.0987 70.6449 83.2907 70.2527 83.4598C69.3813 83.8282 68.4193 83.9257 67.4917 83.7398C66.879 83.6388 66.2869 83.4385 65.7387 83.1468C65.7039 83.1324 65.6705 83.115 65.6387 83.0948C65.7399 83.044 65.8453 83.0018 65.9537 82.9688C66.8423 82.6928 67.6849 82.286 68.4537 81.7618C69.4792 81.0582 70.4659 80.2998 71.4097 79.4898C72.5903 78.542 73.9914 77.9081 75.4827 77.6468C75.9647 77.5538 76.4477 77.4858 76.9297 77.4078L77.0877 77.3798ZM64.0427 47.0378C63.1513 47.3124 62.3062 47.7193 61.5357 48.2448C60.5105 48.9488 59.5237 49.7072 58.5797 50.5168C57.3999 51.4661 55.9979 52.0993 54.5057 52.3568C54.0227 52.4568 53.5407 52.5178 53.0597 52.5998L52.9097 52.6198L53.0177 52.5028C53.3117 52.1488 53.5747 51.7698 53.8777 51.4408C54.6837 50.5668 55.4857 49.6838 56.3547 48.8408C57.0261 48.1714 57.781 47.5913 58.6007 47.1148C58.97 46.9039 59.3506 46.7133 59.7407 46.5438C60.614 46.1738 61.5785 46.0752 62.5087 46.2608C63.1196 46.3627 63.7102 46.5622 64.2577 46.8518C64.2927 46.8718 64.3217 46.8878 64.3577 46.9038C64.2573 46.9546 64.1533 46.998 64.0467 47.0338M58.8387 45.5798C57.6651 46.1352 56.5855 46.8704 55.6387 47.7588C55.5537 47.8308 55.4747 47.9128 55.3917 47.9898C54.5917 48.7308 53.7857 49.5018 52.9827 50.2498C52.5827 50.6268 52.1767 50.9958 51.7827 51.3498C50.9914 51.9678 50.0725 52.4019 49.0927 52.6208C49.0557 52.6328 49.0167 52.6408 48.9797 52.6538C48.8157 52.6908 48.6547 52.7318 48.4927 52.7668C48.4057 52.7828 48.3207 52.8038 48.2347 52.8198C48.0887 52.8488 47.9517 52.8718 47.8347 52.8878H47.8147C47.6334 52.8935 47.453 52.9156 47.2757 52.9538C47.3807 52.7868 47.4427 52.6818 47.4937 52.6018C47.9837 51.8888 48.5817 51.2648 49.1267 50.5958C49.5857 50.0328 50.0457 49.4708 50.5167 48.9148C51.4518 47.7325 52.5752 46.7122 53.8417 45.8948C54.8101 45.3328 55.8875 44.9847 57.0017 44.8738C57.7342 44.7971 58.4745 44.8578 59.1847 45.0528C59.3271 45.0962 59.4662 45.15 59.6007 45.2138C59.3007 45.3598 59.0707 45.4778 58.8397 45.5828M75.4227 86.1948C75.2899 86.304 75.1517 86.4065 75.0087 86.5018C74.3832 86.9442 73.7192 87.3294 73.0247 87.6528C72.7089 87.814 72.3836 87.956 72.0507 88.0778C71.9657 88.1068 71.8867 88.1348 71.8007 88.1628C71.1818 88.3982 70.5433 88.5786 69.8927 88.7018C69.0229 88.8722 68.1364 88.9413 67.2507 88.9078C67.2127 88.9078 67.1657 88.9078 67.1227 88.8998C65.8618 88.8078 64.6151 88.5753 63.4057 88.2068L59.2197 86.6598C59.7897 87.1099 60.3913 87.5187 61.0197 87.8828C61.1477 87.9548 61.2747 88.0248 61.4007 88.0928C62.2661 88.5542 63.1756 88.9274 64.1157 89.2068C64.2827 89.2548 64.6347 89.3488 64.6467 89.3488C64.9207 89.4208 65.1927 89.4858 65.4767 89.5388C65.9427 89.6318 66.4107 89.7008 66.8897 89.7488C66.9677 89.7568 67.0467 89.7608 67.1227 89.7688C67.1026 89.7827 67.0816 89.7951 67.0597 89.8058C67.0417 89.8191 67.0227 89.8308 67.0027 89.8408C66.9102 89.8973 66.814 89.9474 66.7147 89.9908C66.2892 90.1943 65.8464 90.3596 65.3917 90.4848C60.7657 91.7968 55.0467 89.3788 51.2917 86.9648C49.3765 85.7314 47.6055 84.2874 46.0117 82.6598C44.2985 80.9114 42.8553 78.9175 41.7297 76.7438C41.6477 76.5818 41.5687 76.4198 41.4867 76.2498C40.9491 75.1349 40.4945 73.9817 40.1267 72.7998C39.5454 70.9771 39.1973 69.0881 39.0907 67.1778C39.0397 66.0118 38.9687 64.8438 39.0167 63.6908C39.0743 61.8716 39.3132 60.0627 39.7297 58.2908C40.1068 56.7651 40.6178 55.2757 41.2567 53.8398C41.4017 53.5118 41.5567 53.1968 41.7137 52.8718C41.7387 52.8158 41.7667 52.7628 41.7957 52.7068C44.024 48.5616 47.3318 45.0959 51.3687 42.6768C51.3557 42.706 51.341 42.7344 51.3247 42.7618C51.3054 42.7964 51.284 42.8298 51.2607 42.8618C50.5767 43.6618 49.9117 44.4698 49.2107 45.2758C47.5757 47.0699 46.1841 49.0714 45.0717 51.2288C43.816 53.6275 43.0165 56.2384 42.7137 58.9288C42.4356 61.744 42.77 64.586 43.6937 67.2598C44.2145 68.9005 44.9603 70.461 45.9097 71.8968C45.9155 71.91 45.9229 71.9225 45.9317 71.9338C46.323 72.5187 46.7484 73.08 47.2057 73.6148C47.2318 73.65 47.2602 73.6834 47.2907 73.7148C47.3197 73.7478 47.3477 73.7808 47.3757 73.8148C48.183 74.7832 49.1178 75.6376 50.1547 76.3548C50.5161 76.5762 50.9056 76.7481 51.3127 76.8658L51.3697 76.8778C51.4307 76.8978 51.4917 76.9088 51.5557 76.9258C53.2763 77.3187 54.9383 77.9342 56.4997 78.7568C57.6867 79.4218 58.8727 80.0858 60.0557 80.7778C60.4787 81.0288 60.9027 81.2778 61.3257 81.5398C62.0967 82.0298 62.8887 82.4958 63.6947 82.9328C64.8727 83.5778 66.0847 84.1688 67.3187 84.6938C68.7116 85.3144 70.1863 85.7319 71.6977 85.9338C72.1157 85.9788 72.5267 86.0148 72.9447 86.0468C73.7051 86.0941 74.4674 86.1024 75.2287 86.0718C75.3547 86.0718 75.4817 86.0598 75.6057 86.0518C75.5497 86.1008 75.4867 86.1518 75.4267 86.1938M73.0057 85.1258C72.2719 85.2007 71.5306 85.14 70.8187 84.9468C70.6765 84.9028 70.5375 84.849 70.4027 84.7858C70.7027 84.6398 70.9337 84.5178 71.1657 84.4168C72.3407 83.8622 73.4206 83.1255 74.3657 82.2338C74.4447 82.1618 74.5267 82.0838 74.6077 82.0028C75.4137 81.2658 76.2157 80.4928 77.0177 79.7468C77.4177 79.3698 77.8237 79.0008 78.2177 78.6468C79.0075 78.0283 79.9261 77.5949 80.9057 77.3788H80.9107C80.9477 77.3708 80.9867 77.3588 81.0237 77.3498C81.1857 77.3088 81.3477 77.2738 81.5087 77.2368C81.5977 77.2168 81.6837 77.1958 81.7677 77.1838C81.9147 77.1568 82.0517 77.1318 82.1787 77.1158H82.1977C82.3773 77.1099 82.556 77.0878 82.7317 77.0498C82.6317 77.2168 82.5707 77.3218 82.5137 77.4018C82.0287 78.1118 81.4237 78.7388 80.8817 79.4078H80.8737C80.4164 79.9705 79.9547 80.5295 79.4887 81.0848C78.5537 82.2687 77.4287 83.2892 76.1597 84.1048C75.1931 84.6659 74.1177 85.014 73.0057 85.1258ZM90.2597 71.7068C89.8813 73.2321 89.3704 74.7215 88.7327 76.1578C88.5857 76.4818 88.4327 76.8008 88.2737 77.1258C88.2507 77.1818 88.2217 77.2348 88.1927 77.2908C85.9657 81.4346 82.6606 84.8997 78.6267 87.3198C78.6427 87.2908 78.6557 87.2668 78.6717 87.2378C78.6902 87.203 78.7112 87.1696 78.7347 87.1378C79.4217 86.3318 80.0847 85.5298 80.7847 84.7238C82.4199 82.9298 83.8119 80.9282 84.9247 78.7708C86.1788 76.3713 86.9792 73.7609 87.2857 71.0708C87.5606 68.2558 87.2267 65.4145 86.3067 62.7398C85.7836 61.1001 85.038 59.5399 84.0907 58.1028C84.0802 58.091 84.0723 58.077 84.0677 58.0618C83.6737 57.4763 83.2485 56.9125 82.7937 56.3728C82.7667 56.3398 82.7427 56.3088 82.7087 56.2728C82.6786 56.241 82.6502 56.2077 82.6237 56.1728C81.8161 55.2036 80.8813 54.3479 79.8447 53.6288C79.4833 53.4085 79.0938 53.2379 78.6867 53.1218C78.6671 53.1189 78.6479 53.1135 78.6297 53.1058C78.5707 53.0898 78.5097 53.0748 78.4477 53.0618C76.7246 52.6691 75.0604 52.0522 73.4977 51.2268C72.3107 50.5668 71.1287 49.9028 69.9417 49.2058C69.5207 48.9588 69.0997 48.7058 68.6727 48.4478C67.9014 47.9578 67.112 47.4912 66.3047 47.0478C65.1247 46.4078 63.9177 45.8158 62.6777 45.2908C61.9021 44.9467 61.1015 44.6622 60.2827 44.4398C59.6305 44.2715 58.9691 44.1416 58.3017 44.0508C57.8857 44.0018 57.4697 43.9698 57.0537 43.9378C56.2927 43.8968 55.5377 43.8768 54.7697 43.9088C54.6457 43.9088 54.5197 43.9248 54.3947 43.9288C54.4497 43.8838 54.5117 43.8358 54.5707 43.7908C54.7047 43.6778 54.8467 43.5808 54.9887 43.4798C55.6142 43.0409 56.2767 42.6571 56.9687 42.3328H56.9737C57.2886 42.1719 57.6128 42.03 57.9447 41.9078C58.0307 41.8788 58.1157 41.8468 58.1977 41.8228C59.6479 41.2715 61.1943 41.0178 62.7447 41.0768C62.7907 41.0768 62.8347 41.0768 62.8757 41.0768C64.134 41.1733 65.3778 41.4081 66.5847 41.7768L70.7737 43.3238C70.204 42.8744 69.6025 42.467 68.9737 42.1048C68.8467 42.0328 68.7187 41.9598 68.5917 41.8948C67.7289 41.4331 66.8216 41.0598 65.8837 40.7808H65.8787C65.7137 40.7328 65.3607 40.6398 65.3527 40.6358C65.0767 40.5658 64.8027 40.5018 64.5207 40.4488C64.0527 40.3558 63.5817 40.2878 63.1047 40.2388C63.0287 40.2308 62.9507 40.2228 62.8697 40.2188C62.8947 40.2068 62.9147 40.1898 62.9367 40.1778C62.9544 40.1665 62.9728 40.1561 62.9917 40.1468C63.0917 40.0898 63.1817 40.0418 63.2767 39.9928C63.7053 39.7939 64.1499 39.6313 64.6057 39.5068C69.2317 38.1988 74.9527 40.6168 78.6997 43.0308C80.6151 44.2639 82.3862 45.7079 83.9797 47.3358C85.6935 49.0824 87.1371 51.0751 88.2627 53.2478L88.5047 53.7418C89.0412 54.8574 89.4961 56.0104 89.8657 57.1918C90.4477 59.0158 90.7958 60.9062 90.9017 62.8178C90.9497 63.9848 91.0277 65.1518 90.9777 66.3048C90.9201 68.1242 90.6806 69.9332 90.2627 71.7048" fill="#155DFC"/>
<path d="M106.64 106.542H104.47C104.376 106.535 104.286 106.499 104.211 106.441C104.137 106.382 104.081 106.303 104.052 106.212C104.022 106.122 104.021 106.025 104.046 105.934C104.072 105.843 104.124 105.761 104.196 105.7L104.817 105.161C105.337 104.706 106.003 104.454 106.693 104.451H108.861C108.956 104.458 109.047 104.493 109.122 104.552C109.197 104.611 109.253 104.69 109.283 104.781C109.312 104.871 109.314 104.968 109.289 105.06C109.263 105.152 109.211 105.234 109.138 105.296L108.515 105.833C107.996 106.288 107.33 106.541 106.639 106.543" fill="#155DFC"/>
<path d="M109.482 103.499L107.315 103.649C107.22 103.648 107.128 103.619 107.049 103.566C106.971 103.512 106.91 103.437 106.875 103.349C106.839 103.261 106.83 103.165 106.849 103.072C106.868 102.98 106.914 102.894 106.982 102.828L107.569 102.246C108.053 101.755 108.7 101.458 109.388 101.41L111.552 101.257C111.647 101.257 111.74 101.285 111.819 101.338C111.897 101.391 111.959 101.467 111.995 101.555C112.031 101.643 112.04 101.74 112.02 101.833C112.001 101.926 111.954 102.011 111.887 102.078L111.303 102.658C110.817 103.148 110.171 103.447 109.483 103.498" fill="#155DFC"/>
<path d="M112.103 100.499L109.951 100.799C109.855 100.805 109.761 100.782 109.678 100.734C109.596 100.686 109.53 100.615 109.488 100.529C109.446 100.443 109.431 100.347 109.444 100.253C109.457 100.158 109.498 100.07 109.562 99.9988L110.103 99.3798C110.553 98.8576 111.177 98.5162 111.86 98.4188L114.012 98.1188C114.106 98.1129 114.2 98.135 114.282 98.1824C114.363 98.2297 114.429 98.3003 114.471 98.3851C114.513 98.4698 114.529 98.5651 114.517 98.6588C114.504 98.7526 114.465 98.8406 114.403 98.9118L113.861 99.5358C113.409 100.057 112.786 100.398 112.104 100.497" fill="#155DFC"/>
<path d="M114.487 97.1218L112.361 97.5668C112.267 97.5798 112.171 97.5645 112.086 97.5228C112.001 97.4811 111.93 97.415 111.882 97.3329C111.835 97.2508 111.813 97.1565 111.819 97.0619C111.826 96.9673 111.86 96.8767 111.919 96.8018L112.419 96.1448C112.832 95.593 113.43 95.2082 114.104 95.0608L116.229 94.6128C116.323 94.6 116.418 94.6154 116.504 94.657C116.589 94.6987 116.66 94.7647 116.708 94.8468C116.755 94.9289 116.777 95.0233 116.771 95.118C116.765 95.2127 116.731 95.3035 116.674 95.3788L116.174 96.0358C115.758 96.5866 115.16 96.9715 114.487 97.1218Z" fill="#155DFC"/>
<path d="M116.623 93.5848L114.539 94.1848C114.446 94.2037 114.35 94.1947 114.262 94.1589C114.174 94.1231 114.099 94.0621 114.045 93.9836C113.992 93.9051 113.963 93.8125 113.962 93.7176C113.961 93.6226 113.988 93.5295 114.039 93.4498L114.491 92.7598C114.866 92.1802 115.436 91.7544 116.098 91.5598L118.183 90.9598C118.276 90.94 118.373 90.9482 118.461 90.9836C118.55 91.0189 118.625 91.0796 118.679 91.1581C118.733 91.2366 118.762 91.3293 118.763 91.4243C118.763 91.5193 118.736 91.6125 118.683 91.6918L118.231 92.3828C117.857 92.9634 117.286 93.3895 116.622 93.5828" fill="#155DFC"/>
<path d="M118.509 89.9068L116.473 90.6478C116.381 90.6747 116.283 90.6735 116.192 90.6443C116.1 90.615 116.02 90.5591 115.961 90.4837C115.902 90.4084 115.867 90.3171 115.86 90.2215C115.853 90.126 115.875 90.0307 115.924 89.9478L116.324 89.2298C116.656 88.6246 117.196 88.1603 117.845 87.9228L119.882 87.1828C119.973 87.1562 120.071 87.1576 120.162 87.1869C120.253 87.2162 120.334 87.272 120.393 87.3473C120.452 87.4225 120.487 87.5137 120.494 87.6091C120.501 87.7045 120.479 87.7999 120.432 87.8828L120.032 88.6028C119.699 89.2083 119.158 89.6719 118.509 89.9068Z" fill="#155DFC"/>
<path d="M120.135 86.1098L118.148 86.9958C118.059 87.0287 117.961 87.0341 117.869 87.0114C117.776 86.9887 117.692 86.9389 117.628 86.8683C117.563 86.7977 117.521 86.7096 117.507 86.6151C117.493 86.5206 117.507 86.4241 117.548 86.3378L117.9 85.5948C118.188 84.9672 118.694 84.4655 119.324 84.1828L121.307 83.2998C121.397 83.2666 121.495 83.2609 121.587 83.2834C121.68 83.3059 121.764 83.3556 121.829 83.4262C121.893 83.4968 121.935 83.585 121.949 83.6795C121.963 83.774 121.949 83.8706 121.907 83.9568L121.555 84.7038C121.266 85.3289 120.761 85.8283 120.132 86.1098" fill="#155DFC"/>
<path d="M121.488 82.2148L119.57 83.2268C119.483 83.2653 119.387 83.2772 119.294 83.261C119.201 83.2448 119.114 83.2012 119.046 83.1358C118.978 83.0704 118.93 82.9861 118.91 82.8937C118.889 82.8013 118.897 82.7049 118.932 82.6168L119.227 81.8478C119.474 81.2034 119.943 80.6684 120.55 80.3388L122.467 79.3268C122.553 79.2886 122.65 79.2771 122.743 79.2936C122.836 79.3101 122.923 79.3539 122.991 79.4196C123.06 79.4852 123.107 79.5697 123.127 79.6623C123.148 79.755 123.14 79.8515 123.106 79.9398L122.811 80.7068C122.565 81.352 122.096 81.8881 121.488 82.2148Z" fill="#155DFC"/>
<path d="M122.563 78.2318L120.72 79.3828C120.635 79.426 120.54 79.4434 120.446 79.4329C120.352 79.4224 120.263 79.3844 120.191 79.3237C120.118 79.2631 120.065 79.1824 120.038 79.0917C120.011 79.001 120.011 78.9044 120.039 78.8138L120.282 78.0278C120.481 77.3653 120.914 76.7972 121.499 76.4278L123.337 75.2808C123.42 75.2359 123.515 75.2171 123.61 75.2266C123.704 75.2361 123.794 75.2736 123.867 75.3343C123.94 75.395 123.993 75.4761 124.02 75.5672C124.047 75.6583 124.045 75.7553 124.017 75.8458L123.775 76.6308C123.578 77.2936 123.147 77.8622 122.562 78.2308" fill="#155DFC"/>
<path d="M123.353 74.1828L121.597 75.4578C121.516 75.5078 121.423 75.5329 121.328 75.5298C121.234 75.5267 121.142 75.4956 121.065 75.4405C120.988 75.3853 120.93 75.3086 120.896 75.22C120.863 75.1314 120.857 75.0349 120.879 74.9428L121.066 74.1428C121.218 73.4701 121.609 72.8753 122.166 72.4678L123.922 71.1928C124.002 71.143 124.096 71.1181 124.191 71.1215C124.285 71.1249 124.377 71.1563 124.454 71.2118C124.531 71.2672 124.589 71.3443 124.622 71.4331C124.656 71.5219 124.661 71.6186 124.64 71.7108L124.452 72.5108C124.299 73.1829 123.908 73.7771 123.352 74.1838" fill="#155DFC"/>
<path d="M123.856 70.0948L122.199 71.4878C122.121 71.5437 122.029 71.5754 121.934 71.5788C121.839 71.5822 121.745 71.5573 121.664 71.5071C121.583 71.4569 121.519 71.3838 121.48 71.297C121.44 71.2102 121.428 71.1138 121.444 71.0198L121.574 70.2088C121.678 69.5267 122.026 68.9054 122.553 68.4598L124.216 67.0658C124.292 67.01 124.384 66.9782 124.479 66.9747C124.574 66.9712 124.667 66.9961 124.748 67.0461C124.829 67.0961 124.892 67.1691 124.931 67.2556C124.97 67.3421 124.983 67.4383 124.967 67.5318L124.84 68.3458C124.733 69.0283 124.384 69.6497 123.858 70.0968" fill="#155DFC"/>
<path d="M124.07 65.9778L122.509 67.4848C122.436 67.546 122.346 67.5841 122.252 67.5943C122.157 67.6046 122.062 67.5864 121.978 67.5423C121.894 67.4981 121.825 67.4298 121.779 67.3463C121.734 67.2627 121.715 67.1675 121.724 67.0728L121.798 66.2518C121.854 65.5632 122.158 64.9183 122.654 64.4368L124.213 62.9308C124.286 62.8698 124.375 62.8318 124.47 62.8218C124.564 62.8119 124.66 62.8303 124.744 62.8749C124.828 62.9194 124.897 62.988 124.942 63.0719C124.987 63.1557 125.006 63.2511 124.997 63.3458L124.923 64.1668C124.868 64.8542 124.565 65.498 124.07 65.9778Z" fill="#155DFC"/>
<path d="M123.993 61.8548L122.54 63.4608C122.471 63.5267 122.385 63.5708 122.292 63.5876C122.199 63.6043 122.102 63.5929 122.016 63.5549C121.929 63.5168 121.855 63.4538 121.804 63.3739C121.753 63.2939 121.727 63.2006 121.73 63.1058L121.745 62.2808C121.755 61.591 122.012 60.9277 122.471 60.4118L123.922 58.8008C123.99 58.7353 124.077 58.6916 124.171 58.6754C124.264 58.6591 124.361 58.671 124.448 58.7096C124.534 58.7481 124.608 58.8116 124.659 58.8919C124.709 58.9723 124.735 59.0659 124.733 59.1608L124.717 59.9828C124.707 60.672 124.45 61.3347 123.992 61.8498" fill="#155DFC"/>
<path d="M123.625 57.7518L122.291 59.4568C122.228 59.5285 122.145 59.5796 122.052 59.6034C121.959 59.6272 121.862 59.6226 121.772 59.5903C121.682 59.558 121.603 59.4994 121.547 59.4221C121.491 59.3449 121.459 59.2524 121.456 59.1568L121.414 58.3318C121.378 57.6429 121.591 56.964 122.013 56.4188L123.35 54.7118C123.414 54.6413 123.497 54.5913 123.59 54.5683C123.682 54.5452 123.779 54.55 123.868 54.5822C123.958 54.6143 124.035 54.6724 124.092 54.7489C124.148 54.8254 124.18 54.9169 124.184 55.0118L124.224 55.8368C124.261 56.5263 124.048 57.2069 123.625 57.7518Z" fill="#155DFC"/>
<path d="M122.971 53.6808L121.757 55.4808C121.698 55.5557 121.618 55.6115 121.528 55.641C121.437 55.6706 121.34 55.6727 121.248 55.647C121.157 55.6213 121.075 55.569 121.013 55.4967C120.951 55.4244 120.912 55.3353 120.901 55.2408L120.801 54.4228C120.712 53.7384 120.875 53.0451 121.26 52.4718L122.475 50.6718C122.533 50.5969 122.612 50.5411 122.703 50.5115C122.793 50.4819 122.89 50.4798 122.981 50.5055C123.073 50.5313 123.154 50.5837 123.216 50.6561C123.277 50.7284 123.316 50.8175 123.327 50.9118L123.427 51.7298C123.513 52.4139 123.35 53.106 122.968 53.6798" fill="#155DFC"/>
<path d="M122.028 49.6688L120.944 51.5448C120.89 51.6232 120.814 51.6839 120.726 51.7193C120.638 51.7546 120.541 51.763 120.448 51.7434C120.356 51.7238 120.271 51.6771 120.204 51.6092C120.138 51.5413 120.093 51.4552 120.076 51.3618L119.919 50.5538C119.787 49.8762 119.903 49.1737 120.247 48.5748L121.33 46.6998C121.383 46.6208 121.458 46.5594 121.546 46.5235C121.634 46.4876 121.731 46.4789 121.824 46.4984C121.917 46.518 122.002 46.5649 122.069 46.6333C122.135 46.7016 122.179 46.7881 122.196 46.8818L122.353 47.6888C122.485 48.3663 122.369 49.0689 122.028 49.6688Z" fill="#155DFC"/>
<path d="M120.807 45.7258L119.858 47.6748C119.809 47.756 119.738 47.8211 119.653 47.862C119.568 47.903 119.473 47.9178 119.38 47.9048C119.286 47.8918 119.199 47.8514 119.128 47.7888C119.057 47.7262 119.007 47.6441 118.983 47.5528L118.77 46.7528C118.586 46.0863 118.65 45.3759 118.95 44.7528L119.904 42.8028C119.951 42.721 120.022 42.6551 120.107 42.6136C120.192 42.572 120.288 42.5566 120.382 42.5694C120.476 42.5821 120.564 42.6224 120.635 42.6851C120.706 42.7479 120.756 42.8302 120.781 42.9218L120.994 43.7218C121.173 44.3875 121.108 45.0952 120.81 45.7168" fill="#155DFC"/>
<path d="M119.31 41.8848L118.498 43.8978C118.455 43.9826 118.389 44.0529 118.306 44.0998C118.224 44.1468 118.13 44.1682 118.035 44.1615C117.94 44.1547 117.85 44.1201 117.775 44.0619C117.7 44.0038 117.644 43.9248 117.615 43.8348L117.346 43.0568C117.117 42.407 117.132 41.6965 117.388 41.0568L118.202 39.0458C118.243 38.9605 118.309 38.8895 118.391 38.8419C118.474 38.7943 118.568 38.7724 118.663 38.7788C118.758 38.7853 118.848 38.8198 118.923 38.8781C118.998 38.9363 119.054 39.0156 119.084 39.1058L119.353 39.8838C119.579 40.5339 119.564 41.2438 119.311 41.8838" fill="#155DFC"/>
<path d="M117.547 38.1428L116.872 40.2078C116.836 40.2957 116.775 40.3709 116.696 40.4239C116.617 40.4768 116.524 40.5051 116.429 40.5051C116.334 40.5051 116.241 40.4768 116.163 40.4239C116.084 40.3709 116.023 40.2957 115.987 40.2078L115.67 39.4468C115.396 38.8142 115.36 38.1037 115.57 37.4468L116.239 35.3818C116.275 35.2938 116.336 35.2185 116.415 35.1655C116.494 35.1125 116.588 35.0842 116.683 35.0842C116.778 35.0842 116.871 35.1125 116.95 35.1655C117.029 35.2185 117.091 35.2938 117.127 35.3818L117.449 36.1378C117.72 36.7714 117.753 37.4816 117.543 38.1378" fill="#155DFC"/>
<path d="M115.523 34.5468L114.997 36.6468C114.967 36.7369 114.911 36.8162 114.837 36.8747C114.762 36.9331 114.672 36.9681 114.577 36.9752C114.483 36.9822 114.388 36.9611 114.306 36.9144C114.223 36.8677 114.156 36.7975 114.114 36.7128L113.74 35.9758C113.425 35.3628 113.342 34.6572 113.505 33.9878L114.031 31.8818C114.061 31.7917 114.117 31.7126 114.192 31.6544C114.267 31.5962 114.358 31.5615 114.453 31.5548C114.547 31.5481 114.642 31.5695 114.725 31.6165C114.807 31.6635 114.874 31.7339 114.917 31.8188L115.288 32.5538C115.603 33.1669 115.686 33.8732 115.523 34.5428" fill="#155DFC"/>
<path d="M113.249 31.0908L112.875 33.2298C112.851 33.3218 112.801 33.4048 112.73 33.4683C112.659 33.5317 112.572 33.5729 112.477 33.5864C112.383 33.6 112.288 33.5855 112.202 33.5446C112.116 33.5037 112.044 33.4384 111.996 33.3568L111.574 32.6498C111.215 32.0602 111.084 31.3604 111.203 30.6808L111.577 28.5438C111.6 28.4521 111.651 28.3694 111.721 28.3062C111.792 28.2429 111.88 28.202 111.973 28.1884C112.067 28.1748 112.163 28.1893 112.249 28.2299C112.334 28.2706 112.406 28.3356 112.455 28.4168L112.877 29.1238C113.233 29.7145 113.366 30.4134 113.252 31.0938" fill="#155DFC"/>
<path d="M110.741 27.7988L110.513 29.9548C110.496 30.0485 110.452 30.1351 110.386 30.2036C110.32 30.2721 110.235 30.3193 110.142 30.3393C110.049 30.3593 109.952 30.3511 109.864 30.3157C109.776 30.2803 109.7 30.2195 109.647 30.1408L109.177 29.4658C108.778 28.9025 108.596 28.2144 108.665 27.5278L108.893 25.3718C108.909 25.2785 108.953 25.1922 109.019 25.124C109.085 25.0557 109.169 25.0085 109.262 24.9883C109.354 24.9682 109.451 24.976 109.539 25.0108C109.627 25.0456 109.703 25.1058 109.757 25.1838L110.231 25.8608C110.63 26.4235 110.812 27.1124 110.741 27.7988Z" fill="#155DFC"/>
<path d="M108.004 24.8668L107.93 27.0348C107.919 27.1292 107.881 27.2184 107.82 27.2911C107.759 27.3638 107.677 27.4167 107.586 27.4431C107.495 27.4695 107.398 27.4683 107.307 27.4396C107.217 27.4109 107.137 27.356 107.078 27.2818L106.565 26.6398C106.125 26.1065 105.895 25.4308 105.919 24.7398L105.994 22.5718C106.004 22.4772 106.042 22.3878 106.103 22.315C106.164 22.2421 106.246 22.1891 106.337 22.1627C106.428 22.1363 106.526 22.1378 106.616 22.1668C106.707 22.1958 106.787 22.2512 106.846 22.3258L107.362 22.9658C107.8 23.4999 108.028 24.1755 108.004 24.8658" fill="#155DFC"/>
<path d="M105.058 21.9258L105.132 24.0958C105.128 24.1905 105.096 24.2819 105.041 24.3586C104.985 24.4352 104.908 24.4937 104.819 24.5265C104.73 24.5594 104.634 24.5652 104.542 24.5431C104.45 24.5211 104.366 24.4723 104.302 24.4028L103.741 23.8028C103.269 23.2996 102.993 22.6446 102.963 21.9558L102.888 19.7858C102.892 19.6908 102.925 19.5993 102.981 19.5227C103.037 19.446 103.115 19.3877 103.204 19.3549C103.294 19.3222 103.391 19.3165 103.483 19.3385C103.576 19.3605 103.66 19.4093 103.725 19.4788L104.282 20.0788C104.754 20.5813 105.029 21.2369 105.058 21.9258Z" fill="#155DFC"/>
<path d="M102.138 19.1998L102.365 21.3558C102.368 21.4507 102.343 21.5442 102.293 21.6247C102.243 21.7052 102.17 21.769 102.083 21.808C101.997 21.8471 101.901 21.8597 101.807 21.8441C101.714 21.8286 101.627 21.7857 101.557 21.7208L100.957 21.1568C100.453 20.6872 100.133 20.052 100.057 19.3668L99.8305 17.2108C99.828 17.1162 99.8536 17.023 99.9039 16.9428C99.9542 16.8626 100.027 16.7991 100.113 16.7601C100.2 16.7211 100.295 16.7085 100.389 16.7237C100.482 16.739 100.569 16.7815 100.638 16.8458L101.238 17.4108C101.744 17.8791 102.064 18.5145 102.138 19.1998Z" fill="#155DFC"/>
<path d="M98.8425 16.6978L99.2175 18.8348C99.2266 18.9296 99.2074 19.0248 99.1624 19.1087C99.1174 19.1925 99.0486 19.2612 98.9647 19.306C98.8807 19.3508 98.7854 19.3698 98.6907 19.3605C98.596 19.3512 98.5061 19.3141 98.4325 19.2538L97.7945 18.7348C97.258 18.3015 96.8947 17.6902 96.7705 17.0118L96.3965 14.8758C96.386 14.7812 96.4039 14.6855 96.4481 14.6012C96.4923 14.5168 96.5607 14.4475 96.6445 14.4023C96.7283 14.3571 96.8237 14.3379 96.9185 14.3473C97.0133 14.3566 97.1031 14.3941 97.1765 14.4548L97.8165 14.9748C98.3532 15.4077 98.7169 16.0187 98.8415 16.6968" fill="#155DFC"/>
<path d="M95.3795 14.4338L95.9055 16.5338C95.9214 16.6275 95.9091 16.7238 95.8702 16.8105C95.8313 16.8972 95.7676 16.9704 95.687 17.0209C95.6065 17.0713 95.5128 17.0967 95.4178 17.0939C95.3228 17.091 95.2309 17.06 95.1535 17.0048L94.4835 16.5298C93.9174 16.1385 93.5112 15.5563 93.3395 14.8898L92.8125 12.7838C92.7965 12.6899 92.8087 12.5933 92.8477 12.5062C92.8866 12.4192 92.9504 12.3457 93.0311 12.2949C93.1118 12.2442 93.2058 12.2185 93.3011 12.2212C93.3964 12.2238 93.4887 12.2547 93.5665 12.3098L94.2365 12.7838C94.8034 13.1786 95.2092 13.7643 95.3795 14.4338Z" fill="#155DFC"/>
<path d="M91.7715 12.4178L92.4415 14.4808C92.4641 14.5731 92.4588 14.67 92.4263 14.7593C92.3938 14.8486 92.3355 14.9262 92.2588 14.9823C92.1821 15.0384 92.0905 15.0705 91.9956 15.0745C91.9007 15.0785 91.8067 15.0543 91.7256 15.0048L91.0256 14.5778C90.4328 14.2253 89.9877 13.6701 89.7726 13.0148L89.1025 10.9518C89.0798 10.8598 89.085 10.763 89.1174 10.6739C89.1498 10.5848 89.208 10.5074 89.2845 10.4514C89.3611 10.3955 89.4525 10.3635 89.5472 10.3597C89.642 10.3558 89.7357 10.3803 89.8166 10.4298L90.5166 10.8568C91.1101 11.208 91.556 11.7627 91.7715 12.4178Z" fill="#155DFC"/>
<path d="M88.0326 10.6658L88.8476 12.6748C88.876 12.7655 88.877 12.8626 88.8505 12.9538C88.8239 13.045 88.7709 13.1264 88.6983 13.1876C88.6256 13.2488 88.5365 13.2872 88.442 13.2979C88.3476 13.3086 88.2522 13.2912 88.1676 13.2478L87.4386 12.8728C86.8215 12.5633 86.3379 12.0402 86.0776 11.4008L85.2636 9.38983C85.2345 9.2996 85.2328 9.20275 85.2588 9.11157C85.2848 9.02038 85.3372 8.93895 85.4095 8.87759C85.4818 8.81624 85.5706 8.77771 85.6648 8.76689C85.759 8.75607 85.8543 8.77345 85.9386 8.81683L86.6746 9.19383C87.2912 9.50381 87.7742 10.0273 88.0336 10.6668" fill="#155DFC"/>
<path d="M84.1795 9.17783L85.1315 11.1278C85.1666 11.216 85.1749 11.3126 85.1552 11.4054C85.1354 11.4982 85.0886 11.5831 85.0207 11.6494C84.9527 11.7156 84.8667 11.7602 84.7734 11.7776C84.6801 11.7949 84.5837 11.7842 84.4965 11.7468L83.7385 11.4188C83.1015 11.1527 82.5827 10.6645 82.2785 10.0448L81.3265 8.09483C81.2915 8.0067 81.2835 7.91017 81.3034 7.81748C81.3234 7.72479 81.3704 7.6401 81.4385 7.57414C81.5066 7.50818 81.5927 7.46391 81.686 7.44694C81.7793 7.42997 81.8755 7.44107 81.9625 7.47883L82.7185 7.80383C83.3557 8.06958 83.8756 8.5579 84.1795 9.17783Z" fill="#155DFC"/>
<path d="M80.2355 7.96283L81.3225 9.83983C81.3639 9.92554 81.3789 10.0216 81.3655 10.1159C81.3522 10.2101 81.3111 10.2982 81.2476 10.3691C81.184 10.4399 81.1008 10.4903 81.0086 10.5137C80.9163 10.5372 80.8192 10.5327 80.7295 10.5008L79.9515 10.2308C79.2985 10.0097 78.7474 9.5601 78.3995 8.96483L77.3155 7.08683C77.2737 7.00138 77.2584 6.90543 77.2713 6.8112C77.2843 6.71698 77.325 6.62874 77.3883 6.55773C77.4515 6.48672 77.5345 6.43617 77.6267 6.4125C77.7188 6.38883 77.8159 6.39312 77.9055 6.42483L78.6825 6.69683C79.3364 6.91739 79.8873 7.36707 80.2355 7.96283Z" fill="#155DFC"/>
<path d="M76.2165 7.02984L77.4335 8.82984C77.4795 8.91258 77.5002 9.00706 77.4929 9.10147C77.4856 9.19589 77.4506 9.28606 77.3924 9.36074C77.3342 9.43541 77.2552 9.49127 77.1654 9.52134C77.0756 9.55141 76.9789 9.55437 76.8875 9.52984L76.0945 9.31584C75.4274 9.13858 74.8459 8.7281 74.4555 8.15884L73.2425 6.35884C73.1968 6.27634 73.1763 6.18226 73.1836 6.08824C73.1908 5.99422 73.2255 5.90439 73.2833 5.82988C73.3411 5.75537 73.4195 5.69945 73.5087 5.66905C73.598 5.63865 73.6942 5.6351 73.7855 5.65884L74.5855 5.87884C75.2516 6.05369 75.8319 6.46357 76.2195 7.03284" fill="#155DFC"/>
<path d="M72.1445 6.38282L73.4805 8.09082C73.5335 8.16975 73.5617 8.26265 73.5617 8.35768C73.5617 8.45272 73.5334 8.5456 73.4804 8.62451C73.4274 8.70342 73.3522 8.76479 73.2642 8.80082C73.1763 8.83684 73.0796 8.84589 72.9865 8.82682L72.1805 8.66882C71.5019 8.54106 70.8925 8.17156 70.4655 7.62882L69.1315 5.91782C69.0787 5.83895 69.0505 5.74618 69.0505 5.65127C69.0505 5.55635 69.0787 5.46358 69.1316 5.38473C69.1844 5.30587 69.2594 5.24449 69.3472 5.20836C69.435 5.17223 69.5315 5.16299 69.6245 5.18182L70.4305 5.34682C71.109 5.47359 71.7183 5.84289 72.1445 6.38582" fill="#155DFC"/>
<path d="M68.0385 6.02383L69.4895 7.63483C69.5475 7.71008 69.5818 7.80087 69.588 7.89566C69.5943 7.99045 69.5722 8.08496 69.5246 8.16718C69.477 8.2494 69.4061 8.3156 69.3208 8.35739C69.2355 8.39917 69.1396 8.41464 69.0455 8.40183L68.2315 8.30183C67.5454 8.22013 66.9116 7.89386 66.4465 7.38283L64.9955 5.77083C64.9365 5.69564 64.9013 5.60451 64.8945 5.50917C64.8877 5.41382 64.9096 5.31863 64.9574 5.23582C65.0051 5.15301 65.0765 5.08639 65.1625 5.04451C65.2484 5.00263 65.3449 4.98742 65.4395 5.00083L66.2565 5.10083C66.9423 5.18116 67.5757 5.50729 68.0395 6.01883" fill="#155DFC"/>
<path d="M63.9156 5.95484L65.4786 7.46484C65.5413 7.53588 65.5815 7.6239 65.5942 7.71779C65.6068 7.81168 65.5914 7.90721 65.5497 7.9923C65.5081 8.0774 65.4422 8.14823 65.3603 8.19585C65.2784 8.24348 65.1842 8.26574 65.0896 8.25984L64.2686 8.21384C63.5795 8.18213 62.9251 7.90184 62.4266 7.42484L60.8656 5.91684C60.8021 5.84608 60.7609 5.75801 60.7475 5.66383C60.7341 5.56965 60.7489 5.4736 60.7902 5.38788C60.8314 5.30215 60.8972 5.23062 60.9792 5.18236C61.0612 5.13411 61.1557 5.1113 61.2506 5.11684L62.0726 5.16284C62.7621 5.19638 63.4164 5.4782 63.9156 5.95484Z" fill="#155DFC"/>
<path d="M59.7995 6.17784L61.4615 7.57784C61.5289 7.64405 61.5752 7.72875 61.5945 7.82124C61.6138 7.91374 61.6052 8.00987 61.5699 8.09751C61.5346 8.18515 61.4741 8.26036 61.3961 8.31363C61.318 8.36691 61.226 8.39587 61.1315 8.39684L60.3085 8.40784C59.6188 8.42524 58.9465 8.19059 58.4175 7.74784L56.7545 6.35284C56.686 6.28707 56.6387 6.20235 56.6187 6.10954C56.5986 6.01673 56.6067 5.92004 56.642 5.83187C56.6772 5.74369 56.7379 5.66804 56.8164 5.61459C56.8949 5.56114 56.9875 5.53233 57.0825 5.53184L57.9055 5.51984C58.5953 5.50488 59.2675 5.73841 59.7995 6.17784Z" fill="#155DFC"/>
<path d="M55.7095 6.69282L57.4655 7.96382C57.5376 8.02547 57.5899 8.10707 57.6158 8.19837C57.6417 8.28967 57.64 8.38658 57.6109 8.47691C57.5818 8.56724 57.5267 8.64695 57.4524 8.70601C57.3781 8.76507 57.288 8.80085 57.1935 8.80882L56.3715 8.87682C55.6842 8.94039 54.997 8.7536 54.4365 8.35082L52.6835 7.07682C52.6106 7.01521 52.5576 6.9333 52.5314 6.84151C52.5052 6.74972 52.5069 6.65221 52.5363 6.56139C52.5657 6.47057 52.6214 6.39055 52.6964 6.3315C52.7714 6.27246 52.8623 6.23706 52.9575 6.22982L53.7765 6.16182C54.4644 6.09997 55.1515 6.28853 55.7115 6.69282" fill="#155DFC"/>
<path d="M51.6606 7.48784L53.5057 8.63484C53.5817 8.69165 53.6394 8.76963 53.6714 8.85902C53.7034 8.94842 53.7084 9.04527 53.6856 9.13746C53.6629 9.22966 53.6135 9.31311 53.5436 9.37738C53.4737 9.44166 53.3864 9.4839 53.2926 9.49884L52.4786 9.62484C51.7952 9.73879 51.0936 9.59941 50.5057 9.23284L48.6676 8.08484C48.5911 8.02864 48.5328 7.95102 48.5003 7.86176C48.4677 7.7725 48.4624 7.67561 48.4848 7.5833C48.5073 7.49099 48.5566 7.4074 48.6265 7.34307C48.6964 7.27875 48.7838 7.23656 48.8776 7.22184L49.6927 7.09784C50.3743 6.98632 51.0734 7.1252 51.6606 7.48884" fill="#155DFC"/>
<path d="M47.6766 8.56783L49.5926 9.58283C49.6728 9.63388 49.736 9.70752 49.7743 9.79447C49.8127 9.88141 49.8244 9.97777 49.808 10.0714C49.7917 10.165 49.7479 10.2516 49.6824 10.3204C49.6168 10.3892 49.5323 10.437 49.4396 10.4578L48.6396 10.6418C47.968 10.8003 47.2616 10.7097 46.6516 10.3868L44.7316 9.36983C44.6514 9.31944 44.588 9.24631 44.5495 9.15974C44.511 9.07318 44.4991 8.9771 44.5154 8.88377C44.5317 8.79044 44.5755 8.70408 44.641 8.6357C44.7066 8.56732 44.7911 8.52002 44.8836 8.49983L45.6836 8.30983C46.3574 8.1541 47.0647 8.24566 47.6766 8.56783Z" fill="#155DFC"/>
<path d="M43.7817 9.93184L45.7657 10.8098C45.8493 10.8551 45.9176 10.924 45.9622 11.008C46.0068 11.0919 46.0256 11.1871 46.0163 11.2817C46.007 11.3763 45.97 11.466 45.91 11.5397C45.8499 11.6134 45.7695 11.6677 45.6787 11.6958L44.8867 11.9338C44.2282 12.1386 43.5179 12.0985 42.8867 11.8208L40.9057 10.9398C40.8219 10.895 40.7533 10.8264 40.7085 10.7426C40.6637 10.6589 40.6447 10.5637 40.6539 10.4692C40.6631 10.3746 40.7001 10.2849 40.7602 10.2113C40.8203 10.1378 40.9009 10.0837 40.9917 10.0558L41.7807 9.81684C42.4397 9.61411 43.1496 9.65528 43.7807 9.93284" fill="#155DFC"/>
<path d="M39.9875 11.5598L42.0275 12.3028C42.1142 12.3417 42.1874 12.4056 42.2378 12.4862C42.2881 12.5668 42.3133 12.6606 42.3102 12.7556C42.3071 12.8506 42.2758 12.9425 42.2203 13.0197C42.1648 13.0968 42.0876 13.1557 41.9985 13.1888L41.2285 13.4808C40.5852 13.7325 39.8724 13.7421 39.2225 13.5078L37.1855 12.7678C37.0989 12.7285 37.0259 12.6645 36.9758 12.5837C36.9256 12.503 36.9005 12.4092 36.9036 12.3142C36.9067 12.2191 36.9379 12.1272 36.9932 12.0499C37.0485 11.9726 37.1255 11.9134 37.2145 11.8798L37.9845 11.5858C38.6264 11.3378 39.3361 11.3282 39.9845 11.5588" fill="#155DFC"/>
<path d="M36.3185 13.4548L38.4035 14.0548C38.4926 14.0876 38.5699 14.146 38.6258 14.2227C38.6816 14.2994 38.7135 14.391 38.7174 14.4858C38.7212 14.5806 38.6969 14.6744 38.6474 14.7554C38.598 14.8364 38.5256 14.9009 38.4395 14.9408L37.6915 15.2838C37.0666 15.578 36.3568 15.6376 35.6915 15.4518L33.6005 14.8518C33.5117 14.8185 33.4348 14.7597 33.3794 14.6826C33.324 14.6056 33.2927 14.514 33.2894 14.4192C33.286 14.3244 33.3109 14.2307 33.3607 14.15C33.4106 14.0694 33.4833 14.0053 33.5695 13.9658L34.3175 13.6208C34.942 13.3249 35.6526 13.2655 36.3175 13.4538" fill="#155DFC"/>
<path d="M32.7846 15.6018L34.9076 16.0538C34.9991 16.0797 35.0808 16.1322 35.1424 16.2046C35.2039 16.2771 35.2426 16.3663 35.2533 16.4608C35.264 16.5552 35.2464 16.6508 35.2026 16.7352C35.1588 16.8196 35.0909 16.8891 35.0076 16.9348L34.2866 17.3348C33.6842 17.6709 32.9812 17.7795 32.3056 17.6408L30.1836 17.1888C30.0921 17.1627 30.0105 17.1101 29.949 17.0375C29.8875 16.965 29.849 16.8758 29.8383 16.7813C29.8275 16.6868 29.8451 16.5913 29.8888 16.5068C29.9325 16.4223 30.0003 16.3527 30.0836 16.3068L30.8086 15.9068C31.4109 15.5727 32.1133 15.4663 32.7876 15.6068" fill="#155DFC"/>
<path d="M29.4106 17.9938L31.5586 18.2938C31.6512 18.3138 31.7358 18.3609 31.8017 18.429C31.8676 18.4971 31.9118 18.5833 31.9287 18.6765C31.9456 18.7698 31.9345 18.8659 31.8967 18.9528C31.859 19.0398 31.7963 19.1135 31.7166 19.1648L31.0226 19.6128C30.4461 19.9908 29.7525 20.1474 29.0696 20.0538L26.9176 19.7538C26.8251 19.7335 26.7407 19.6863 26.675 19.618C26.6094 19.5498 26.5655 19.4636 26.5488 19.3704C26.5321 19.2772 26.5434 19.1811 26.5813 19.0944C26.6191 19.0076 26.6819 18.934 26.7616 18.8828L27.4526 18.4318C28.0312 18.0556 28.7256 17.8995 29.4096 17.9918" fill="#155DFC"/>
<path d="M26.3985 20.6188L28.5625 20.7688C28.6566 20.7823 28.7446 20.8235 28.8153 20.8872C28.8859 20.9508 28.936 21.0341 28.9592 21.1263C28.9824 21.2186 28.9776 21.3156 28.9454 21.4051C28.9132 21.4946 28.8551 21.5725 28.7785 21.6288L28.1175 22.1188C27.5697 22.5378 26.8886 22.7439 26.2005 22.6988L24.0365 22.5488C23.9423 22.5355 23.8541 22.4944 23.7834 22.4308C23.7126 22.3672 23.6623 22.284 23.6391 22.1917C23.6158 22.0995 23.6205 22.0024 23.6526 21.9128C23.6848 21.8232 23.7429 21.7453 23.8195 21.6888L24.4795 21.1888C25.0288 20.771 25.711 20.5667 26.3995 20.6138" fill="#155DFC"/>
<path d="M23.3557 23.4558H25.5267C25.6217 23.4632 25.7125 23.4986 25.7875 23.5575C25.8625 23.6165 25.9183 23.6964 25.9478 23.7871C25.9774 23.8778 25.9793 23.9752 25.9535 24.067C25.9277 24.1588 25.8752 24.2409 25.8027 24.3028L25.1797 24.8398C24.6609 25.2952 23.9949 25.5474 23.3047 25.5498H21.1367C21.0419 25.543 20.9514 25.5082 20.8765 25.4498C20.8016 25.3915 20.7456 25.3122 20.7158 25.2221C20.6859 25.1319 20.6834 25.035 20.7087 24.9434C20.734 24.8519 20.7858 24.7699 20.8577 24.7078L21.4807 24.1698C21.9994 23.7142 22.6652 23.4611 23.3557 23.4568" fill="#155DFC"/>
<path d="M20.5177 26.5088L22.6837 26.3588C22.7785 26.3595 22.8711 26.3881 22.9497 26.4412C23.0283 26.4943 23.0894 26.5694 23.1254 26.6572C23.1614 26.7449 23.1707 26.8413 23.1521 26.9343C23.1334 27.0273 23.0877 27.1127 23.0207 27.1798L22.4307 27.7598C21.9459 28.2484 21.3011 28.5456 20.6147 28.5968L18.4477 28.7498C18.3526 28.7495 18.2597 28.7209 18.1809 28.6677C18.1021 28.6145 18.0409 28.539 18.005 28.451C17.9691 28.3629 17.9602 28.2662 17.9793 28.173C17.9985 28.0799 18.0449 27.9946 18.1127 27.9278L18.6967 27.3488C19.1817 26.8578 19.8294 26.5594 20.5177 26.5088Z" fill="#155DFC"/>
<path d="M17.9055 29.4988L20.0565 29.1988C20.1511 29.1927 20.2455 29.2148 20.3275 29.2624C20.4096 29.31 20.4756 29.3809 20.5172 29.4662C20.5588 29.5514 20.5741 29.6471 20.5611 29.7411C20.5482 29.835 20.5076 29.923 20.4445 29.9938L19.9035 30.6138C19.4534 31.1362 18.8291 31.4777 18.1465 31.5748L15.9975 31.8808C15.9024 31.8866 15.8077 31.8642 15.7253 31.8163C15.643 31.7684 15.5766 31.6972 15.5346 31.6117C15.4926 31.5262 15.4768 31.4301 15.4892 31.3357C15.5017 31.2412 15.5418 31.1526 15.6045 31.0808L16.1475 30.4618C16.5983 29.9395 17.2226 29.5976 17.9055 29.4988Z" fill="#155DFC"/>
<path d="M15.5145 32.8798L17.6365 32.4288C17.7307 32.4155 17.8267 32.4305 17.9123 32.4721C17.9979 32.5136 18.0691 32.5797 18.1169 32.662C18.1647 32.7443 18.1869 32.8389 18.1806 32.9338C18.1742 33.0288 18.1397 33.1196 18.0815 33.1948L17.5815 33.8518C17.1688 34.4037 16.5715 34.7888 15.8985 34.9368L13.7765 35.3858C13.6827 35.3991 13.587 35.3841 13.5017 35.3428C13.4164 35.3015 13.3454 35.2357 13.2976 35.1539C13.2499 35.072 13.2276 34.9778 13.2336 34.8832C13.2397 34.7886 13.2737 34.698 13.3315 34.6228L13.8315 33.9678C14.2432 33.4143 14.8414 33.0286 15.5155 32.8818" fill="#155DFC"/>
<path d="M13.3686 36.4158L15.4546 35.8158C15.5477 35.797 15.6443 35.806 15.7322 35.8418C15.8202 35.8776 15.8956 35.9386 15.949 36.0171C16.0024 36.0956 16.0314 36.1882 16.0324 36.2831C16.0334 36.3781 16.0064 36.4712 15.9546 36.5508L15.5026 37.2408C15.1291 37.8215 14.5584 38.2476 13.8956 38.4408L11.8106 39.0408C11.7177 39.0599 11.6213 39.051 11.5335 39.0154C11.4456 38.9798 11.3702 38.919 11.3168 38.8407C11.2634 38.7623 11.2343 38.67 11.2332 38.5752C11.2321 38.4804 11.259 38.3874 11.3106 38.3078L11.7686 37.6158C12.1408 37.0369 12.7086 36.611 13.3686 36.4158Z" fill="#155DFC"/>
<path d="M11.4885 40.0908L13.5285 39.3518C13.6203 39.3252 13.7179 39.3267 13.8088 39.3561C13.8998 39.3856 13.9798 39.4416 14.0385 39.5169C14.0973 39.5923 14.1322 39.6835 14.1386 39.7789C14.145 39.8742 14.1226 39.9693 14.0745 40.0518L13.6745 40.7718C13.3439 41.378 12.8029 41.8423 12.1535 42.0768L10.1175 42.8208C10.0255 42.8475 9.92772 42.8461 9.83656 42.8169C9.74539 42.7877 9.66503 42.7319 9.60575 42.6567C9.54647 42.5816 9.51097 42.4904 9.50379 42.3949C9.49662 42.2995 9.5181 42.204 9.56548 42.1208L9.96548 41.3998C10.2994 40.7953 10.8396 40.331 11.4875 40.0918" fill="#155DFC"/>
<path d="M9.86451 43.8858L11.8455 43.0068C11.9352 42.974 12.0326 42.9685 12.1254 42.9912C12.2182 43.014 12.3021 43.0638 12.3665 43.1344C12.4308 43.2049 12.4727 43.2931 12.4868 43.3875C12.5009 43.482 12.4865 43.5785 12.4455 43.6648L12.0945 44.4108C11.8052 45.0368 11.2995 45.5371 10.6705 45.8198L8.68651 46.7028C8.59725 46.7345 8.50059 46.7391 8.40875 46.7159C8.31691 46.6927 8.23401 46.6427 8.17054 46.5724C8.10707 46.5021 8.06587 46.4145 8.05216 46.3208C8.03845 46.2271 8.05284 46.1314 8.09351 46.0458L8.44351 45.2988C8.73276 44.6729 9.23697 44.1715 9.86451 43.8858Z" fill="#155DFC"/>
<path d="M8.5106 47.7868L10.4286 46.7698C10.5154 46.7319 10.6116 46.7204 10.7049 46.737C10.7982 46.7536 10.8845 46.7974 10.953 46.863C11.0214 46.9285 11.0689 47.0129 11.0895 47.1054C11.1101 47.1979 11.1028 47.2944 11.0686 47.3828L10.7686 48.1518C10.5243 48.7962 10.0551 49.3304 9.4476 49.6558L7.5336 50.6748C7.44714 50.7139 7.351 50.7261 7.2575 50.7101C7.16401 50.6941 7.07743 50.6506 7.00887 50.585C6.94031 50.5195 6.8929 50.4349 6.87272 50.3422C6.85253 50.2496 6.8605 50.153 6.8956 50.0648L7.1876 49.2938C7.43647 48.6511 7.90527 48.1164 8.5106 47.7868Z" fill="#155DFC"/>
<path d="M7.43862 51.7688L9.27762 50.6178C9.3618 50.5742 9.45699 50.5564 9.55126 50.5666C9.64553 50.5768 9.7347 50.6146 9.80761 50.6752C9.88052 50.7358 9.93392 50.8166 9.96114 50.9074C9.98835 50.9983 9.98817 51.0951 9.96062 51.1858L9.71862 51.9738C9.51767 52.6352 9.08668 53.2027 8.50362 53.5738L6.65662 54.7168C6.57322 54.7594 6.47916 54.7764 6.38614 54.7659C6.29312 54.7553 6.20526 54.7176 6.13351 54.6575C6.06176 54.5974 6.00929 54.5175 5.98263 54.4277C5.95598 54.338 5.95632 54.2424 5.98362 54.1528L6.22262 53.3688C6.42229 52.7063 6.85445 52.1382 7.43962 51.7688" fill="#155DFC"/>
<path d="M6.64665 55.8148L8.40365 54.5378C8.4845 54.4882 8.57822 54.4637 8.673 54.4673C8.76778 54.471 8.85935 54.5026 8.93617 54.5582C9.01299 54.6139 9.0716 54.691 9.10461 54.7799C9.13762 54.8688 9.14355 54.9655 9.12165 55.0578L8.93465 55.8578C8.7813 56.5311 8.39086 57.1267 7.83465 57.5358L6.08165 58.8128C6.00108 58.8632 5.90734 58.8885 5.81236 58.8855C5.71738 58.8824 5.62544 58.8512 5.54825 58.7958C5.47106 58.7404 5.4121 58.6632 5.37887 58.5742C5.34564 58.4852 5.33965 58.3883 5.36165 58.2958L5.54765 57.4958C5.70207 56.823 6.09229 56.2278 6.64765 55.8178" fill="#155DFC"/>
<path d="M6.14152 59.9058L7.80652 58.5118C7.88359 58.4564 7.97536 58.4251 8.07024 58.4218C8.16511 58.4185 8.25883 58.4435 8.33953 58.4934C8.42024 58.5434 8.48431 58.6162 8.52365 58.7026C8.56298 58.789 8.57581 58.8851 8.56052 58.9788L8.42652 59.7958C8.32386 60.4783 7.9762 61.1 7.44852 61.5448L5.78552 62.9338C5.70896 62.9895 5.61756 63.0211 5.52298 63.0246C5.42839 63.0282 5.33488 63.0035 5.25436 62.9538C5.17383 62.904 5.10993 62.8314 5.07078 62.7453C5.03164 62.6591 5.01901 62.5632 5.03452 62.4698L5.16252 61.6558C5.26863 60.9738 5.61602 60.3534 6.14152 59.9058Z" fill="#155DFC"/>
<path d="M5.93158 64.0248L7.49058 62.5148C7.56402 62.4542 7.65383 62.4167 7.74861 62.4071C7.84339 62.3976 7.93888 62.4164 8.02297 62.4611C8.10705 62.5059 8.17595 62.5746 8.22092 62.6586C8.26589 62.7426 8.28491 62.838 8.27558 62.9328L8.20358 63.7518C8.14538 64.4394 7.84151 65.083 7.34758 65.5648L5.78358 67.0718C5.71079 67.1333 5.62127 67.1717 5.52653 67.1819C5.43178 67.1922 5.33614 67.1739 5.25187 67.1294C5.1676 67.0849 5.09855 67.0162 5.0536 66.9322C5.00864 66.8482 4.98983 66.7526 4.99958 66.6578L5.07758 65.8328C5.13277 65.1453 5.43675 64.5014 5.93258 64.0218" fill="#155DFC"/>
<path d="M6.0067 68.1458L7.4597 66.5338C7.52824 66.4685 7.61455 66.425 7.70779 66.4086C7.80103 66.3922 7.89702 66.4038 7.9837 66.4418C8.07038 66.4799 8.14388 66.5427 8.19494 66.6224C8.24601 66.7021 8.27236 66.7952 8.2707 66.8898L8.2517 67.7158C8.24319 68.4052 7.98447 69.068 7.5237 69.5808L6.0697 71.1948C6.0011 71.2605 5.91455 71.3042 5.82103 71.3206C5.7275 71.3369 5.63123 71.3251 5.54443 71.2867C5.45763 71.2482 5.38423 71.1848 5.33353 71.1045C5.28283 71.0243 5.25713 70.9307 5.2597 70.8358L5.2777 70.0128C5.28462 69.3231 5.54233 68.6595 6.0027 68.1458" fill="#155DFC"/>
<path d="M6.37563 72.2489L7.70663 70.5389C7.77053 70.4688 7.85373 70.4193 7.94575 70.3965C8.03776 70.3737 8.13447 70.3786 8.22368 70.4107C8.31288 70.4428 8.39059 70.5006 8.44699 70.5768C8.5034 70.653 8.53598 70.7442 8.54063 70.8389L8.58463 71.6659C8.61992 72.3538 8.407 73.0316 7.98463 73.5759L6.64763 75.2858C6.58373 75.3559 6.50053 75.4054 6.40851 75.4282C6.31649 75.451 6.21979 75.4461 6.13058 75.414C6.04138 75.3819 5.96367 75.3241 5.90727 75.2479C5.85086 75.1717 5.81828 75.0805 5.81363 74.9859L5.77163 74.1628C5.73498 73.4738 5.948 72.7946 6.37163 72.2499" fill="#155DFC"/>
<path d="M7.03165 76.3208L8.24465 74.5208C8.30265 74.4455 8.38184 74.3892 8.47205 74.3592C8.56225 74.3292 8.65937 74.3268 8.75094 74.3524C8.8425 74.378 8.92434 74.4304 8.98593 74.5028C9.04753 74.5752 9.08609 74.6644 9.09665 74.7588L9.19665 75.5798C9.28164 76.2629 9.11878 76.9537 8.73765 77.5268L7.52065 79.3268C7.4619 79.4013 7.38235 79.4567 7.29209 79.4859C7.20183 79.5152 7.10492 79.5169 7.01365 79.491C6.92239 79.4651 6.84087 79.4126 6.77945 79.3403C6.71803 79.268 6.67947 79.1791 6.66865 79.0848L6.56865 78.2678C6.48225 77.5834 6.64635 76.8908 7.03065 76.3178" fill="#155DFC"/>
<path d="M7.97155 80.3358L9.05655 78.4528C9.11059 78.3747 9.18652 78.3142 9.27481 78.2791C9.3631 78.2439 9.45981 78.2357 9.55278 78.2553C9.64575 78.275 9.73083 78.3217 9.79734 78.3896C9.86384 78.4575 9.9088 78.5435 9.92655 78.6368L10.0826 79.4448C10.2166 80.1216 10.1008 80.8239 9.75655 81.4218L8.67255 83.3038C8.61899 83.3822 8.5434 83.4429 8.45533 83.4783C8.36726 83.5137 8.27066 83.5223 8.17776 83.5028C8.08486 83.4833 7.99981 83.4367 7.93338 83.3689C7.86696 83.3011 7.82212 83.2151 7.80455 83.1218L7.65055 82.3118C7.51788 81.6355 7.63213 80.9341 7.97255 80.3348" fill="#155DFC"/>
<path d="M9.19368 84.2738L10.1457 82.3208C10.1939 82.2397 10.2649 82.1746 10.35 82.1336C10.435 82.0927 10.5303 82.0779 10.6238 82.0909C10.7172 82.1039 10.8048 82.1443 10.8754 82.2069C10.946 82.2695 10.9966 82.3516 11.0207 82.4428L11.2307 83.2428C11.4134 83.9097 11.3484 84.6202 11.0477 85.2428L10.0957 87.1908C10.0475 87.2725 9.97637 87.3381 9.89107 87.3794C9.80578 87.4207 9.71019 87.4359 9.61628 87.4231C9.52238 87.4103 9.43436 87.37 9.36326 87.3073C9.29217 87.2447 9.24118 87.1624 9.21668 87.0708L9.00668 86.2708C8.82373 85.6037 8.88985 84.8928 9.19268 84.2708" fill="#155DFC"/>
<path d="M10.6905 88.1208L11.5015 86.1098C11.5436 86.0242 11.6102 85.953 11.6929 85.9053C11.7755 85.8577 11.8705 85.8356 11.9657 85.8421C12.0609 85.8485 12.152 85.8831 12.2275 85.9415C12.303 85.9998 12.3594 86.0793 12.3895 86.1698L12.6555 86.9478C12.8819 87.5982 12.8659 88.3083 12.6105 88.9478L11.7985 90.9578C11.7568 91.0431 11.6906 91.114 11.6083 91.1615C11.5261 91.2089 11.4316 91.2309 11.3369 91.2244C11.2422 91.218 11.1515 91.1835 11.0765 91.1253C11.0014 91.0672 10.9454 90.988 10.9155 90.8978L10.6465 90.1278C10.4223 89.4772 10.4379 88.7679 10.6905 88.1278" fill="#155DFC"/>
<path d="M12.4576 91.8518L13.1296 89.7898C13.1651 89.7016 13.2262 89.6259 13.3051 89.5727C13.3839 89.5194 13.4769 89.4909 13.5721 89.4909C13.6672 89.4909 13.7602 89.5194 13.8391 89.5727C13.9179 89.6259 13.979 89.7016 14.0146 89.7898L14.3346 90.5488C14.6073 91.1818 14.6428 91.8918 14.4346 92.5488L13.7576 94.6098C13.7211 94.6973 13.6596 94.7719 13.5807 94.8245C13.5019 94.877 13.4093 94.905 13.3146 94.905C13.2198 94.905 13.1272 94.877 13.0484 94.8245C12.9696 94.7719 12.908 94.6973 12.8716 94.6098L12.5516 93.8488C12.2779 93.2161 12.2423 92.5057 12.4516 91.8488" fill="#155DFC"/>
<path d="M14.4755 95.4558L15.0015 93.3558C15.031 93.2653 15.0868 93.1855 15.1617 93.1268C15.2367 93.0681 15.3275 93.0331 15.4225 93.0262C15.5175 93.0193 15.6124 93.0409 15.695 93.0883C15.7777 93.1356 15.8444 93.2065 15.8865 93.2919L16.2615 94.0238C16.5733 94.6391 16.6556 95.3454 16.4935 96.0159L15.9665 98.1228C15.936 98.2123 15.8798 98.2908 15.8048 98.3484C15.7299 98.406 15.6396 98.4403 15.5453 98.4468C15.451 98.4533 15.3569 98.4318 15.2747 98.385C15.1926 98.3383 15.1261 98.2683 15.0835 98.1838L14.7135 97.4459C14.3998 96.8323 14.316 96.1267 14.4775 95.4568" fill="#155DFC"/>
<path d="M16.7475 98.9088L17.1245 96.7778C17.1481 96.6858 17.1984 96.6029 17.2691 96.5394C17.3398 96.4759 17.4276 96.4348 17.5217 96.4212C17.6157 96.4077 17.7116 96.4222 17.7974 96.4631C17.8831 96.5039 17.9548 96.5693 18.0035 96.6508L18.4285 97.3598C18.7843 97.9501 18.916 98.6486 18.7995 99.3278L18.4245 101.465C18.4009 101.557 18.3506 101.64 18.2799 101.703C18.2093 101.767 18.1214 101.808 18.0274 101.821C17.9333 101.835 17.8374 101.82 17.7517 101.78C17.6659 101.739 17.5942 101.673 17.5455 101.592L17.1225 100.878C16.7665 100.287 16.6335 99.5892 16.7475 98.9088Z" fill="#155DFC"/>
<path d="M19.2556 102.199L19.4846 100.043C19.5011 99.9491 19.5453 99.8625 19.6113 99.794C19.6773 99.7255 19.7622 99.6781 19.8552 99.6581C19.9483 99.638 20.0451 99.6461 20.1335 99.6813C20.2219 99.7166 20.2978 99.7773 20.3516 99.8558L20.8216 100.532C21.2204 101.095 21.4019 101.783 21.3326 102.47L21.1046 104.627C21.0876 104.72 21.0434 104.806 20.9774 104.875C20.9114 104.943 20.8266 104.99 20.7338 105.01C20.641 105.03 20.5444 105.022 20.4563 104.987C20.3681 104.951 20.2923 104.891 20.2386 104.813L19.7676 104.137C19.3709 103.573 19.1893 102.885 19.2556 102.199Z" fill="#155DFC"/>
<path d="M21.9946 105.136L22.0726 102.968C22.0827 102.874 22.1206 102.785 22.1814 102.712C22.2423 102.639 22.3233 102.586 22.4143 102.56C22.5053 102.533 22.6021 102.535 22.6924 102.563C22.7828 102.592 22.8625 102.647 22.9216 102.721L23.4406 103.363C23.8766 103.898 24.104 104.573 24.0806 105.263L24.0056 107.431C23.9953 107.525 23.9573 107.614 23.8964 107.686C23.8355 107.759 23.7544 107.812 23.6634 107.838C23.5725 107.864 23.4758 107.863 23.3855 107.834C23.2953 107.806 23.2156 107.751 23.1566 107.677L22.6386 107.035C22.2015 106.5 21.9728 105.826 21.9946 105.136Z" fill="#155DFC"/>
<path d="M24.9427 108.077L24.8677 105.907C24.8711 105.812 24.9028 105.72 24.9586 105.643C25.0144 105.566 25.0918 105.508 25.181 105.475C25.2702 105.442 25.3672 105.436 25.4595 105.459C25.5519 105.481 25.6355 105.531 25.6997 105.601L26.2607 106.201C26.7319 106.704 27.0075 107.359 27.0377 108.048L27.1097 110.215C27.1053 110.31 27.0729 110.401 27.0166 110.477C26.9603 110.553 26.8827 110.611 26.7935 110.643C26.7043 110.675 26.6076 110.68 26.5156 110.658C26.4236 110.635 26.3404 110.585 26.2767 110.515L25.7187 109.915C25.2467 109.413 24.9712 108.758 24.9427 108.07" fill="#155DFC"/>
<path d="M27.8615 110.802L27.6335 108.645C27.6305 108.55 27.6558 108.456 27.7061 108.376C27.7564 108.295 27.8294 108.232 27.916 108.193C28.0026 108.154 28.0987 108.142 28.1923 108.157C28.2859 108.173 28.3726 108.217 28.4415 108.282L29.0415 108.846C29.5475 109.315 29.8671 109.95 29.9415 110.636L30.1695 112.795C30.1714 112.889 30.1454 112.982 30.0949 113.062C30.0443 113.141 29.9714 113.205 29.8853 113.243C29.7992 113.282 29.7036 113.294 29.6104 113.279C29.5173 113.263 29.4307 113.221 29.3615 113.157L28.7615 112.592C28.2542 112.125 27.9343 111.488 27.8615 110.802Z" fill="#155DFC"/>
<path d="M31.1576 113.304L30.7805 111.168C30.7714 111.073 30.7905 110.978 30.8354 110.894C30.8804 110.81 30.9491 110.742 31.033 110.697C31.1169 110.652 31.2122 110.634 31.3068 110.643C31.4014 110.652 31.4911 110.689 31.5646 110.75L32.2035 111.268C32.7401 111.701 33.1022 112.314 33.2236 112.993L33.6015 115.127C33.6111 115.221 33.5925 115.316 33.548 115.4C33.5036 115.484 33.4354 115.552 33.352 115.597C33.2685 115.643 33.1736 115.662 33.0792 115.653C32.9848 115.644 32.8952 115.608 32.8215 115.548L32.1795 115.028C31.6423 114.595 31.2791 113.984 31.1565 113.305" fill="#155DFC"/>
<path d="M34.6197 115.568L34.0937 113.462C34.0778 113.368 34.0901 113.272 34.129 113.185C34.1678 113.098 34.2316 113.025 34.3121 112.975C34.3927 112.924 34.4863 112.899 34.5813 112.902C34.6763 112.905 34.7683 112.936 34.8457 112.991L35.5177 113.466C36.0845 113.858 36.4902 114.443 36.6597 115.111L37.1867 117.211C37.2026 117.304 37.1904 117.401 37.1516 117.487C37.1128 117.574 37.0491 117.647 36.9686 117.697C36.8881 117.748 36.7945 117.773 36.6996 117.77C36.6047 117.767 36.5129 117.736 36.4357 117.681L35.7607 117.211C35.1938 116.817 34.7883 116.232 34.6187 115.563" fill="#155DFC"/>
<path d="M38.2286 117.581L37.5586 115.518C37.5359 115.426 37.5411 115.329 37.5735 115.24C37.6059 115.151 37.664 115.073 37.7406 115.017C37.8171 114.961 37.9086 114.93 38.0033 114.926C38.098 114.922 38.1918 114.946 38.2726 114.996L38.9786 115.421C39.5694 115.775 40.0139 116.328 40.2316 116.982L40.9016 119.049C40.9233 119.141 40.9172 119.238 40.8842 119.327C40.8513 119.416 40.7928 119.493 40.7161 119.549C40.6395 119.604 40.5481 119.636 40.4534 119.641C40.3587 119.645 40.2648 119.621 40.1836 119.572L39.4836 119.143C38.8913 118.79 38.4463 118.236 38.2306 117.581" fill="#155DFC"/>
<path d="M41.9687 119.333L41.1547 117.324C41.1257 117.233 41.1243 117.136 41.1504 117.045C41.1766 116.954 41.2293 116.872 41.3017 116.811C41.3742 116.75 41.4632 116.711 41.5576 116.701C41.6519 116.69 41.7473 116.707 41.8317 116.751L42.5627 117.126C43.1813 117.434 43.6655 117.958 43.9237 118.599L44.7377 120.609C44.767 120.699 44.7687 120.796 44.7427 120.888C44.7167 120.979 44.6642 121.06 44.5917 121.122C44.5193 121.183 44.4302 121.222 44.3358 121.232C44.2414 121.243 44.146 121.226 44.0617 121.182L43.3267 120.805C42.7106 120.495 42.228 119.972 41.9687 119.333Z" fill="#155DFC"/>
<path d="M45.8185 120.825L44.8685 118.875C44.8328 118.787 44.8242 118.69 44.8437 118.597C44.8632 118.504 44.91 118.419 44.9781 118.352C45.0463 118.286 45.1326 118.241 45.2262 118.224C45.3197 118.207 45.4163 118.218 45.5035 118.256L46.2595 118.582C46.8959 118.85 47.4147 119.337 47.7215 119.956L48.6705 121.906C48.7055 121.994 48.7135 122.091 48.6935 122.183C48.6736 122.276 48.6266 122.361 48.5585 122.427C48.4904 122.493 48.4042 122.537 48.311 122.554C48.2177 122.571 48.1215 122.56 48.0345 122.522L47.2785 122.198C46.6418 121.931 46.1232 121.444 45.8185 120.825Z" fill="#155DFC"/>
<path d="M49.7655 122.037L48.6815 120.16C48.6393 120.074 48.6236 119.978 48.6364 119.884C48.6492 119.79 48.69 119.701 48.7535 119.63C48.8169 119.559 48.9002 119.509 48.9925 119.486C49.0848 119.463 49.182 119.467 49.2715 119.5L50.0485 119.769C50.7025 119.99 51.2543 120.44 51.6015 121.037L52.6855 122.914C52.7277 122.999 52.7432 123.096 52.7302 123.19C52.7171 123.285 52.676 123.373 52.6122 123.444C52.5484 123.515 52.4648 123.566 52.3722 123.589C52.2796 123.612 52.1822 123.607 52.0925 123.574L51.3185 123.305C50.6644 123.084 50.1125 122.634 49.7655 122.037Z" fill="#155DFC"/>
<path d="M53.7795 122.968L52.5655 121.174C52.5185 121.091 52.4971 120.997 52.5039 120.902C52.5108 120.807 52.5456 120.717 52.6039 120.642C52.6623 120.567 52.7416 120.511 52.8317 120.481C52.9219 120.451 53.0189 120.449 53.1105 120.474L53.9025 120.69C54.5709 120.866 55.1533 121.277 55.5425 121.849L56.7555 123.649C56.8022 123.731 56.8234 123.826 56.8166 123.92C56.8098 124.015 56.7752 124.105 56.7171 124.18C56.6591 124.255 56.5802 124.311 56.4904 124.341C56.4006 124.371 56.3039 124.374 56.2125 124.349L55.4175 124.132C54.7493 123.957 54.1675 123.545 53.7805 122.973" fill="#155DFC"/>
<path d="M57.8557 123.617L56.5217 121.912C56.468 121.833 56.439 121.74 56.4385 121.645C56.438 121.549 56.4659 121.456 56.5188 121.377C56.5716 121.297 56.6469 121.235 56.7351 121.199C56.8233 121.163 56.9202 121.154 57.0137 121.173L57.8207 121.333C58.4991 121.461 59.1085 121.83 59.5367 122.372L60.8707 124.082C60.9233 124.161 60.9513 124.254 60.9512 124.348C60.9512 124.443 60.923 124.536 60.8702 124.615C60.8175 124.694 60.7425 124.755 60.6548 124.792C60.5672 124.828 60.4707 124.837 60.3777 124.819L59.5707 124.658C58.8916 124.531 58.2819 124.16 57.8557 123.617Z" fill="#155DFC"/>
<path d="M61.9605 123.978L60.5115 122.367C60.453 122.292 60.4182 122.201 60.4116 122.106C60.4049 122.011 60.4267 121.916 60.4741 121.834C60.5215 121.751 60.5925 121.685 60.6778 121.643C60.7632 121.601 60.8592 121.585 60.9535 121.598L61.7685 121.698C62.4545 121.778 63.088 122.105 63.5515 122.617L65.0045 124.23C65.0621 124.305 65.0961 124.396 65.1022 124.491C65.1083 124.586 65.0863 124.68 65.0388 124.762C64.9913 124.845 64.9206 124.911 64.8354 124.953C64.7503 124.995 64.6546 125.011 64.5605 124.999L63.7435 124.899C63.0587 124.818 62.4261 124.492 61.9615 123.983" fill="#155DFC"/>
<path d="M66.0847 124.046L64.5257 122.536C64.4617 122.465 64.4203 122.378 64.4067 122.283C64.3932 122.189 64.4081 122.093 64.4497 122.008C64.4912 121.922 64.5574 121.851 64.6397 121.803C64.7221 121.756 64.8168 121.734 64.9117 121.741L65.7327 121.787C66.4216 121.818 67.0761 122.097 67.5757 122.573L69.1347 124.083C69.1993 124.153 69.2413 124.241 69.2553 124.336C69.2693 124.431 69.2546 124.527 69.2131 124.613C69.1717 124.699 69.1054 124.771 69.0228 124.819C68.9401 124.867 68.845 124.889 68.7497 124.883L67.9277 124.838C67.2384 124.804 66.5843 124.522 66.0847 124.046Z" fill="#155DFC"/>
<path d="M70.2006 123.823L68.5386 122.423C68.4708 122.357 68.4241 122.272 68.4045 122.18C68.3848 122.087 68.3931 121.991 68.4282 121.903C68.4634 121.816 68.5238 121.74 68.6018 121.687C68.6799 121.634 68.772 121.605 68.8666 121.604L69.6916 121.592C70.3814 121.575 71.0537 121.811 71.5826 122.254L73.2485 123.647C73.3168 123.713 73.3637 123.798 73.3833 123.891C73.403 123.984 73.3944 124.081 73.3588 124.169C73.3231 124.257 73.262 124.333 73.1832 124.386C73.1045 124.439 73.0116 124.468 72.9166 124.468L72.0936 124.479C71.404 124.495 70.7316 124.263 70.2006 123.823Z" fill="#155DFC"/>
<path d="M74.2946 123.314L72.5346 122.039C72.4627 121.977 72.4107 121.895 72.3851 121.804C72.3595 121.713 72.3614 121.616 72.3905 121.526C72.4197 121.436 72.4748 121.356 72.549 121.297C72.6232 121.239 72.7132 121.203 72.8076 121.195L73.6326 121.127C74.3182 121.063 75.0039 121.25 75.5616 121.654L77.3216 122.928C77.394 122.989 77.4465 123.07 77.4724 123.162C77.4983 123.253 77.4965 123.35 77.4671 123.44C77.4376 123.53 77.382 123.609 77.3073 123.668C77.2326 123.726 77.1422 123.761 77.0476 123.768L76.2266 123.842C75.5402 123.904 74.8545 123.716 74.2946 123.314Z" fill="#155DFC"/>
<path d="M78.3387 122.513L76.5007 121.359C76.424 121.303 76.3656 121.226 76.3329 121.137C76.3003 121.048 76.2949 120.951 76.3174 120.859C76.3399 120.767 76.3894 120.684 76.4594 120.62C76.5295 120.556 76.617 120.515 76.7107 120.501L77.5257 120.375C78.2075 120.264 78.9064 120.403 79.4937 120.767L81.3327 121.915C81.4094 121.971 81.4678 122.049 81.5003 122.138C81.5328 122.227 81.538 122.324 81.5153 122.417C81.4926 122.509 81.443 122.593 81.3727 122.657C81.3025 122.721 81.2147 122.763 81.1207 122.777L80.3057 122.903C79.624 123.013 78.9256 122.874 78.3377 122.512" fill="#155DFC"/>
<path d="M82.3236 121.428L80.4066 120.412C80.3264 120.361 80.263 120.288 80.2244 120.201C80.1858 120.114 80.1737 120.018 80.1898 119.925C80.2058 119.831 80.2493 119.745 80.3145 119.676C80.3798 119.607 80.4641 119.559 80.5566 119.538L81.3566 119.354C82.0301 119.196 82.7379 119.286 83.3506 119.607L85.2646 120.627C85.3452 120.677 85.409 120.75 85.4477 120.837C85.4864 120.924 85.4984 121.02 85.4821 121.114C85.4657 121.207 85.4219 121.294 85.3561 121.362C85.2902 121.431 85.2055 121.478 85.1126 121.498L84.3126 121.681C83.6416 121.841 82.9353 121.751 82.3256 121.428" fill="#155DFC"/>
<path d="M86.2185 120.071L84.2345 119.186C84.151 119.141 84.0826 119.072 84.0381 118.989C83.9935 118.905 83.9748 118.81 83.9844 118.716C83.9939 118.621 84.0312 118.532 84.0916 118.459C84.152 118.386 84.2327 118.332 84.3235 118.305L85.1125 118.066C85.7715 117.864 86.4811 117.905 87.1125 118.181L89.0935 119.062C89.1772 119.107 89.2457 119.176 89.2903 119.26C89.335 119.343 89.3538 119.439 89.3445 119.533C89.3353 119.628 89.2982 119.718 89.2381 119.791C89.1779 119.865 89.0974 119.919 89.0065 119.947L88.2185 120.185C87.5599 120.388 86.8501 120.347 86.2185 120.071Z" fill="#155DFC"/>
<path d="M90.0135 118.442L87.9735 117.696C87.887 117.657 87.8139 117.594 87.7634 117.513C87.713 117.433 87.6875 117.34 87.6901 117.245C87.6928 117.15 87.7235 117.058 87.7784 116.981C87.8333 116.904 87.9099 116.845 87.9985 116.811L88.7715 116.517C89.4138 116.269 90.1238 116.261 90.7715 116.494L92.8105 117.233C92.8972 117.272 92.9705 117.335 93.021 117.416C93.0715 117.496 93.097 117.59 93.0943 117.685C93.0917 117.78 93.0609 117.872 93.006 117.95C92.951 118.027 92.8743 118.087 92.7855 118.121L92.0125 118.415C91.3706 118.663 90.662 118.672 90.0135 118.442Z" fill="#155DFC"/>
<path d="M93.6837 116.547L91.5977 115.947C91.5087 115.914 91.4315 115.855 91.3757 115.778C91.3199 115.702 91.2881 115.61 91.2841 115.515C91.2802 115.42 91.3043 115.326 91.3535 115.245C91.4027 115.164 91.4748 115.099 91.5607 115.059L92.3107 114.715C92.936 114.422 93.6458 114.363 94.3107 114.55L96.3987 115.15C96.4878 115.183 96.5651 115.242 96.6208 115.319C96.6766 115.396 96.7082 115.488 96.7117 115.583C96.7152 115.678 96.6905 115.772 96.6407 115.853C96.5908 115.934 96.5181 115.998 96.4317 116.038L95.6817 116.382C95.0573 116.678 94.3465 116.738 93.6817 116.549" fill="#155DFC"/>
<path d="M97.2146 114.397L95.0926 113.946C95.0012 113.919 94.9197 113.866 94.8586 113.793C94.7974 113.721 94.7594 113.631 94.7493 113.536C94.7392 113.442 94.7575 113.346 94.8019 113.262C94.8463 113.178 94.9148 113.109 94.9986 113.064L95.7186 112.664C96.3221 112.328 97.0268 112.221 97.7026 112.364L99.8246 112.815C99.9161 112.841 99.9977 112.894 100.059 112.966C100.121 113.039 100.159 113.128 100.17 113.222C100.181 113.317 100.163 113.412 100.119 113.497C100.076 113.581 100.008 113.651 99.9246 113.697L99.1996 114.097C98.5972 114.432 97.8942 114.538 97.2196 114.397" fill="#155DFC"/>
<path d="M100.592 112.009L98.4396 111.709C98.3465 111.689 98.2613 111.643 98.195 111.574C98.1287 111.506 98.0843 111.42 98.0675 111.326C98.0508 111.232 98.0624 111.136 98.1009 111.049C98.1394 110.962 98.203 110.888 98.2836 110.838L98.9756 110.392C99.5519 110.013 100.246 109.855 100.93 109.947L103.079 110.247C103.171 110.267 103.255 110.315 103.321 110.383C103.386 110.451 103.43 110.537 103.447 110.63C103.464 110.723 103.453 110.819 103.416 110.906C103.378 110.992 103.316 111.066 103.237 111.118L102.543 111.566C101.967 111.945 101.273 112.103 100.59 112.011" fill="#155DFC"/>
<path d="M103.603 109.385L101.438 109.232C101.344 109.218 101.256 109.176 101.186 109.113C101.116 109.049 101.066 108.966 101.043 108.874C101.019 108.782 101.024 108.685 101.056 108.596C101.088 108.506 101.146 108.428 101.222 108.372L101.882 107.879C102.43 107.461 103.111 107.257 103.799 107.304L105.965 107.453C106.059 107.466 106.147 107.508 106.217 107.571C106.288 107.635 106.338 107.718 106.361 107.81C106.385 107.902 106.38 107.999 106.348 108.088C106.316 108.178 106.259 108.256 106.183 108.313L105.519 108.813C104.97 109.229 104.29 109.433 103.603 109.389" fill="#155DFC"/>
<path fill-rule="evenodd" clip-rule="evenodd" d="M59.8816 17.7818L63.0506 15.5018L61.8246 11.7618L64.9736 14.0708L68.1506 11.7498L66.9276 15.4558L70.1176 17.7618L66.2176 17.7438L65.0066 21.4898L63.8166 17.7718L59.8816 17.7818Z" fill="#155DFC"/>
<path fill-rule="evenodd" clip-rule="evenodd" d="M42.1716 23.3808L44.2246 20.0598L41.6636 17.0728L45.4556 18.0018L47.5036 14.6418L47.7916 18.5348L51.6206 19.4438L48.0076 20.9208L48.3256 24.8438L45.8036 21.8628L42.1716 23.3808Z" fill="#155DFC"/>
<path fill-rule="evenodd" clip-rule="evenodd" d="M27.9487 35.1878L28.5767 31.3348L25.0657 29.5568L28.9247 28.9638L29.5307 25.0748L31.2867 28.5608L35.1727 27.9358L32.3977 30.6848L34.1977 34.1848L30.7267 32.3958L27.9487 35.1878Z" fill="#155DFC"/>
<path fill-rule="evenodd" clip-rule="evenodd" d="M19.4596 51.6298L18.5656 47.8298L14.6416 47.5298L17.9796 45.5058L17.0506 41.6808L20.0086 44.2298L23.3596 42.1648L21.8476 45.7648L24.8476 48.3138L20.9556 47.9888L19.4596 51.6298Z" fill="#155DFC"/>
<path fill-rule="evenodd" clip-rule="evenodd" d="M17.7806 70.1188L15.5006 66.9498L11.7606 68.1758L14.0696 65.0268L11.7476 61.8498L15.4546 63.0728L17.7606 59.8828L17.7426 63.7828L21.4876 64.9898L17.7696 66.1788L17.7806 70.1188Z" fill="#155DFC"/>
<path fill-rule="evenodd" clip-rule="evenodd" d="M23.3796 87.8278L20.0606 85.7728L17.0716 88.3358L18.0006 84.5438L14.6406 82.4958L18.5336 82.2078L19.4426 78.3788L20.9196 81.9918L24.8426 81.6738L21.8616 84.1958L23.3796 87.8278Z" fill="#155DFC"/>
<path fill-rule="evenodd" clip-rule="evenodd" d="M35.1865 102.051L31.3335 101.423L29.5555 104.936L28.9625 101.077L25.0735 100.471L28.5595 98.7148L27.9345 94.8288L30.6835 97.6038L34.1835 95.8038L32.3945 99.2748L35.1865 102.051Z" fill="#155DFC"/>
<path fill-rule="evenodd" clip-rule="evenodd" d="M51.6285 110.542L47.8285 111.436L47.5285 115.358L45.5035 112.019L41.6785 112.948L44.2285 109.991L42.1645 106.642L45.7645 108.154L48.3135 105.154L47.9875 109.042L51.6285 110.542Z" fill="#155DFC"/>
<path fill-rule="evenodd" clip-rule="evenodd" d="M70.1176 112.22L66.9486 114.5L68.1746 118.24L65.0256 115.931L61.8486 118.252L63.0716 114.541L59.8816 112.241L63.7816 112.259L64.9886 108.514L66.1776 112.232L70.1176 112.22Z" fill="#155DFC"/>
<path fill-rule="evenodd" clip-rule="evenodd" d="M87.8267 106.623L85.7717 109.944L88.3347 112.93L84.5427 112.001L82.4947 115.361L82.2067 111.468L78.3777 110.559L81.9907 109.082L81.6727 105.159L84.1947 108.14L87.8267 106.623Z" fill="#155DFC"/>
<path fill-rule="evenodd" clip-rule="evenodd" d="M102.05 94.8138L101.422 98.6668L104.935 100.445L101.076 101.038L100.47 104.927L98.7136 101.441L94.8276 102.066L97.6026 99.3168L95.8026 95.8168L99.2736 97.6058L102.05 94.8138Z" fill="#155DFC"/>
<path fill-rule="evenodd" clip-rule="evenodd" d="M110.541 78.3708L111.435 82.1708L115.359 82.4708L112.02 84.4958L112.948 88.3208L109.99 85.7718L106.641 87.8348L108.151 84.2348L105.151 81.6858L109.043 82.0108L110.541 78.3708Z" fill="#155DFC"/>
<path fill-rule="evenodd" clip-rule="evenodd" d="M112.219 59.8828L114.499 63.0518L118.239 61.8258L115.93 64.9748L118.251 68.1518L114.54 66.9288L112.24 70.1188L112.258 66.2188L108.51 65.0078L112.228 63.8188L112.219 59.8828Z" fill="#155DFC"/>
<path fill-rule="evenodd" clip-rule="evenodd" d="M106.621 42.1728L109.942 44.2258L112.928 41.6628L111.999 45.4548L115.359 47.5028L111.466 47.7908L110.556 51.6258L109.079 48.0128L105.156 48.3308L108.137 45.8088L106.621 42.1728Z" fill="#155DFC"/>
<path fill-rule="evenodd" clip-rule="evenodd" d="M94.8125 27.9498L98.6655 28.5778L100.443 25.0668L101.036 28.9258L104.925 29.5318L101.439 31.2878L102.064 35.1738L99.3155 32.3988L95.8155 34.1988L97.6045 30.7278L94.8125 27.9498Z" fill="#155DFC"/>
<path fill-rule="evenodd" clip-rule="evenodd" d="M78.3696 19.4628L82.1696 18.5688L82.4696 14.6448L84.4936 17.9818L88.3186 17.0528L85.7696 20.0108L87.8346 23.3598L84.2346 21.8498L81.6856 24.8498L82.0106 20.9578L78.3696 19.4628Z" fill="#155DFC"/>
<path d="M64.9996 34.7238C59.0119 34.724 53.1587 36.4997 48.1802 39.8264C43.2017 43.1531 39.3214 47.8814 37.0301 53.4133C34.7387 58.9452 34.1392 65.0324 35.3073 70.9051C36.4754 76.7777 39.3587 82.1721 43.5926 86.4061C47.8265 90.6401 53.2208 93.5236 59.0934 94.6919C64.966 95.8602 71.0532 95.2609 76.5852 92.9697C82.1172 90.6786 86.8456 86.7985 90.1724 81.8201C93.4993 76.8416 95.2752 70.9885 95.2756 65.0008C95.2671 56.9736 92.0747 49.2776 86.3987 43.6015C80.7227 37.9253 73.0268 34.7326 64.9996 34.7238ZM64.9996 94.3878C59.1868 94.3882 53.5045 92.6649 48.6712 89.4357C43.8379 86.2066 40.0707 81.6166 37.8461 76.2464C35.6215 70.8762 35.0393 64.9669 36.1732 59.2658C37.3071 53.5647 40.1062 48.3279 44.2164 44.2177C48.3267 40.1074 53.5635 37.3083 59.2646 36.1744C64.9657 35.0405 70.875 35.6227 76.2452 37.8473C81.6154 40.0719 86.2053 43.8391 89.4345 48.6724C92.6637 53.5057 94.387 59.188 94.3866 65.0008C94.3771 72.7918 91.2779 80.261 85.7688 85.77C80.2598 91.2791 72.7906 94.3783 64.9996 94.3878Z" fill="#155DFC"/>
<path d="M64.9987 24.0328C56.8964 24.0334 48.9762 26.4366 42.2397 30.9383C35.5031 35.4401 30.2527 41.8384 27.1524 49.3241C24.0522 56.8097 23.2412 65.0466 24.8221 72.9932C26.403 80.9398 30.3047 88.2391 36.034 93.9682C41.7633 99.6973 49.0627 103.599 57.0093 105.18C64.9559 106.76 73.1928 105.949 80.6784 102.849C88.164 99.7482 94.5621 94.4977 99.0637 87.761C103.565 81.0244 105.968 73.1041 105.969 65.0018C105.958 54.1394 101.637 43.7251 93.9565 36.0443C86.2755 28.3635 75.8611 24.0437 64.9987 24.0328ZM64.9987 105.052C57.0773 105.052 49.3337 102.703 42.7472 98.3024C36.1607 93.9017 31.0271 87.6466 27.9956 80.3282C24.9641 73.0097 24.1709 64.9567 25.7162 57.1875C27.2616 49.4183 31.0761 42.2818 36.6774 36.6805C42.2786 31.0792 49.4151 27.2647 57.1844 25.7194C64.9536 24.174 73.0066 24.9672 80.325 27.9987C87.6434 31.0302 93.8985 36.1638 98.2993 42.7503C102.7 49.3368 105.049 57.0804 105.049 65.0018C105.035 75.6197 100.812 85.7989 93.3037 93.3069C85.7957 100.815 75.6165 105.039 64.9987 105.052Z" fill="#155DFC"/>
<path d="M70.4577 60.2088C69.5124 59.1314 68.2688 58.3585 66.8843 57.9878C65.4997 57.6172 64.0363 57.6654 62.6792 58.1265C61.322 58.5875 60.1321 59.4406 59.2598 60.5779C58.3875 61.7153 57.872 63.0857 57.7786 64.516C57.6852 65.9463 58.018 67.3721 58.7349 68.6132C59.4519 69.8544 60.5207 70.855 61.8064 71.4887C63.092 72.1223 64.5367 72.3605 65.9577 72.1731C67.3788 71.9857 68.7123 71.3811 69.7897 70.4358C71.2336 69.1675 72.1147 67.3778 72.2394 65.46C72.3641 63.5422 71.7222 61.6534 70.4547 60.2088M65.5007 68.4798C64.974 68.7725 64.385 68.935 63.7827 68.9538H63.5827C62.6818 68.9454 61.8108 68.6293 61.1141 68.0581C60.4174 67.4868 59.9368 66.6946 59.752 65.8129C59.5671 64.9311 59.6891 64.0126 60.0977 63.2096C60.5063 62.4067 61.177 61.7674 61.9987 61.3978C62.1497 61.3256 62.3058 61.2644 62.4657 61.2148C63.3043 60.9652 64.2015 60.9962 65.021 61.303C65.8404 61.6098 66.5373 62.1758 67.0057 62.9148C66.5595 62.4097 65.9637 62.0601 65.305 61.9171C64.6463 61.7741 63.9592 61.8452 63.3437 62.1198C63.1979 62.192 63.0561 62.2718 62.9187 62.3588C62.3451 62.7279 61.9063 63.2726 61.6676 63.9116C61.429 64.5505 61.4034 65.2496 61.5946 65.9043C61.7858 66.559 62.1836 67.1343 62.7286 67.5445C63.2736 67.9546 63.9366 68.1774 64.6187 68.1798C64.8234 68.1813 65.0278 68.1623 65.2287 68.1228C65.9054 67.9977 66.5222 67.6533 66.9837 67.1428C66.6092 67.7043 66.1009 68.1637 65.5047 68.4798M69.4737 65.0498L69.6967 65.3568L70.3127 66.2118L68.9427 65.7588L68.1007 66.9208V65.4828L66.7397 65.0248L68.1037 64.5918L68.1197 63.1578L68.4757 63.6578L68.9577 64.3218L70.3277 63.8888L69.4737 65.0498Z" fill="#155DFC"/>
<path d="M64.9985 98.9148C64.7102 98.9148 64.4283 99.0003 64.1885 99.1605C63.9487 99.3208 63.7619 99.5485 63.6515 99.8149C63.5412 100.081 63.5123 100.374 63.5685 100.657C63.6248 100.94 63.7637 101.2 63.9676 101.404C64.1715 101.608 64.4313 101.747 64.7141 101.803C64.9969 101.859 65.2901 101.83 65.5565 101.72C65.8229 101.609 66.0506 101.423 66.2108 101.183C66.371 100.943 66.4565 100.661 66.4565 100.373C66.4565 99.9861 66.3029 99.6153 66.0295 99.3419C65.7561 99.0684 65.3852 98.9148 64.9985 98.9148Z" fill="#155DFC"/>
<path d="M40.7216 87.0068L39.9406 86.1168L36.7616 88.8998L35.8216 87.8278L35.0776 88.4828L37.7156 91.4998L38.4636 90.8488L37.5416 89.7938L40.7216 87.0068Z" fill="#155DFC"/>
<path d="M38.8305 84.6378C38.7766 84.5609 38.7072 84.496 38.6268 84.4473C38.5465 84.3986 38.4568 84.3671 38.3636 84.3549C38.2705 84.3427 38.1757 84.3499 38.0855 84.3763C37.9953 84.4026 37.9115 84.4474 37.8395 84.5078C37.7609 84.559 37.6939 84.626 37.6428 84.7047C37.5917 84.7833 37.5576 84.8718 37.5428 84.9645C37.528 85.0571 37.5328 85.1518 37.5569 85.2425C37.581 85.3331 37.6238 85.4177 37.6825 85.4908C37.7993 85.6326 37.9662 85.7241 38.1485 85.7464C38.3309 85.7686 38.5148 85.7199 38.6623 85.6103C38.8097 85.5008 38.9094 85.3387 38.9407 85.1577C38.9721 84.9767 38.9326 84.7906 38.8305 84.6378Z" fill="#155DFC"/>
<path d="M36.7616 81.4858C36.5393 81.0866 36.2362 80.7382 35.8716 80.4628L35.1716 81.0938C35.4334 81.3045 35.6567 81.5589 35.8316 81.8458C35.965 82.0298 36.0566 82.2408 36.0997 82.4639C36.1429 82.687 36.1367 82.9169 36.0815 83.1374C36.0263 83.3578 35.9235 83.5635 35.7803 83.74C35.6371 83.9165 35.457 84.0594 35.2526 84.1588C35.0711 84.2975 34.8615 84.3949 34.6384 84.4441C34.4154 84.4934 34.1842 84.4934 33.9612 84.444C33.7382 84.3947 33.5286 84.2973 33.3471 84.1585C33.1657 84.0198 33.0167 83.8431 32.9106 83.6408C32.7304 83.3523 32.6097 83.0307 32.5556 82.6948L31.6326 82.9778C31.702 83.4139 31.8636 83.8301 32.1066 84.1988C32.2789 84.5324 32.5199 84.8257 32.8137 85.0595C33.1076 85.2932 33.4476 85.4621 33.8114 85.5549C34.1752 85.6478 34.5545 85.6626 34.9244 85.5982C35.2943 85.5339 35.6465 85.392 35.9576 85.1818C36.275 85.0119 36.5517 84.775 36.7685 84.4875C36.9853 84.2 37.1371 83.8688 37.2131 83.5168C37.2892 83.1649 37.2879 82.8006 37.2092 82.4492C37.1306 82.0978 36.9765 81.7677 36.7576 81.4818" fill="#155DFC"/>
<path d="M35.5596 79.2738C35.473 79.1105 35.3265 78.9871 35.1509 78.9293C34.9753 78.8715 34.7841 78.884 34.6174 78.9639C34.4507 79.0439 34.3215 79.1853 34.2566 79.3584C34.1918 79.5315 34.1965 79.723 34.2696 79.8928C34.3563 80.0561 34.5028 80.1796 34.6784 80.2373C34.854 80.2951 35.0452 80.2827 35.2118 80.2027C35.3785 80.1227 35.5078 79.9814 35.5726 79.8082C35.6375 79.6351 35.6328 79.4436 35.5596 79.2738Z" fill="#155DFC"/>
<path d="M35.3246 74.2548C35.1866 73.8338 34.8716 73.4338 34.3616 73.5948C34.2137 73.6457 34.0891 73.748 34.0103 73.8831C33.9316 74.0182 33.904 74.1771 33.9326 74.3308L33.6416 74.2868C33.5173 73.8785 33.3134 73.4989 33.0416 73.1698L32.2196 73.6228C32.4259 73.887 32.5837 74.1856 32.6856 74.5048C32.7727 74.7147 32.8127 74.9411 32.8028 75.1681C32.793 75.3951 32.7336 75.6172 32.6288 75.8188C32.5239 76.0204 32.3762 76.1966 32.196 76.3349C32.0158 76.4733 31.8074 76.5706 31.5856 76.6198C31.3768 76.7124 31.1503 76.7582 30.9219 76.7541C30.6936 76.7499 30.4689 76.6959 30.2636 76.5957C30.0583 76.4956 29.8774 76.3518 29.7335 76.1744C29.5896 75.9971 29.4862 75.7904 29.4306 75.5688C29.3222 75.2473 29.2807 74.907 29.3086 74.5688L28.3416 74.6298C28.306 75.0682 28.365 75.5092 28.5146 75.9228C28.6045 76.2877 28.7707 76.6295 29.0021 76.9256C29.2336 77.2217 29.5251 77.4655 29.8575 77.6409C30.1898 77.8163 30.5556 77.9194 30.9307 77.9433C31.3057 77.9673 31.6816 77.9115 32.0336 77.7798C32.6513 77.6248 33.1831 77.2327 33.5138 76.6884C33.8446 76.1441 33.9476 75.4915 33.8006 74.8718L34.5006 74.9528C34.4116 74.5278 34.4396 74.3298 34.5936 74.2828C34.7196 74.2418 34.8076 74.3428 34.8556 74.4888C34.8977 74.6346 34.9076 74.7878 34.8846 74.9378H35.3896C35.4241 74.7093 35.4022 74.4759 35.3256 74.2578" fill="#155DFC"/>
<path d="M32.8916 71.6888L31.5086 71.5478L31.2536 70.0758L32.5066 69.4488L32.2926 68.1978L27.4236 70.6818L27.6876 72.2068L33.1026 72.8938L32.8916 71.6888ZM29.4656 71.4148C29.1546 71.3818 28.7506 71.3698 28.4346 71.3508V71.3348C28.7256 71.2048 29.0946 71.0468 29.3806 70.9018L30.4156 70.3928L30.6156 71.5328L29.4656 71.4148Z" fill="#155DFC"/>
<path d="M32.1755 64.4588L31.1845 64.4958L31.2625 66.5698L27.0405 66.7318L27.0845 67.9158L32.3015 67.7158L32.1755 64.4588Z" fill="#155DFC"/>
<path d="M27.0788 62.4543L27.0186 63.6378L32.2308 63.903L32.291 62.7195L27.0788 62.4543Z" fill="#155DFC"/>
<path d="M33.6285 59.7158C33.4741 59.6975 33.3182 59.7341 33.1882 59.8194C33.0581 59.9046 32.9623 60.0329 32.9175 60.1818L32.6255 59.9908C32.6607 59.5903 32.5424 59.1914 32.2946 58.8748C32.0467 58.5582 31.6878 58.3477 31.2905 58.2858C30.5625 58.1768 30.0245 58.5358 29.5555 59.4018C29.2085 60.0288 29.0185 60.3018 28.6915 60.2508C28.4195 60.2138 28.2255 59.9358 28.2985 59.4298C28.3539 59.0549 28.4926 58.6971 28.7045 58.3828L27.7975 57.9828C27.5579 58.372 27.4035 58.8076 27.3445 59.2608C27.1665 60.4828 27.7375 61.3158 28.6185 61.4458C29.3665 61.5548 29.9255 61.0648 30.3495 60.2458C30.6605 59.6598 30.8835 59.4458 31.2025 59.4848C31.5425 59.5338 31.7205 59.8538 31.6435 60.3848C31.5693 60.834 31.3954 61.2608 31.1345 61.6338L32.0645 62.0088C32.3395 61.5911 32.5179 61.1172 32.5865 60.6218L33.1515 60.9868C33.2585 60.5748 33.3695 60.4008 33.5325 60.4238C33.6625 60.4438 33.6975 60.5738 33.6745 60.7238C33.6507 60.8733 33.5922 61.0151 33.5035 61.1378L33.9565 61.3588C34.0891 61.1707 34.1727 60.9524 34.1995 60.7238C34.2635 60.2878 34.1545 59.7858 33.6285 59.7088" fill="#155DFC"/>
<path d="M32.2717 53.1498L34.2007 53.6678L34.5447 52.5678L29.4717 51.2978L29.0157 52.7698L30.5077 53.8128C31.0127 54.1488 31.6147 54.5238 32.1487 54.8438V54.8638C31.5297 54.7938 30.8587 54.7588 30.2357 54.7338L28.4157 54.7048L27.9517 56.2048L32.8417 58.0698L33.1657 57.0248L31.2967 56.3498C30.6907 56.1188 29.9257 55.8598 29.2617 55.6218V55.6058C29.9497 55.6908 30.7147 55.7398 31.3497 55.7588L33.4447 55.8248L33.7147 54.9428L31.9597 53.7328C31.4337 53.3618 30.7867 52.9328 30.2007 52.5808L30.2077 52.5618C30.9327 52.7828 31.6647 52.9868 32.2707 53.1518" fill="#155DFC"/>
<path d="M36.2386 49.2348L36.8116 48.1028L31.4246 47.1918L30.7246 48.5708L34.6636 52.3488L35.2136 51.2608L34.1896 50.3228L34.8656 48.9878L36.2386 49.2348ZM33.4766 49.7728L32.6316 48.9958C32.3966 48.7858 32.0816 48.5398 31.8386 48.3298L31.8466 48.3178C32.1576 48.3858 32.5466 48.4788 32.8626 48.5358L33.9986 48.7418L33.4766 49.7728Z" fill="#155DFC"/>
<path d="M36.2297 40.0778L35.4687 41.0778L36.8437 42.9578C37.2087 43.4578 37.6047 43.9638 38.0247 44.4498L38.0087 44.4658C37.4328 44.1841 36.8431 43.9317 36.2417 43.7098L34.1017 42.8768L33.3167 43.9078L38.4867 45.7358L39.3197 44.6358L36.2297 40.0778Z" fill="#155DFC"/>
<path d="M42.3057 39.9618L40.7927 41.4828L39.9157 40.6088L41.2657 39.2458L40.5817 38.5698L39.2327 39.9338L38.4637 39.1688L39.8957 37.7258L39.2077 37.0428L36.9397 39.3338L40.6487 43.0098L42.9907 40.6448L42.3057 39.9618Z" fill="#155DFC"/>
<path d="M46.4487 36.0728C46.0197 35.4728 45.3887 35.3368 44.4427 35.5958C43.7427 35.7818 43.4197 35.8338 43.2247 35.5628C43.0677 35.3398 43.1317 35.0088 43.5487 34.7098C43.8553 34.4889 44.2082 34.3408 44.5807 34.2768L44.2407 33.3468C43.7941 33.4439 43.3734 33.6352 43.0067 33.9078C42.7944 34.0144 42.6065 34.1639 42.4551 34.3469C42.3036 34.5299 42.1919 34.7424 42.1269 34.9709C42.0619 35.1994 42.0451 35.4389 42.0776 35.6742C42.1101 35.9095 42.1912 36.1355 42.3157 36.3378C42.7567 36.9538 43.4967 37.0138 44.3787 36.7558C45.0177 36.5728 45.3287 36.5808 45.5187 36.8448C45.7087 37.1088 45.6117 37.4718 45.1747 37.7868C44.7996 38.045 44.3714 38.2158 43.9217 38.2868L44.2927 39.2208C44.7934 39.125 45.267 38.9202 45.6797 38.6208C46.8447 37.7838 46.9577 36.7888 46.4487 36.0768" fill="#155DFC"/>
<path d="M50.8255 32.4318C50.6945 32.1162 50.4985 31.8317 50.2501 31.5968C50.0018 31.362 49.7068 31.1821 49.3844 31.0689C49.0619 30.9557 48.7192 30.9117 48.3786 30.9398C48.038 30.9678 47.7071 31.0674 47.4075 31.2318C47.0947 31.3916 46.8186 31.6147 46.5967 31.887C46.3749 32.1594 46.2122 32.475 46.1191 32.8136C46.026 33.1523 46.0044 33.5067 46.0558 33.8542C46.1072 34.2016 46.2304 34.5346 46.4175 34.8318C46.5467 35.1469 46.7405 35.4314 46.9866 35.6669C47.2326 35.9023 47.5254 36.0835 47.8458 36.1987C48.1663 36.3139 48.5074 36.3605 48.8471 36.3356C49.1867 36.3106 49.5173 36.2146 49.8175 36.0538C50.1393 35.9009 50.4244 35.6805 50.6534 35.4076C50.8825 35.1348 51.0501 34.8158 51.145 34.4724C51.2398 34.129 51.2597 33.7692 51.2032 33.4175C51.1467 33.0657 51.0152 32.7302 50.8175 32.4338M49.4345 35.1958C48.7345 35.5608 47.9785 35.1398 47.5055 34.2328C47.0325 33.3258 47.1055 32.4458 47.8055 32.0768C48.5055 31.7078 49.2935 32.2108 49.7265 33.0398C50.1965 33.9398 50.1385 34.8268 49.4315 35.1958" fill="#155DFC"/>
<path d="M55.2585 32.0598C55.0115 31.3598 54.4415 31.0598 53.4585 31.0408C52.7345 31.0248 52.4115 30.9838 52.2975 30.6678C52.2085 30.4138 52.3655 30.1098 52.8475 29.9398C53.2032 29.8131 53.5831 29.7687 53.9585 29.8098L53.8905 28.8278C53.4343 28.7922 52.9759 28.8585 52.5485 29.0218C51.3875 29.4298 50.9095 30.3218 51.2045 31.1578C51.4595 31.8728 52.1505 32.1398 53.0695 32.1358C53.7355 32.1358 54.0325 32.2358 54.1415 32.5358C54.2505 32.8358 54.0555 33.1638 53.5415 33.3458C53.1092 33.4876 52.6506 33.5307 52.1995 33.4718L52.2995 34.4718C52.8076 34.5186 53.3199 34.4523 53.7995 34.2778C55.1495 33.8038 55.5375 32.8778 55.2505 32.0538" fill="#155DFC"/>
<path d="M59.2585 27.3848L57.9585 27.6638L57.7085 28.9988C57.6345 29.3988 57.5745 29.7188 57.5295 30.0588H57.5135C57.3135 29.7588 57.1505 29.5048 56.9135 29.1688L56.1295 28.0528L54.8105 28.3358L57.0715 31.0048L57.5235 33.0908L58.6735 32.8438L58.2165 30.7228L59.2585 27.3848Z" fill="#155DFC"/>
<path d="M62.2876 27.0998L60.7456 27.2418L59.6296 32.5848L60.8466 32.4718L61.0976 31.1048L62.5856 30.9708L63.1076 32.2708L64.3736 32.1538L62.2876 27.0998ZM61.1876 30.2098L61.3936 29.0818C61.4536 28.7708 61.4936 28.3688 61.5436 28.0538H61.5586C61.6656 28.3538 61.7896 28.7338 61.9106 29.0328L62.3356 30.1048L61.1876 30.2098Z" fill="#155DFC"/>
<path d="M66.0826 31.2588L66.2596 27.0328L65.0766 26.9838L64.8586 32.2008L68.1176 32.3348L68.1576 31.3438L66.0826 31.2588Z" fill="#155DFC"/>
<path d="M72.8856 31.0758L73.6706 31.2538L73.4316 32.3218C73.2344 32.3389 73.0357 32.3213 72.8446 32.2698C72.6233 32.231 72.4128 32.1452 72.2275 32.0183C72.0421 31.8913 71.8862 31.726 71.7701 31.5336C71.654 31.3413 71.5805 31.1262 71.5545 30.903C71.5286 30.6799 71.5508 30.4537 71.6196 30.2398C71.6538 30.0121 71.7373 29.7945 71.8642 29.6024C71.9911 29.4102 72.1584 29.248 72.3544 29.1271C72.5504 29.0062 72.7705 28.9295 72.9992 28.9023C73.2278 28.8752 73.4597 28.8982 73.6786 28.9698C74.0876 29.0507 74.4747 29.2174 74.8146 29.4588L75.2636 28.5888C74.8559 28.3081 74.394 28.1156 73.9076 28.0238C73.5462 27.9001 73.1626 27.8547 72.7823 27.8905C72.402 27.9264 72.0336 28.0428 71.7018 28.232C71.3699 28.4211 71.082 28.6787 70.8574 28.9877C70.6327 29.2966 70.4763 29.6498 70.3986 30.0238C70.3068 30.362 70.2861 30.7156 70.3378 31.0622C70.3894 31.4089 70.5122 31.741 70.6986 32.0378C70.9265 32.3466 71.2132 32.6073 71.5422 32.805C71.8712 33.0027 72.2359 33.1335 72.6156 33.1898C73.1946 33.3138 73.7893 33.3476 74.3786 33.2898L74.9846 30.6078L73.0846 30.1788L72.8856 31.0758Z" fill="#155DFC"/>
<path d="M80.1455 28.7008C80.0807 28.6754 80.0115 28.6629 79.9419 28.6642C79.8722 28.6654 79.8036 28.6804 79.7397 28.7082C79.6759 28.736 79.6181 28.7761 79.5698 28.8263C79.5215 28.8764 79.4835 28.9355 79.458 29.0003C79.4325 29.0651 79.4201 29.1343 79.4213 29.204C79.4226 29.2736 79.4375 29.3423 79.4654 29.4061C79.4932 29.47 79.5333 29.5277 79.5834 29.576C79.6335 29.6244 79.6927 29.6624 79.7575 29.6878C79.8214 29.7139 79.8899 29.7268 79.9588 29.7257C80.0278 29.7247 80.0959 29.7097 80.1589 29.6817C80.222 29.6537 80.2787 29.6132 80.3257 29.5627C80.3727 29.5122 80.409 29.4527 80.4325 29.3878C80.4598 29.324 80.474 29.2554 80.4743 29.1859C80.4746 29.1165 80.461 29.0477 80.4342 28.9837C80.4074 28.9196 80.3681 28.8616 80.3185 28.813C80.2689 28.7644 80.2101 28.7263 80.1455 28.7008ZM78.6535 28.1148C78.5221 28.0634 78.3756 28.0662 78.2463 28.1228C78.117 28.1793 78.0154 28.2849 77.964 28.4163C77.9125 28.5478 77.9154 28.6942 77.9719 28.8235C78.0285 28.9528 78.1341 29.0544 78.2655 29.1058C78.3948 29.1481 78.5354 29.1393 78.6585 29.0812C78.7816 29.0232 78.8778 28.9202 78.9274 28.7935C78.977 28.6668 78.9763 28.5259 78.9253 28.3997C78.8744 28.2736 78.7772 28.1716 78.6535 28.1148ZM79.7455 30.0078L78.6455 32.8078C78.3105 33.6638 77.8335 33.9438 77.2585 33.7168C76.6835 33.4898 76.5475 32.9438 76.8745 32.1068L77.9745 29.3128L76.8745 28.8798L75.8105 31.5888C75.2005 33.1368 75.6575 34.0958 76.8825 34.5818C78.1485 35.0818 79.1825 34.6628 79.7745 33.1618L80.8465 30.4368L79.7455 30.0078Z" fill="#155DFC"/>
<path d="M84.9255 32.6728L83.2355 34.2728C82.7825 34.6978 82.3355 35.1548 81.9085 35.6318L81.8855 35.6198C82.1035 34.9968 82.2615 34.3988 82.4155 33.7728L82.9655 31.5448L81.8445 30.8978L80.6875 36.2558L81.8805 36.9438L86.0095 33.2998L84.9255 32.6728Z" fill="#155DFC"/>
<path d="M88.8146 36.6368L89.4046 35.8678L86.8456 33.9108L83.6746 38.0558L86.3156 40.0778L86.9056 39.3088L85.2056 38.0088L85.9576 37.0218L87.4826 38.1908L88.0686 37.4278L86.5406 36.2628L87.1986 35.4008L88.8146 36.6368Z" fill="#155DFC"/>
<path d="M92.7545 39.0768L91.6705 40.1488C91.1484 40.6536 90.6555 41.1878 90.1945 41.7488L90.1785 41.7328C90.4428 41.1268 90.6673 40.5042 90.8505 39.8688L91.4505 37.7528L90.4835 36.7748L86.7725 40.4428L87.5315 41.2158L88.6485 40.1068C89.2545 39.5068 89.7685 38.9828 90.2375 38.4738L90.2575 38.4858C89.9989 39.12 89.7746 39.7676 89.5855 40.4258L88.9345 42.6338L89.8085 43.5158L93.5215 39.8478L92.7545 39.0768Z" fill="#155DFC"/>
<path d="M95.1897 41.9678L94.4827 41.0178L90.3047 44.1518L92.2627 46.7568L93.0547 46.1568L91.8097 44.4988L95.1897 41.9678Z" fill="#155DFC"/>
<path d="M98.4236 44.2908C98.3696 44.2007 98.2901 44.1286 98.1951 44.0837C98.1001 44.0388 97.994 44.0232 97.8901 44.0388C97.7862 44.0544 97.6892 44.1005 97.6116 44.1713C97.534 44.2421 97.4791 44.3343 97.454 44.4364C97.429 44.5384 97.4348 44.6456 97.4707 44.7443C97.5067 44.843 97.5712 44.9288 97.656 44.9908C97.7408 45.0528 97.8421 45.0882 97.9471 45.0925C98.0521 45.0967 98.156 45.0697 98.2456 45.0148C98.3058 44.98 98.3584 44.9333 98.4002 44.8776C98.442 44.8219 98.4721 44.7584 98.4888 44.6908C98.5054 44.6231 98.5082 44.5529 98.497 44.4841C98.4858 44.4154 98.4608 44.3497 98.4236 44.2908ZM96.9476 44.4908L92.5076 47.2368L93.1306 48.2448L97.5706 45.5018L96.9476 44.4908Z" fill="#155DFC"/>
<path d="M99.4926 49.1408L97.4146 48.8338C97.1966 48.8088 96.9736 48.7768 96.7426 48.7618L96.7306 48.7418L98.8086 47.7338L98.2956 46.6828L93.6016 48.9648L94.1146 50.0158L95.6466 49.2718L96.3386 49.4328L94.8666 51.5688L95.4666 52.8058L97.3666 49.8618L100.121 50.4448L99.4926 49.1408Z" fill="#155DFC"/>
<path d="M101.52 54.5308C101.39 54.0354 101.218 53.552 101.007 53.0858L96.0696 54.4648C96.1288 54.8872 96.219 55.3047 96.3396 55.7138C96.4616 56.4241 96.8128 57.0749 97.3396 57.5668C97.5107 57.6954 97.7093 57.7824 97.9198 57.8211C98.1303 57.8598 98.3469 57.8491 98.5526 57.7898C98.843 57.7116 99.0973 57.5351 99.2722 57.2904C99.447 57.0457 99.5316 56.7479 99.5116 56.4478H99.5276C99.6599 56.6644 99.8585 56.8325 100.094 56.9273C100.329 57.022 100.589 57.0384 100.835 56.9738C101.039 56.9182 101.224 56.8066 101.368 56.6514C101.513 56.4963 101.611 56.3038 101.652 56.0958C101.752 55.5731 101.705 55.0328 101.518 54.5348M98.2666 56.5888C97.7366 56.7348 97.4176 56.3348 97.2666 55.8218C97.2146 55.6218 97.1776 55.4938 97.1576 55.3768L98.5776 54.9768L98.6866 55.3658C98.8436 55.9348 98.7676 56.4458 98.2616 56.5868M100.369 55.8718C99.9976 55.9768 99.6616 55.7218 99.4946 55.1278L99.3896 54.7528L100.563 54.4288C100.628 54.5837 100.683 54.7431 100.726 54.9058C100.871 55.4188 100.749 55.7678 100.37 55.8728" fill="#155DFC"/>
<path d="M102.529 59.2578L97.1445 58.3578L97.3065 59.5718L98.6815 59.7658L98.8755 61.2498L97.6015 61.8228L97.7655 63.0808L102.729 60.7948L102.529 59.2578ZM100.785 60.4948L99.7285 60.9608L99.5785 59.8148L100.721 59.9818C101.028 60.0258 101.432 60.0498 101.748 60.0868V60.1028C101.448 60.2198 101.076 60.3608 100.781 60.4948" fill="#155DFC"/>
<path d="M102.963 64.7788L102.979 63.6058L97.7616 63.5418L97.7456 64.7108L99.4456 64.7298L99.9916 65.1868L97.7216 66.4318L97.7056 67.8108L100.726 66.0278L102.926 67.7838L102.942 66.3348L101.223 65.1348C101.041 65.0178 100.856 64.8878 100.658 64.7698V64.7448L102.963 64.7788Z" fill="#155DFC"/>
<path d="M97.7047 67.7908L97.5107 69.0008L98.7767 69.5788L98.5377 71.0548L97.1507 71.2418L96.9507 72.4948L102.362 71.7258L102.609 70.1978L97.7047 67.7908ZM101.62 70.7838C101.3 70.8128 100.904 70.8398 100.581 70.8838L99.4367 71.0258L99.6227 69.8888L100.666 70.3708C100.949 70.5048 101.33 70.6408 101.62 70.7708V70.7838Z" fill="#155DFC"/>
<path d="M99.2235 76.2768L101.38 75.8278L101.801 74.5188L96.8305 72.9188L96.4985 73.9498L97.9985 74.4308C98.8065 74.6898 99.5145 74.9008 100.182 75.0818V75.1068C99.4986 75.1727 98.8194 75.2728 98.1465 75.4068L95.8905 75.8558L95.5095 77.0328L100.48 78.6328L100.812 77.6018L99.3605 77.1318C98.6721 76.9023 97.9709 76.7129 97.2605 76.5648L97.2685 76.5418C97.9272 76.4963 98.5823 76.4081 99.2295 76.2778" fill="#155DFC"/>
<path d="M95.1695 77.7758L93.7615 80.7198L94.6615 81.1448L95.5545 79.2728L99.3685 81.0928L99.8795 80.0248L95.1695 77.7758Z" fill="#155DFC"/>
<path d="M93.4651 81.1686L92.8625 82.1878L97.3561 84.8442L97.9586 83.825L93.4651 81.1686Z" fill="#155DFC"/>
<path d="M95.4305 88.2008C95.3326 88.2992 95.2574 88.4177 95.2101 88.5482C95.1629 88.6787 95.1447 88.8179 95.1569 88.9561C95.1691 89.0943 95.2113 89.2282 95.2807 89.3484C95.3501 89.4686 95.4449 89.5721 95.5585 89.6518L95.9235 89.1668C95.8465 89.086 95.8035 88.9785 95.8035 88.8668C95.8035 88.7551 95.8465 88.6477 95.9235 88.5668C95.9783 88.4724 96.0682 88.4034 96.1736 88.3747C96.279 88.3461 96.3914 88.3601 96.4865 88.4138L96.8575 87.9138C96.7502 87.8237 96.6239 87.7588 96.4881 87.724C96.3523 87.6893 96.2104 87.6856 96.073 87.7131C95.9355 87.7407 95.806 87.7989 95.6941 87.8833C95.5822 87.9677 95.4907 88.0762 95.4265 88.2008M94.6375 84.2648C94.3668 84.042 94.0526 83.878 93.7149 83.7833C93.3773 83.6886 93.0236 83.6653 92.6765 83.7148C92.3009 83.7956 91.9451 83.9501 91.6298 84.1695C91.3144 84.3889 91.0458 84.6688 90.8395 84.9928C90.493 85.4724 90.2206 86.0013 90.0315 86.5618L92.2315 88.2128L93.4005 86.6548L92.6605 86.1018L92.1785 86.7488L91.3045 86.0938C91.3651 85.9073 91.4616 85.7344 91.5885 85.5848C91.867 85.2302 92.2749 85.0008 92.7226 84.947C93.1702 84.8931 93.6209 85.0194 93.9755 85.2978C94.3301 85.5763 94.5595 85.9842 94.6134 86.4319C94.6672 86.8795 94.541 87.3302 94.2625 87.6848C94.0223 88.0269 93.7117 88.3137 93.3515 88.5258L93.9575 89.2908C94.3821 89.033 94.7485 88.6897 95.0335 88.2828C95.2926 88.0025 95.4893 87.6703 95.6107 87.3084C95.732 86.9464 95.7752 86.5628 95.7374 86.1829C95.6996 85.803 95.5817 85.4354 95.3914 85.1045C95.2011 84.7735 94.9428 84.4866 94.6335 84.2628" fill="#155DFC"/>
<path d="M89.3036 86.9398L88.4956 87.8098L92.3136 91.3718L93.1136 90.5018L89.3036 86.9398Z" fill="#155DFC"/>
</g>
<defs>
<clipPath id="clip0_2056_4262">
<rect width="130" height="130" fill="white"/>
</clipPath>
</defs>
</svg>
