<svg width="89" height="89" viewBox="0 0 89 89" fill="none" xmlns="http://www.w3.org/2000/svg">
<path d="M75.3017 75.213H73.7117C73.4117 75.213 73.2717 74.803 73.5117 74.593L73.9717 74.193C74.3617 73.853 74.8417 73.673 75.3417 73.673H76.9317C77.2417 73.673 77.3717 74.083 77.1317 74.293L76.6717 74.683C76.2917 75.033 75.8017 75.213 75.3017 75.213Z" fill="white"/>
<path d="M77.3817 72.983L75.7917 73.093C75.4917 73.113 75.3217 72.713 75.5517 72.493L75.9817 72.063C76.3417 71.703 76.8117 71.483 77.3117 71.453L78.8917 71.343C79.1917 71.323 79.3617 71.723 79.1417 71.943L78.7117 72.373C78.3517 72.733 77.8817 72.953 77.3817 72.983Z" fill="white"/>
<path d="M79.3017 70.613L77.7217 70.833C77.4217 70.873 77.2317 70.483 77.4417 70.253L77.8417 69.803C78.1817 69.413 78.6317 69.163 79.1317 69.103L80.7117 68.883C81.0117 68.843 81.2017 69.233 81.0017 69.463L80.6017 69.923C80.2517 70.293 79.8017 70.543 79.3017 70.613Z" fill="white"/>
<path d="M81.0517 68.113L79.4917 68.443C79.1917 68.513 78.9817 68.133 79.1717 67.883L79.5317 67.403C79.8417 66.993 80.2817 66.713 80.7617 66.613L82.3217 66.283C82.6217 66.223 82.8317 66.593 82.6517 66.843L82.2817 67.323C81.9717 67.733 81.5317 68.013 81.0517 68.113Z" fill="white"/>
<path d="M82.6117 65.5029L81.0817 65.9429C80.7917 66.0229 80.5417 65.6729 80.7117 65.4029L81.0417 64.9029C81.3217 64.4729 81.7417 64.1629 82.2217 64.0229L83.7517 63.5829C84.0417 63.4929 84.2917 63.8529 84.1217 64.1229L83.7917 64.6329C83.5117 65.0529 83.0917 65.3629 82.6117 65.5029Z" fill="white"/>
<path d="M84.0017 62.783L82.5117 63.323C82.2217 63.433 81.9617 63.093 82.1117 62.813L82.4017 62.283C82.6517 61.833 83.0417 61.493 83.5117 61.323L85.0017 60.783C85.2917 60.673 85.5517 61.023 85.4017 61.293L85.1017 61.823C84.8617 62.273 84.4717 62.613 84.0017 62.783Z" fill="white"/>
<path d="M85.1917 59.973L83.7417 60.623C83.4617 60.743 83.1717 60.423 83.3017 60.143L83.5617 59.603C83.7817 59.133 84.1517 58.773 84.6017 58.573L86.0517 57.923C86.3317 57.803 86.6217 58.123 86.4917 58.403L86.2317 58.953C86.0117 59.403 85.6417 59.773 85.1917 59.973Z" fill="white"/>
<path d="M86.1817 57.093L84.7717 57.843C84.5017 57.983 84.1917 57.683 84.3017 57.393L84.5217 56.833C84.7117 56.353 85.0517 55.963 85.4917 55.733L86.8917 54.983C87.1617 54.843 87.4717 55.143 87.3617 55.433L87.1417 55.993C86.9617 56.463 86.6217 56.853 86.1817 57.093Z" fill="white"/>
<path d="M86.9617 54.143L85.6117 54.983C85.3517 55.143 85.0217 54.863 85.1117 54.563L85.2917 53.983C85.4417 53.493 85.7617 53.083 86.1817 52.813L87.5317 51.973C87.7917 51.813 88.1217 52.083 88.0317 52.383L87.8517 52.953C87.7017 53.473 87.3817 53.883 86.9617 54.143Z" fill="white"/>
<path d="M87.5417 51.153L86.2517 52.083C86.0017 52.263 85.6517 52.013 85.7217 51.703L85.8617 51.113C85.9817 50.613 86.2617 50.183 86.6717 49.883L87.9617 48.953C88.2117 48.773 88.5617 49.023 88.4917 49.333L88.3517 49.923C88.2317 50.423 87.9417 50.853 87.5417 51.153Z" fill="white"/>
<path d="M87.9117 48.123L86.6917 49.143C86.4517 49.343 86.0917 49.113 86.1417 48.803L86.2417 48.213C86.3217 47.703 86.5717 47.253 86.9617 46.933L88.1817 45.913C88.4117 45.723 88.7817 45.943 88.7317 46.253L88.6417 46.853C88.5517 47.353 88.2917 47.803 87.9117 48.123Z" fill="white"/>
<path d="M88.0717 45.0829L86.9317 46.1829C86.7117 46.3929 86.3317 46.1929 86.3617 45.8829L86.4117 45.2829C86.4617 44.7729 86.6817 44.3029 87.0417 43.9529L88.1817 42.8529C88.4017 42.6429 88.7817 42.8429 88.7517 43.1529L88.7017 43.7529C88.6517 44.2629 88.4317 44.7329 88.0717 45.0829Z" fill="white"/>
<path d="M88.0117 42.033L86.9517 43.213C86.7417 43.443 86.3517 43.263 86.3617 42.953L86.3717 42.353C86.3817 41.843 86.5717 41.353 86.9017 40.983L87.9617 39.803C88.1617 39.573 88.5617 39.753 88.5517 40.063L88.5417 40.663C88.5317 41.173 88.3417 41.663 88.0117 42.033Z" fill="white"/>
<path d="M87.7417 38.993L86.7617 40.243C86.5717 40.483 86.1617 40.343 86.1517 40.023L86.1217 39.423C86.1017 38.913 86.2517 38.413 86.5617 38.023L87.5417 36.773C87.7317 36.533 88.1317 36.683 88.1517 36.993L88.1817 37.593C88.2017 38.103 88.0517 38.603 87.7417 38.993Z" fill="white"/>
<path d="M87.2617 35.983L86.3717 37.303C86.2017 37.553 85.7817 37.433 85.7417 37.123L85.6717 36.523C85.6117 36.013 85.7317 35.503 86.0117 35.093L86.9017 33.783C87.0717 33.533 87.4917 33.643 87.5217 33.963L87.5917 34.563C87.6617 35.063 87.5417 35.573 87.2617 35.983Z" fill="white"/>
<path d="M86.5717 33.0129L85.7817 34.3829C85.6317 34.6429 85.2017 34.5529 85.1417 34.2529L85.0317 33.6629C84.9317 33.1629 85.0217 32.6529 85.2717 32.2129L86.0617 30.8429C86.2117 30.5729 86.6417 30.6629 86.7017 30.9729L86.8117 31.5629C86.9017 32.0629 86.8217 32.5829 86.5717 33.0129Z" fill="white"/>
<path d="M85.6817 30.093L84.9817 31.523C84.8517 31.793 84.4217 31.733 84.3417 31.433L84.1817 30.853C84.0517 30.353 84.0917 29.843 84.3117 29.393L85.0117 27.963C85.1417 27.693 85.5717 27.753 85.6517 28.053L85.8117 28.633C85.9417 29.133 85.8917 29.653 85.6817 30.093Z" fill="white"/>
<path d="M84.5817 27.2529L83.9817 28.7229C83.8617 29.0029 83.4317 28.9729 83.3317 28.6729L83.1317 28.1029C82.9617 27.6129 82.9717 27.1029 83.1617 26.6329L83.7617 25.1629C83.8817 24.8829 84.3117 24.9129 84.4117 25.2029L84.6117 25.7729C84.7817 26.2729 84.7717 26.7929 84.5817 27.2529Z" fill="white"/>
<path d="M83.2917 24.493L82.8017 26.003C82.7117 26.293 82.2817 26.293 82.1517 26.003L81.9217 25.443C81.7217 24.973 81.7017 24.453 81.8517 23.973L82.3417 22.463C82.4317 22.173 82.8717 22.173 82.9917 22.463L83.2317 23.013C83.4217 23.503 83.4417 24.013 83.2917 24.493Z" fill="white"/>
<path d="M81.8117 21.823L81.4217 23.363C81.3517 23.663 80.9117 23.693 80.7717 23.413L80.5017 22.873C80.2717 22.413 80.2117 21.903 80.3317 21.413L80.7217 19.8731C80.7917 19.5731 81.2317 19.543 81.3717 19.823L81.6417 20.363C81.8717 20.823 81.9317 21.343 81.8117 21.823Z" fill="white"/>
<path d="M80.1417 19.273L79.8617 20.833C79.8117 21.133 79.3817 21.193 79.2217 20.923L78.9117 20.403C78.6517 19.963 78.5517 19.453 78.6417 18.963L78.9117 17.393C78.9617 17.093 79.3917 17.033 79.5517 17.303L79.8617 17.823C80.1317 18.273 80.2317 18.783 80.1417 19.273Z" fill="white"/>
<path d="M78.3017 16.843L78.1317 18.423C78.1017 18.723 77.6817 18.813 77.5017 18.563L77.1617 18.073C76.8717 17.653 76.7317 17.153 76.7917 16.653L76.9617 15.073C76.9917 14.763 77.4217 14.673 77.5917 14.933L77.9417 15.433C78.2317 15.843 78.3617 16.343 78.3017 16.843Z" fill="white"/>
<path d="M76.3017 14.543L76.2517 16.133C76.2417 16.433 75.8217 16.553 75.6317 16.313L75.2517 15.843C74.9217 15.443 74.7617 14.953 74.7817 14.453L74.8417 12.863C74.8517 12.553 75.2717 12.443 75.4617 12.683L75.8417 13.153C76.1517 13.553 76.3217 14.043 76.3017 14.543Z" fill="white"/>
<path d="M74.1417 12.3829L74.1917 13.9729C74.2017 14.2829 73.7917 14.4229 73.5817 14.1929L73.1717 13.7529C72.8217 13.3729 72.6217 12.8929 72.6017 12.4029L72.5417 10.8129C72.5317 10.5129 72.9417 10.3629 73.1517 10.5929L73.5617 11.0329C73.9217 11.4129 74.1217 11.8929 74.1417 12.3829Z" fill="white"/>
<path d="M71.8417 10.393L72.0117 11.973C72.0417 12.273 71.6517 12.453 71.4217 12.243L70.9817 11.833C70.6117 11.483 70.3717 11.013 70.3217 10.523L70.1517 8.94302C70.1217 8.64302 70.5117 8.46302 70.7417 8.67302L71.1817 9.08302C71.5517 9.43302 71.7917 9.89302 71.8417 10.393Z" fill="white"/>
<path d="M69.4017 8.553L69.6717 10.123C69.7217 10.423 69.3417 10.623 69.1017 10.433L68.6317 10.053C68.2317 9.723 67.9717 9.283 67.8817 8.793L67.6117 7.233C67.5617 6.933 67.9417 6.723 68.1817 6.923L68.6517 7.303C69.0517 7.623 69.3117 8.063 69.4017 8.553Z" fill="white"/>
<path d="M66.8417 6.89301L67.2317 8.43301C67.3017 8.73301 66.9417 8.96301 66.6817 8.78301L66.1917 8.43301C65.7717 8.13301 65.4717 7.71301 65.3517 7.23301L64.9617 5.69301C64.8917 5.39301 65.2517 5.16301 65.5117 5.34301L66.0017 5.69301C66.4217 5.99301 66.7217 6.41301 66.8417 6.89301Z" fill="white"/>
<path d="M64.1717 5.42297L64.6617 6.93297C64.7517 7.22297 64.4017 7.48297 64.1417 7.31297L63.6217 7.00297C63.1817 6.73297 62.8617 6.33297 62.7017 5.86297L62.2117 4.35297C62.1217 4.06297 62.4717 3.80297 62.7317 3.97297L63.2517 4.28297C63.6917 4.54297 64.0217 4.94297 64.1717 5.42297Z" fill="white"/>
<path d="M61.4117 4.14297L62.0117 5.61298C62.1317 5.89298 61.7917 6.17298 61.5117 6.03298L60.9817 5.76297C60.5217 5.53297 60.1717 5.14297 59.9817 4.68297L59.3817 3.21298C59.2717 2.93298 59.6017 2.65298 59.8717 2.79298L60.4117 3.07298C60.8717 3.29298 61.2217 3.67297 61.4117 4.14297Z" fill="white"/>
<path d="M58.5617 3.05296L59.2617 4.48296C59.3917 4.75296 59.0817 5.05296 58.8017 4.93296L58.2417 4.69296C57.7717 4.49296 57.3917 4.13296 57.1717 3.68296L56.4717 2.25296C56.3417 1.98296 56.6517 1.68296 56.9417 1.80296L57.4917 2.04296C57.9617 2.24296 58.3417 2.60296 58.5617 3.05296Z" fill="white"/>
<path d="M55.6417 2.16298L56.4417 3.54298C56.5917 3.80298 56.3017 4.13298 56.0117 4.02298L55.4417 3.82298C54.9517 3.65298 54.5517 3.32298 54.3017 2.89298L53.5117 1.51298C53.3617 1.24298 53.6517 0.922977 53.9417 1.03298L54.5117 1.23298C54.9917 1.40298 55.3917 1.72298 55.6417 2.16298Z" fill="white"/>
<path d="M52.6717 1.47296L53.5617 2.79296C53.7317 3.05296 53.4617 3.39296 53.1617 3.30296L52.5817 3.14296C52.0817 3.00296 51.6617 2.71296 51.3817 2.29296L50.4917 0.972962C50.3217 0.722962 50.5817 0.382962 50.8917 0.462962L51.4717 0.622963C51.9617 0.762963 52.3917 1.06296 52.6717 1.47296Z" fill="white"/>
<path d="M49.6517 1.00297L50.6317 2.25297C50.8217 2.49297 50.5817 2.85297 50.2717 2.79297L49.6817 2.67297C49.1717 2.57297 48.7317 2.30297 48.4217 1.91297L47.4517 0.662973C47.2617 0.422973 47.5017 0.0629733 47.8117 0.122973L48.4017 0.242973C48.9017 0.342973 49.3517 0.602973 49.6517 1.00297Z" fill="white"/>
<path d="M46.6217 0.742994L47.6817 1.92299C47.8817 2.15299 47.6717 2.52299 47.3617 2.48299L46.7617 2.41299C46.2517 2.34299 45.7917 2.11299 45.4517 1.74299L44.3917 0.562994C44.1917 0.332994 44.4017 -0.037006 44.7117 0.00299403L45.3117 0.0729942C45.8217 0.132994 46.2817 0.372994 46.6217 0.742994Z" fill="white"/>
<path d="M43.5717 0.693026L44.7117 1.80303C44.9317 2.01303 44.7417 2.40303 44.4317 2.38303L43.8317 2.35303C43.3217 2.32303 42.8417 2.12303 42.4817 1.77303L41.3417 0.673026C41.1217 0.463026 41.3117 0.0730257 41.6217 0.0930257L42.2217 0.123026C42.7317 0.143026 43.2117 0.343026 43.5717 0.693026Z" fill="white"/>
<path d="M40.5217 0.852975L41.7417 1.87298C41.9717 2.06298 41.8117 2.47298 41.5017 2.47298L40.9017 2.48298C40.3917 2.49298 39.9017 2.32298 39.5217 2.00298L38.3017 0.982976C38.0717 0.782976 38.2317 0.382976 38.5417 0.382976L39.1417 0.372976C39.6517 0.362976 40.1417 0.532975 40.5217 0.852975Z" fill="white"/>
<path d="M37.4917 1.23297L38.7817 2.16297C39.0317 2.34297 38.8917 2.75297 38.5817 2.78297L37.9817 2.83297C37.4717 2.87297 36.9717 2.74297 36.5617 2.45297L35.2817 1.52297C35.0317 1.34297 35.1617 0.932973 35.4817 0.902973L36.0817 0.852973C36.5917 0.802973 37.0917 0.932973 37.4917 1.23297Z" fill="white"/>
<path d="M34.5017 1.81299L35.8517 2.65299C36.1117 2.81299 36.0117 3.23299 35.6917 3.28299L35.0917 3.37299C34.5817 3.45299 34.0717 3.35299 33.6517 3.08299L32.3017 2.24299C32.0417 2.08299 32.1517 1.66299 32.4517 1.61299L33.0517 1.52299C33.5717 1.44299 34.0817 1.54299 34.5017 1.81299Z" fill="white"/>
<path d="M31.5617 2.60302L32.9617 3.34302C33.2317 3.49302 33.1617 3.91302 32.8517 3.98302L32.2617 4.11302C31.7617 4.22302 31.2417 4.16302 30.8017 3.92302L29.3917 3.18302C29.1217 3.04302 29.2017 2.61302 29.5017 2.54302L30.0917 2.40302C30.6017 2.30302 31.1117 2.37302 31.5617 2.60302Z" fill="white"/>
<path d="M28.6717 3.60297L30.1217 4.24297C30.4017 4.37297 30.3617 4.80297 30.0617 4.89297L29.4817 5.06297C28.9917 5.21297 28.4717 5.18297 28.0117 4.98297L26.5617 4.33297C26.2817 4.20297 26.3317 3.77297 26.6317 3.68297L27.2117 3.51297C27.7017 3.37297 28.2217 3.39297 28.6717 3.60297Z" fill="white"/>
<path d="M25.8717 4.793L27.3617 5.333C27.6517 5.443 27.6317 5.873 27.3417 5.983L26.7817 6.193C26.3017 6.373 25.7817 6.383 25.3117 6.213L23.8217 5.673C23.5417 5.563 23.5517 5.133 23.8417 5.023L24.4017 4.813C24.8817 4.633 25.4017 4.623 25.8717 4.793Z" fill="white"/>
<path d="M23.1517 6.18299L24.6817 6.62299C24.9717 6.70299 24.9917 7.14299 24.7117 7.27299L24.1617 7.52299C23.6917 7.74299 23.1817 7.78299 22.7017 7.64299L21.1717 7.20299C20.8817 7.12299 20.8617 6.68298 21.1517 6.55298L21.7017 6.30298C22.1517 6.08298 22.6717 6.04299 23.1517 6.18299Z" fill="white"/>
<path d="M20.5417 7.75304L22.1017 8.08304C22.4017 8.14304 22.4517 8.57304 22.1717 8.73304L21.6417 9.02304C21.1917 9.27304 20.6817 9.35304 20.1917 9.24304L18.6417 8.91304C18.3417 8.85304 18.2917 8.42304 18.5717 8.26304L19.1017 7.97304C19.5417 7.73304 20.0517 7.65304 20.5417 7.75304Z" fill="white"/>
<path d="M18.0417 9.503L19.6117 9.723C19.9117 9.763 19.9917 10.193 19.7317 10.363L19.2217 10.693C18.7917 10.973 18.2817 11.083 17.7917 11.013L16.2117 10.793C15.9117 10.753 15.8317 10.323 16.1017 10.153L16.6117 9.823C17.0417 9.553 17.5517 9.433 18.0417 9.503Z" fill="white"/>
<path d="M15.6717 11.423L17.2517 11.533C17.5517 11.553 17.6617 11.973 17.4117 12.163L16.9317 12.523C16.5217 12.833 16.0217 12.983 15.5317 12.943L13.9517 12.833C13.6417 12.813 13.5417 12.393 13.7917 12.203L14.2717 11.843C14.6817 11.543 15.1717 11.393 15.6717 11.423Z" fill="white"/>
<path d="M13.4417 13.5031H15.0317C15.3317 13.5031 15.4717 13.9131 15.2317 14.1231L14.7717 14.5131C14.3817 14.8531 13.9017 15.0331 13.4017 15.0331H11.8117C11.5017 15.0331 11.3717 14.6231 11.6117 14.4131L12.0717 14.0231C12.4617 13.6931 12.9417 13.5031 13.4417 13.5031Z" fill="white"/>
<path d="M11.3717 15.743L12.9617 15.633C13.2617 15.613 13.4317 16.013 13.2117 16.233L12.7817 16.653C12.4217 17.013 11.9517 17.233 11.4517 17.263L9.86168 17.373C9.56168 17.393 9.39168 16.993 9.61168 16.773L10.0417 16.353C10.4017 15.993 10.8717 15.773 11.3717 15.743Z" fill="white"/>
<path d="M9.45167 18.113L11.0217 17.893C11.3217 17.853 11.5117 18.243 11.3017 18.473L10.9017 18.923C10.5617 19.313 10.1117 19.563 9.61167 19.623L8.04167 19.843C7.74167 19.883 7.55167 19.493 7.75167 19.263L8.15167 18.813C8.50167 18.433 8.95167 18.173 9.45167 18.113Z" fill="white"/>
<path d="M7.70168 20.613L9.25168 20.283C9.55168 20.223 9.77168 20.593 9.58168 20.843L9.22167 21.323C8.91167 21.733 8.47168 22.013 7.98168 22.113L6.43168 22.443C6.13168 22.503 5.92168 22.133 6.10168 21.883L6.47167 21.403C6.78167 20.993 7.22168 20.713 7.70168 20.613Z" fill="white"/>
<path d="M6.13167 23.223L7.66167 22.783C7.95167 22.703 8.20167 23.063 8.03167 23.323L7.70167 23.833C7.42167 24.263 7.00167 24.573 6.52167 24.713L4.99167 25.153C4.70167 25.233 4.45167 24.883 4.62167 24.613L4.95167 24.103C5.24167 23.673 5.65167 23.363 6.13167 23.223Z" fill="white"/>
<path d="M4.75168 25.943L6.24168 25.403C6.52168 25.293 6.79168 25.643 6.64168 25.913L6.35168 26.443C6.10168 26.893 5.71168 27.233 5.24168 27.403L3.75168 27.953C3.46168 28.053 3.19168 27.713 3.35168 27.443L3.65168 26.913C3.89168 26.453 4.28168 26.113 4.75168 25.943Z" fill="white"/>
<path d="M3.56168 28.753L5.01168 28.113C5.29168 27.993 5.58168 28.313 5.45168 28.593L5.19168 29.143C4.97168 29.613 4.60168 29.973 4.15168 30.173L2.70168 30.823C2.42168 30.943 2.13168 30.623 2.27168 30.343L2.53168 29.793C2.74168 29.323 3.11168 28.953 3.56168 28.753Z" fill="white"/>
<path d="M2.57167 31.633L3.98167 30.883C4.25167 30.743 4.56167 31.043 4.45167 31.333L4.23167 31.893C4.04167 32.373 3.70167 32.763 3.26167 32.993L1.86167 33.743C1.59167 33.883 1.28167 33.583 1.39167 33.293L1.60167 32.733C1.79167 32.263 2.13167 31.873 2.57167 31.633Z" fill="white"/>
<path d="M1.79168 34.583L3.14167 33.743C3.40167 33.583 3.73167 33.863 3.64167 34.163L3.46168 34.743C3.31168 35.233 2.99168 35.643 2.57168 35.913L1.22167 36.753C0.961675 36.913 0.631675 36.643 0.721675 36.333L0.901675 35.763C1.05168 35.253 1.36168 34.843 1.79168 34.583Z" fill="white"/>
<path d="M1.21168 37.573L2.50168 36.633C2.75168 36.453 3.10168 36.713 3.03168 37.013L2.89168 37.603C2.77168 38.103 2.49168 38.533 2.08168 38.833L0.801679 39.763C0.551679 39.943 0.201681 39.693 0.271681 39.383L0.41168 38.793C0.52168 38.303 0.801681 37.873 1.21168 37.573Z" fill="white"/>
<path d="M0.84168 40.603L2.06168 39.583C2.29168 39.383 2.66168 39.613 2.61168 39.923L2.51168 40.523C2.43168 41.033 2.18168 41.483 1.79168 41.803L0.571679 42.823C0.341679 43.023 -0.0283201 42.793 0.0216799 42.483L0.11168 41.883C0.20168 41.373 0.46168 40.923 0.84168 40.603Z" fill="white"/>
<path d="M0.681676 43.643L1.82168 42.533C2.04168 42.323 2.42167 42.523 2.39167 42.843L2.34168 43.443C2.29168 43.953 2.07168 44.423 1.71168 44.773L0.571675 45.873C0.351675 46.083 -0.0283246 45.883 0.00167538 45.573L0.0616748 44.973C0.101675 44.463 0.321676 43.993 0.681676 43.643Z" fill="white"/>
<path d="M0.741675 46.693L1.80167 45.513C2.00167 45.293 2.40167 45.463 2.39167 45.773L2.38167 46.3729C2.37167 46.8829 2.18168 47.373 1.85168 47.743L0.791677 48.923C0.591677 49.153 0.191676 48.973 0.201676 48.663L0.211677 48.063C0.221677 47.543 0.401675 47.063 0.741675 46.693Z" fill="white"/>
<path d="M1.01168 49.733L1.99168 48.483C2.18168 48.243 2.58168 48.393 2.60168 48.703L2.63168 49.313C2.65168 49.823 2.50168 50.323 2.19168 50.713L1.21168 51.963C1.02168 52.203 0.611683 52.053 0.601683 51.743L0.571683 51.143C0.551683 50.623 0.701683 50.123 1.01168 49.733Z" fill="white"/>
<path d="M1.49168 52.743L2.38167 51.423C2.55167 51.163 2.97168 51.283 3.00168 51.593L3.07168 52.193C3.13168 52.703 3.01168 53.203 2.73168 53.623L1.84168 54.943C1.67168 55.193 1.25168 55.073 1.22168 54.763L1.15168 54.163C1.09168 53.663 1.21168 53.153 1.49168 52.743Z" fill="white"/>
<path d="M2.18168 55.713L2.97168 54.333C3.12168 54.073 3.55168 54.163 3.61168 54.463L3.72168 55.053C3.81168 55.553 3.73168 56.073 3.48168 56.503L2.69168 57.883C2.54168 58.143 2.11168 58.053 2.05168 57.753L1.94168 57.163C1.84168 56.653 1.93168 56.143 2.18168 55.713Z" fill="white"/>
<path d="M3.07168 58.6229L3.77168 57.1929C3.90168 56.9229 4.33168 56.9829 4.41168 57.2829L4.56168 57.8629C4.69168 58.3629 4.64168 58.8729 4.43168 59.3229L3.73168 60.7529C3.60168 61.0229 3.17168 60.9629 3.09168 60.6629L2.94168 60.0829C2.80168 59.5929 2.85168 59.0729 3.07168 58.6229Z" fill="white"/>
<path d="M4.17168 61.473L4.76168 60.003C4.88168 59.723 5.31168 59.743 5.41168 60.043L5.61168 60.613C5.78168 61.103 5.77168 61.613 5.58168 62.083L4.98168 63.553C4.87168 63.833 4.43168 63.803 4.33168 63.513L4.13168 62.943C3.97168 62.453 3.98168 61.933 4.17168 61.473Z" fill="white"/>
<path d="M5.46167 64.233L5.95167 62.723C6.04167 62.433 6.48167 62.433 6.60167 62.723L6.83167 63.283C7.03167 63.753 7.05167 64.273 6.90167 64.743L6.41167 66.253C6.31167 66.543 5.88167 66.543 5.76167 66.253L5.53167 65.693C5.33167 65.223 5.31167 64.713 5.46167 64.233Z" fill="white"/>
<path d="M6.94168 66.903L7.33168 65.363C7.40168 65.063 7.84168 65.033 7.98168 65.313L8.25168 65.853C8.48168 66.313 8.54168 66.823 8.42168 67.313L8.03168 68.853C7.96168 69.143 7.53168 69.173 7.38168 68.893L7.11168 68.353C6.88168 67.903 6.82168 67.383 6.94168 66.903Z" fill="white"/>
<path d="M8.60167 69.453L8.88167 67.893C8.93167 67.593 9.36167 67.533 9.52167 67.803L9.83167 68.323C10.0917 68.763 10.1917 69.273 10.1017 69.763L9.83167 71.333C9.78167 71.633 9.35167 71.693 9.19167 71.423L8.88167 70.903C8.62167 70.453 8.52167 69.943 8.60167 69.453Z" fill="white"/>
<path d="M10.4417 71.8829L10.6117 70.3029C10.6417 70.0029 11.0617 69.9129 11.2517 70.1629L11.5917 70.6629C11.8917 71.0829 12.0217 71.5829 11.9617 72.0829L11.7917 73.6629C11.7617 73.9629 11.3317 74.0529 11.1617 73.8029L10.8117 73.3029C10.5217 72.8829 10.3917 72.3829 10.4417 71.8829Z" fill="white"/>
<path d="M12.4517 74.183L12.5117 72.593C12.5217 72.293 12.9417 72.163 13.1317 72.413L13.5117 72.883C13.8317 73.283 14.0017 73.773 13.9817 74.273L13.9217 75.863C13.9117 76.163 13.4917 76.283 13.3017 76.043L12.9217 75.573C12.6017 75.173 12.4317 74.683 12.4517 74.183Z" fill="white"/>
<path d="M14.6117 76.343L14.5517 74.753C14.5417 74.443 14.9517 74.303 15.1617 74.533L15.5717 74.973C15.9217 75.353 16.1217 75.833 16.1417 76.323L16.1917 77.913C16.2017 78.223 15.7917 78.373 15.5817 78.133L15.1717 77.693C14.8317 77.313 14.6217 76.833 14.6117 76.343Z" fill="white"/>
<path d="M16.9117 78.333L16.7417 76.753C16.7117 76.453 17.1017 76.273 17.3317 76.483L17.7717 76.893C18.1517 77.243 18.3817 77.703 18.4317 78.203L18.6017 79.783C18.6317 80.083 18.2417 80.263 18.0117 80.053L17.5717 79.643C17.1917 79.293 16.9617 78.833 16.9117 78.333Z" fill="white"/>
<path d="M19.3517 80.173L19.0717 78.613C19.0217 78.313 19.4017 78.103 19.6417 78.303L20.1117 78.683C20.5117 79.013 20.7717 79.453 20.8617 79.943L21.1417 81.503C21.1917 81.803 20.8117 82.003 20.5717 81.813L20.1017 81.433C19.7017 81.103 19.4317 80.663 19.3517 80.173Z" fill="white"/>
<path d="M21.9117 81.833L21.5317 80.293C21.4617 79.993 21.8217 79.763 22.0817 79.943L22.5717 80.293C22.9917 80.593 23.2917 81.013 23.4117 81.503L23.8017 83.043C23.8717 83.343 23.5117 83.573 23.2517 83.383L22.7617 83.043C22.3217 82.733 22.0317 82.313 21.9117 81.833Z" fill="white"/>
<path d="M24.5817 83.303L24.0917 81.793C24.0017 81.503 24.3417 81.243 24.6117 81.413L25.1317 81.723C25.5717 81.993 25.8917 82.393 26.0517 82.863L26.5417 84.373C26.6417 84.663 26.2817 84.913 26.0117 84.753L25.5017 84.443C25.0617 84.183 24.7317 83.773 24.5817 83.303Z" fill="white"/>
<path d="M27.3417 84.583L26.7417 83.113C26.6317 82.833 26.9617 82.553 27.2417 82.693L27.7817 82.963C28.2417 83.193 28.5917 83.583 28.7817 84.043L29.3717 85.513C29.4917 85.793 29.1617 86.073 28.8817 85.933L28.3417 85.653C27.8817 85.433 27.5317 85.053 27.3417 84.583Z" fill="white"/>
<path d="M30.1917 85.673L29.4917 84.243C29.3617 83.973 29.6617 83.663 29.9517 83.793L30.5017 84.033C30.9717 84.233 31.3517 84.593 31.5717 85.043L32.2717 86.473C32.4017 86.743 32.0917 87.043 31.8017 86.923L31.2517 86.683C30.7917 86.483 30.4117 86.123 30.1917 85.673Z" fill="white"/>
<path d="M33.1117 86.563L32.3217 85.183C32.1717 84.913 32.4517 84.593 32.7517 84.703L33.3217 84.903C33.8117 85.073 34.2117 85.403 34.4617 85.833L35.2517 87.213C35.4017 87.483 35.1117 87.803 34.8217 87.693L34.2517 87.493C33.7617 87.323 33.3617 86.993 33.1117 86.563Z" fill="white"/>
<path d="M36.0817 87.243L35.1917 85.933C35.0217 85.673 35.2917 85.333 35.5917 85.423L36.1717 85.573C36.6717 85.703 37.0917 86.003 37.3717 86.423L38.2617 87.743C38.4317 87.993 38.1617 88.333 37.8617 88.253L37.2817 88.093C36.7817 87.963 36.3617 87.663 36.0817 87.243Z" fill="white"/>
<path d="M39.0917 87.723L38.1117 86.473C37.9217 86.233 38.1617 85.873 38.4717 85.933L39.0617 86.053C39.5717 86.153 40.0117 86.423 40.3217 86.813L41.3017 88.063C41.4917 88.303 41.2517 88.663 40.9417 88.603L40.3517 88.483C39.8417 88.383 39.4017 88.123 39.0917 87.723Z" fill="white"/>
<path d="M42.1317 87.983L41.0717 86.803C40.8717 86.573 41.0817 86.203 41.3917 86.243L41.9917 86.313C42.5017 86.373 42.9617 86.613 43.3017 86.983L44.3617 88.163C44.5617 88.393 44.3517 88.763 44.0417 88.723L43.4417 88.643C42.9317 88.593 42.4717 88.353 42.1317 87.983Z" fill="white"/>
<path d="M45.1817 88.033L44.0417 86.923C43.8217 86.713 44.0117 86.323 44.3217 86.343L44.9217 86.373C45.4317 86.403 45.9117 86.603 46.2717 86.953L47.4117 88.063C47.6317 88.273 47.4417 88.663 47.1317 88.643L46.5317 88.613C46.0217 88.583 45.5417 88.383 45.1817 88.033Z" fill="white"/>
<path d="M48.2317 87.873L47.0117 86.853C46.7817 86.653 46.9417 86.253 47.2517 86.253L47.8517 86.243C48.3617 86.233 48.8517 86.403 49.2417 86.723L50.4617 87.743C50.6917 87.933 50.5317 88.343 50.2217 88.343L49.6217 88.353C49.1017 88.363 48.6117 88.193 48.2317 87.873Z" fill="white"/>
<path d="M51.2617 87.503L49.9717 86.563C49.7317 86.383 49.8617 85.973 50.1717 85.943L50.7717 85.893C51.2817 85.853 51.7817 85.983 52.1817 86.283L53.4717 87.213C53.7217 87.393 53.5817 87.803 53.2717 87.833L52.6717 87.883C52.1617 87.923 51.6617 87.793 51.2617 87.503Z" fill="white"/>
<path d="M54.2517 86.9129L52.9017 86.0629C52.6417 85.9029 52.7417 85.4829 53.0517 85.4329L53.6517 85.3429C54.1617 85.2629 54.6717 85.3629 55.0917 85.6329L56.4417 86.4729C56.7017 86.6329 56.5917 87.0529 56.2817 87.1029L55.6817 87.1929C55.1817 87.2829 54.6717 87.1729 54.2517 86.9129Z" fill="white"/>
<path d="M57.1917 86.123L55.7917 85.3829C55.5217 85.2329 55.6017 84.8129 55.9017 84.7429L56.4917 84.613C56.9917 84.503 57.5117 84.563 57.9517 84.793L59.3517 85.543C59.6217 85.683 59.5517 86.113 59.2417 86.183L58.6517 86.3129C58.1517 86.4229 57.6317 86.353 57.1917 86.123Z" fill="white"/>
<path d="M60.0817 85.123L58.6317 84.473C58.3517 84.353 58.3917 83.923 58.6917 83.823L59.2717 83.653C59.7617 83.503 60.2817 83.533 60.7417 83.733L62.1917 84.383C62.4717 84.513 62.4217 84.943 62.1317 85.033L61.5517 85.203C61.0517 85.353 60.5317 85.333 60.0817 85.123Z" fill="white"/>
<path d="M62.8817 83.933L61.3917 83.383C61.1017 83.283 61.1217 82.843 61.4117 82.733L61.9817 82.523C62.4617 82.343 62.9817 82.333 63.4517 82.503L64.9417 83.043C65.2317 83.143 65.2117 83.583 64.9217 83.693L64.3517 83.903C63.8717 84.093 63.3517 84.103 62.8817 83.933Z" fill="white"/>
<path d="M65.6017 82.543L64.0717 82.103C63.7817 82.023 63.7617 81.583 64.0417 81.453L64.5917 81.203C65.0617 80.983 65.5717 80.943 66.0517 81.083L67.5817 81.523C67.8717 81.603 67.8917 82.043 67.6017 82.173L67.0517 82.423C66.6017 82.643 66.0817 82.683 65.6017 82.543Z" fill="white"/>
<path d="M68.2117 80.973L66.6617 80.6429C66.3617 80.5829 66.3117 80.1529 66.5917 79.9929L67.1217 79.7029C67.5717 79.4529 68.0817 79.373 68.5717 79.483L70.1217 79.8129C70.4217 79.8729 70.4617 80.3029 70.1917 80.4629L69.6617 80.753C69.2117 80.993 68.7017 81.073 68.2117 80.973Z" fill="white"/>
<path d="M70.7117 79.223L69.1317 79.003C68.8317 78.963 68.7517 78.533 69.0217 78.363L69.5317 78.033C69.9617 77.753 70.4717 77.633 70.9617 77.703L72.5317 77.923C72.8317 77.963 72.9117 78.393 72.6517 78.563L72.1417 78.893C71.7117 79.173 71.2017 79.293 70.7117 79.223Z" fill="white"/>
<path d="M73.0817 77.303L71.5017 77.193C71.2017 77.173 71.0917 76.753 71.3417 76.563L71.8217 76.203C72.2317 75.893 72.7317 75.743 73.2217 75.783L74.8117 75.893C75.1217 75.913 75.2217 76.333 74.9717 76.523L74.4817 76.883C74.0717 77.183 73.5717 77.333 73.0817 77.303Z" fill="white"/>
<path fill-rule="evenodd" clip-rule="evenodd" d="M40.6317 9.35298L42.9517 7.68298L42.0517 4.94298L44.3517 6.63298L46.6817 4.93298L45.7917 7.64298L48.1217 9.33298L45.2617 9.32298L44.3817 12.063L43.5117 9.34298L40.6317 9.35298Z" fill="white"/>
<path fill-rule="evenodd" clip-rule="evenodd" d="M27.5117 13.453L29.0217 11.023L27.1417 8.83298L29.9217 9.51298L31.4217 7.05298L31.6317 9.90298L34.4317 10.563L31.7917 11.653L32.0217 14.523L30.1717 12.343L27.5117 13.453Z" fill="white"/>
<path fill-rule="evenodd" clip-rule="evenodd" d="M16.9617 22.253L17.4317 19.433L14.8517 18.133L17.6817 17.693L18.1217 14.853L19.4117 17.403L22.2617 16.943L20.2217 18.953L21.5417 21.523L19.0017 20.213L16.9617 22.253Z" fill="white"/>
<path fill-rule="evenodd" clip-rule="evenodd" d="M10.5917 34.4229L9.94168 31.6429L7.06168 31.4229L9.51168 29.9429L8.83168 27.1429L10.9917 29.0029L13.4517 27.4929L12.3417 30.1329L14.5417 32.0029L11.6917 31.7629L10.5917 34.4229Z" fill="white"/>
<path fill-rule="evenodd" clip-rule="evenodd" d="M9.36168 48.113L7.69168 45.793L4.95168 46.683L6.64168 44.383L4.94168 42.053L7.66168 42.953L9.35168 40.613L9.33168 43.473L12.0817 44.353L9.35168 45.233L9.36168 48.113Z" fill="white"/>
<path fill-rule="evenodd" clip-rule="evenodd" d="M13.4617 61.223L11.0317 59.723L8.84168 61.593L9.52168 58.823L7.06168 57.323L9.91168 57.113L10.5817 54.303L11.6617 56.953L14.5317 56.713L12.3517 58.563L13.4617 61.223Z" fill="white"/>
<path fill-rule="evenodd" clip-rule="evenodd" d="M22.2717 71.773L19.4417 71.313L18.1417 73.883L17.7117 71.053L14.8617 70.613L17.4117 69.323L16.9517 66.483L18.9717 68.513L21.5317 67.193L20.2217 69.743L22.2717 71.773Z" fill="white"/>
<path fill-rule="evenodd" clip-rule="evenodd" d="M34.4417 78.143L31.6517 78.803L31.4417 81.673L29.9517 79.233L27.1517 79.913L29.0217 77.743L27.5117 75.293L30.1417 76.393L32.0117 74.203L31.7717 77.053L34.4417 78.143Z" fill="white"/>
<path fill-rule="evenodd" clip-rule="evenodd" d="M48.1217 79.373L45.8017 81.043L46.7017 83.783L44.3917 82.093L42.0717 83.793L42.9617 81.083L40.6317 79.393L43.4817 79.403L44.3717 76.663L45.2417 79.383L48.1217 79.373Z" fill="white"/>
<path fill-rule="evenodd" clip-rule="evenodd" d="M61.2417 75.273L59.7317 77.703L61.6117 79.893L58.8317 79.213L57.3317 81.673L57.1217 78.823L54.3217 78.163L56.9617 77.073L56.7317 74.203L58.5817 76.383L61.2417 75.273Z" fill="white"/>
<path fill-rule="evenodd" clip-rule="evenodd" d="M71.7817 66.473L71.3217 69.293L73.8917 70.593L71.0717 71.033L70.6217 73.873L69.3417 71.323L66.4917 71.783L68.5217 69.773L67.2117 67.203L69.7517 68.513L71.7817 66.473Z" fill="white"/>
<path fill-rule="evenodd" clip-rule="evenodd" d="M78.1617 54.303L78.8117 57.083L81.6817 57.303L79.2417 58.783L79.9217 61.583L77.7517 59.723L75.3017 61.233L76.4117 58.593L74.2117 56.723L77.0617 56.963L78.1617 54.303Z" fill="white"/>
<path fill-rule="evenodd" clip-rule="evenodd" d="M79.3917 40.613L81.0617 42.933L83.8017 42.043L82.1017 44.343L83.8017 46.673L81.0917 45.773L79.4017 48.113L79.4117 45.253L76.6717 44.373L79.3917 43.493V40.613Z" fill="white"/>
<path fill-rule="evenodd" clip-rule="evenodd" d="M75.2917 27.5029L77.7217 29.0029L79.9117 27.1329L79.2217 29.9029L81.6917 31.4029L78.8317 31.6129L78.1717 34.4229L77.0917 31.7729L74.2117 32.0129L76.4017 30.1629L75.2917 27.5029Z" fill="white"/>
<path fill-rule="evenodd" clip-rule="evenodd" d="M66.4817 16.953L69.3017 17.413L70.6117 14.843L71.0417 17.673L73.8917 18.113L71.3317 19.403L71.7917 22.243L69.7817 20.213L67.2117 21.533L68.5217 18.983L66.4817 16.953Z" fill="white"/>
<path fill-rule="evenodd" clip-rule="evenodd" d="M54.3117 10.583L57.0917 9.92298L57.3117 7.05298L58.7917 9.49298L61.6017 8.81298L59.7317 10.983L61.2417 13.433L58.6017 12.333L56.7417 14.523L56.9817 11.673L54.3117 10.583Z" fill="white"/>
<path d="M44.3717 13.923C27.5917 13.923 13.9417 27.573 13.9417 44.363C13.9417 61.143 27.5917 74.793 44.3717 74.793C61.1517 74.793 74.8117 61.143 74.8117 44.363C74.8117 27.583 61.1617 13.923 44.3717 13.923ZM44.3717 74.113C27.9717 74.113 14.6217 60.773 14.6217 44.363C14.6217 27.953 27.9717 14.613 44.3717 14.613C60.7717 14.613 74.1317 27.953 74.1317 44.363C74.1317 60.773 60.7817 74.113 44.3717 74.113Z" fill="white"/>
<path d="M44.3717 16.733C29.1117 16.733 16.7417 29.103 16.7417 44.363C16.7417 59.623 29.1117 71.993 44.3717 71.993C59.6317 71.993 72.0017 59.623 72.0017 44.363C72.0117 29.103 59.6317 16.733 44.3717 16.733ZM49.6917 34.873L51.2717 35.943C51.4817 36.063 51.7317 36.063 51.9417 35.943L53.5717 35.153C53.8317 35.013 54.1617 35.073 54.3617 35.293C54.8417 35.803 55.2917 36.363 55.6817 36.943C55.8417 37.193 55.8117 37.513 55.6217 37.733L54.4217 39.103C54.2617 39.283 54.2117 39.533 54.2917 39.763L54.9117 41.563C54.9917 41.793 55.1917 41.953 55.4317 41.993L57.2317 42.293C57.5217 42.343 57.7517 42.573 57.7817 42.873C57.8517 43.223 57.8517 43.543 57.8517 43.913V44.993C57.8317 45.283 57.6217 45.533 57.3317 45.613L55.5617 46.013C55.3317 46.073 55.1417 46.243 55.0717 46.473L54.5317 48.283C54.4717 48.513 54.5317 48.763 54.7017 48.943L55.9917 50.243C56.2017 50.453 56.2417 50.773 56.1017 51.033C55.7417 51.653 55.3417 52.243 54.8917 52.803C54.7017 53.033 54.3717 53.113 54.1017 52.983L52.4217 52.263C52.2017 52.163 51.9417 52.203 51.7517 52.343L50.2417 53.503C50.0517 53.653 49.9517 53.893 49.9917 54.133L50.2617 55.943C50.3117 56.233 50.1617 56.523 49.8917 56.633C49.2417 56.963 48.5717 57.233 47.8817 57.453C47.5917 57.523 47.3017 57.393 47.1517 57.143L46.2217 55.563C46.1017 55.353 45.8717 55.233 45.6317 55.243L43.7217 55.303C43.4817 55.303 43.2617 55.443 43.1517 55.663L42.3017 57.243C42.1717 57.503 41.8817 57.643 41.5917 57.593C40.8917 57.443 40.2017 57.243 39.5417 56.983C39.2717 56.873 39.1017 56.603 39.1317 56.313L39.3017 54.493C39.3217 54.253 39.2217 54.023 39.0217 53.883L37.4417 52.813C37.2517 52.683 36.9917 52.663 36.7817 52.763L35.1517 53.553C34.8817 53.693 34.5617 53.633 34.3617 53.423C33.8817 52.883 33.4417 52.313 33.0517 51.713C32.8917 51.463 32.9217 51.143 33.1217 50.923L34.3317 49.553C34.4917 49.373 34.5417 49.123 34.4617 48.893L33.8217 47.103C33.7417 46.873 33.5517 46.703 33.3117 46.663L31.5117 46.363C31.2217 46.313 31.0017 46.073 30.9717 45.783C30.9317 45.453 30.8917 45.163 30.8917 44.783V43.663C30.9017 43.363 31.1217 43.113 31.4117 43.043L33.1917 42.643C33.4217 42.583 33.6117 42.413 33.6717 42.183L34.2117 40.363C34.2817 40.133 34.2217 39.883 34.0517 39.703L32.7717 38.403C32.5617 38.193 32.5217 37.873 32.6617 37.613C33.0217 36.993 33.4317 36.403 33.8717 35.853C34.0617 35.613 34.3917 35.543 34.6617 35.673L36.3417 36.403C36.5617 36.503 36.8217 36.463 37.0117 36.323L38.5217 35.163C38.7117 35.013 38.8117 34.783 38.7717 34.543L38.4917 32.703C38.4517 32.413 38.5917 32.133 38.8617 32.013C39.5117 31.723 40.1917 31.483 40.8817 31.293C41.1617 31.223 41.4617 31.343 41.6117 31.603L42.5417 33.183C42.6617 33.393 42.8817 33.513 43.1317 33.513L45.0417 33.463C45.2817 33.463 45.5017 33.323 45.6117 33.103L46.4717 31.523C46.6017 31.263 46.8917 31.123 47.1817 31.183C47.8517 31.333 48.5017 31.523 49.1317 31.763C49.4017 31.863 49.5717 32.143 49.5517 32.433L49.3817 34.303C49.3717 34.513 49.4917 34.743 49.6917 34.873ZM56.4217 56.703L56.3117 56.823C56.0217 57.173 55.7617 57.553 55.4517 57.883C54.6517 58.753 53.8517 59.633 52.9817 60.473C52.3117 61.143 51.5617 61.713 50.7417 62.193C50.3717 62.403 49.9917 62.593 49.6017 62.763C48.7317 63.133 47.7717 63.223 46.8517 63.043C46.2417 62.943 45.6517 62.743 45.1017 62.453C45.0717 62.433 45.0417 62.423 45.0017 62.403C45.1017 62.353 45.2117 62.313 45.3117 62.273C46.2017 62.003 47.0417 61.593 47.8017 61.073C48.8317 60.373 49.8117 59.613 50.7517 58.813C51.9317 57.873 53.3317 57.233 54.8117 56.973C55.2917 56.883 55.7717 56.813 56.2517 56.733L56.4217 56.703ZM43.4217 26.463C42.5317 26.733 41.6917 27.143 40.9217 27.663C39.9017 28.363 38.9117 29.123 37.9717 29.923C36.7917 30.863 35.4017 31.503 33.9117 31.753C33.4317 31.853 32.9517 31.913 32.4717 31.993L32.3217 32.013L32.4317 31.893C32.7217 31.543 32.9817 31.163 33.2917 30.833C34.0917 29.963 34.8917 29.083 35.7617 28.243C36.4317 27.573 37.1817 26.993 38.0017 26.523C38.3717 26.313 38.7517 26.123 39.1417 25.953C40.0117 25.583 40.9717 25.483 41.9017 25.673C42.5117 25.773 43.1017 25.973 43.6417 26.263C43.6817 26.283 43.7017 26.303 43.7417 26.313C43.6317 26.383 43.5217 26.423 43.4217 26.463ZM38.2317 25.013C37.0617 25.563 35.9917 26.293 35.0417 27.183C34.9617 27.253 34.8717 27.333 34.7917 27.413C33.9917 28.153 33.1917 28.923 32.3917 29.663C31.9917 30.043 31.5917 30.403 31.2017 30.753C30.4317 31.403 29.4917 31.763 28.5217 32.023C28.4817 32.033 28.4417 32.043 28.4117 32.053C28.2517 32.093 28.0917 32.133 27.9317 32.163C27.8417 32.183 27.7617 32.203 27.6717 32.213C27.5217 32.243 27.3917 32.263 27.2717 32.283C27.2617 32.283 27.2617 32.283 27.2517 32.283C27.0917 32.293 26.9417 32.293 26.7117 32.343C26.8117 32.173 26.8817 32.073 26.9317 31.993C27.4217 31.283 28.0217 30.663 28.5617 29.993C29.0217 29.433 29.4817 28.873 29.9417 28.313C30.8717 27.133 31.9917 26.113 33.2517 25.303C34.2117 24.743 35.2917 24.393 36.4017 24.283C37.1317 24.203 37.8717 24.263 38.5817 24.463C38.7217 24.503 38.8617 24.563 39.0017 24.623C38.6817 24.793 38.4617 24.903 38.2317 25.013ZM54.7617 65.483C54.6317 65.593 54.4917 65.693 54.3517 65.793C53.7217 66.213 53.0617 66.643 52.3717 66.943C52.0617 67.103 51.7317 67.243 51.4017 67.363C51.3217 67.393 51.2317 67.423 51.1517 67.443C50.5317 67.673 49.8917 67.863 49.2517 67.983C48.3917 68.153 47.5017 68.223 46.6217 68.193C46.5817 68.193 46.5417 68.193 46.4917 68.183C45.2317 68.093 44.0017 67.853 42.7917 67.493L38.6217 65.953C39.1917 66.403 39.7917 66.813 40.4217 67.173C40.5517 67.243 40.6717 67.313 40.8017 67.383C41.6617 67.843 42.5617 68.213 43.5017 68.493C43.6717 68.543 44.0217 68.633 44.0317 68.633C44.3017 68.703 44.5717 68.773 44.8617 68.823C45.3217 68.913 45.7917 68.983 46.2717 69.033C46.3517 69.043 46.4317 69.043 46.5017 69.053C46.4817 69.063 46.4617 69.083 46.4417 69.093C46.4217 69.113 46.4017 69.113 46.3817 69.133C46.2917 69.193 46.1917 69.233 46.0917 69.283C45.6617 69.493 45.2217 69.653 44.7717 69.773C40.1617 71.083 34.4617 68.673 30.7217 66.263C28.8117 65.033 27.0517 63.593 25.4617 61.973C23.7517 60.233 22.3217 58.243 21.1917 56.073C21.1117 55.913 21.0317 55.753 20.9517 55.583C20.4117 54.473 19.9617 53.323 19.5917 52.143C19.0117 50.323 18.6717 48.443 18.5617 46.543C18.5117 45.383 18.4417 44.213 18.4917 43.063C18.5517 41.243 18.7817 39.443 19.2017 37.683C19.5817 36.163 20.0817 34.683 20.7217 33.243C20.8717 32.913 21.0117 32.603 21.1817 32.283C21.2017 32.223 21.2317 32.173 21.2617 32.113C23.4817 27.983 26.7817 24.523 30.7917 22.113C30.7817 22.143 30.7617 22.173 30.7517 22.193C30.7317 22.223 30.7117 22.253 30.6917 22.293C30.0117 23.093 29.3517 23.893 28.6517 24.703C27.0217 26.483 25.6317 28.483 24.5217 30.633C23.2717 33.023 22.4717 35.623 22.1717 38.303C21.8917 41.113 22.2317 43.943 23.1517 46.603C23.6717 48.243 24.4117 49.793 25.3617 51.223C25.3617 51.233 25.3817 51.243 25.3817 51.263C25.7717 51.853 26.1917 52.413 26.6417 52.943C26.6717 52.983 26.6917 53.013 26.7217 53.043C26.7517 53.073 26.7817 53.103 26.8017 53.143C27.6017 54.103 28.5417 54.963 29.5717 55.673C29.9317 55.893 30.3217 56.063 30.7217 56.183C30.7417 56.183 30.7617 56.193 30.7817 56.193C30.8417 56.213 30.9017 56.223 30.9717 56.243C32.6917 56.633 34.3417 57.253 35.9017 58.063C37.0817 58.723 38.2717 59.383 39.4417 60.073C39.8617 60.323 40.2817 60.573 40.7017 60.833C41.4717 61.323 42.2617 61.783 43.0617 62.223C44.2317 62.863 45.4417 63.453 46.6717 63.983C47.4417 64.323 48.2417 64.613 49.0617 64.823C49.7117 64.993 50.3717 65.123 51.0317 65.213C51.4517 65.253 51.8617 65.293 52.2717 65.323C53.0317 65.363 53.7817 65.383 54.5517 65.343C54.6817 65.343 54.8017 65.333 54.9317 65.323C54.8817 65.393 54.8217 65.443 54.7617 65.483ZM52.3517 64.423C51.6217 64.493 50.8817 64.443 50.1717 64.243C50.0317 64.203 49.8917 64.143 49.7517 64.083C50.0517 63.933 50.2817 63.813 50.5117 63.713C51.6817 63.163 52.7617 62.433 53.7017 61.533C53.7817 61.463 53.8617 61.383 53.9417 61.303C54.7417 60.573 55.5417 59.793 56.3417 59.053C56.7417 58.673 57.1417 58.313 57.5317 57.953C58.3117 57.303 59.2417 56.943 60.2117 56.693C60.2517 56.683 60.2917 56.673 60.3217 56.663C60.4817 56.623 60.6417 56.583 60.8017 56.553C60.8917 56.533 60.9717 56.513 61.0617 56.503C61.2117 56.473 61.3417 56.453 61.4717 56.433C61.4717 56.433 61.4817 56.433 61.4917 56.433C61.6517 56.423 61.7917 56.423 62.0217 56.373C61.9217 56.543 61.8617 56.643 61.8017 56.723C61.3217 57.433 60.7117 58.053 60.1717 58.723H60.1617C59.7017 59.283 59.2417 59.843 58.7817 60.393C57.8517 61.573 56.7317 62.593 55.4617 63.403C54.5417 63.963 53.4617 64.303 52.3517 64.423ZM69.5517 51.043C69.1717 52.563 68.6717 54.043 68.0317 55.483C67.8817 55.803 67.7417 56.123 67.5717 56.443C67.5517 56.503 67.5217 56.553 67.4917 56.613C65.2717 60.743 61.9717 64.203 57.9617 66.603C57.9817 66.573 57.9917 66.553 58.0017 66.523C58.0217 66.483 58.0417 66.453 58.0617 66.423C58.7417 65.623 59.4017 64.823 60.1017 64.013C61.7317 62.223 63.1217 60.233 64.2317 58.083C65.4817 55.693 66.2817 53.093 66.5817 50.413C66.8517 47.603 66.5217 44.773 65.6017 42.113C65.0817 40.473 64.3317 38.923 63.3917 37.493C63.3817 37.483 63.3717 37.473 63.3717 37.453C62.9817 36.873 62.5617 36.313 62.1017 35.773C62.0717 35.743 62.0517 35.713 62.0217 35.673C61.9917 35.643 61.9617 35.613 61.9417 35.573C61.1417 34.613 60.2017 33.753 59.1717 33.043C58.8117 32.823 58.4217 32.653 58.0217 32.543C58.0017 32.543 57.9817 32.533 57.9617 32.523C57.9017 32.503 57.8417 32.493 57.7817 32.483C56.0617 32.093 54.4017 31.473 52.8517 30.653C51.6717 29.993 50.4917 29.333 49.3117 28.643C48.8917 28.393 48.4717 28.143 48.0517 27.893C47.2817 27.403 46.4917 26.943 45.6917 26.503C44.5217 25.863 43.3117 25.273 42.0817 24.753C41.3117 24.413 40.5117 24.123 39.6917 23.903C39.0417 23.733 38.3817 23.603 37.7217 23.513C37.3017 23.463 36.8917 23.433 36.4817 23.403C35.7217 23.363 34.9717 23.343 34.2017 23.373C34.0717 23.373 33.9517 23.393 33.8217 23.393C33.8817 23.353 33.9417 23.303 34.0017 23.253C34.1317 23.143 34.2717 23.043 34.4217 22.943C35.0517 22.523 35.7117 22.103 36.3917 21.803C36.7017 21.643 37.0317 21.503 37.3617 21.383C37.4417 21.353 37.5317 21.323 37.6117 21.303C38.2317 21.073 38.8717 20.883 39.5217 20.763C40.3817 20.593 41.2617 20.533 42.1517 20.563C42.1917 20.563 42.2417 20.563 42.2817 20.563C43.5417 20.663 44.7717 20.893 45.9817 21.253L50.1517 22.793C49.5817 22.343 48.9817 21.933 48.3517 21.583C48.2217 21.513 48.1017 21.433 47.9717 21.373C47.1117 20.913 46.2117 20.543 45.2717 20.263C45.1017 20.213 44.7517 20.123 44.7517 20.113C44.4817 20.043 44.2017 19.983 43.9217 19.923C43.4517 19.833 42.9817 19.763 42.5117 19.713C42.4317 19.703 42.3617 19.693 42.2817 19.693C42.3017 19.683 42.3217 19.663 42.3517 19.653C42.3717 19.643 42.3917 19.633 42.4017 19.623C42.5017 19.563 42.5917 19.523 42.6917 19.473C43.1217 19.273 43.5617 19.103 44.0117 18.983C48.6217 17.683 54.3217 20.093 58.0617 22.493C59.9717 23.723 61.7317 25.163 63.3217 26.783C65.0317 28.523 66.4617 30.513 67.5917 32.673C67.6717 32.833 67.7517 33.003 67.8317 33.163C68.3717 34.273 68.8217 35.423 69.1917 36.603C69.7717 38.423 70.1217 40.303 70.2217 42.213C70.2717 43.373 70.3517 44.543 70.3017 45.693C70.2117 47.483 69.9617 49.283 69.5517 51.043Z" fill="white"/>
<path d="M49.8117 39.593C47.1817 36.593 42.6217 36.303 39.6217 38.923C36.6217 41.553 36.3317 46.123 38.9517 49.113C41.5817 52.113 46.1517 52.413 49.1417 49.783C52.1517 47.153 52.4517 42.583 49.8117 39.593ZM44.8817 47.833C44.3617 48.123 43.7717 48.283 43.1717 48.303H42.9717C40.7917 48.283 39.0517 46.503 39.0717 44.323C39.0917 42.793 39.9917 41.403 41.4017 40.773C41.5517 40.703 41.7117 40.643 41.8617 40.593C42.2417 40.473 42.6417 40.423 43.0417 40.423C44.4017 40.423 45.6617 41.123 46.3817 42.283C45.4717 41.253 43.9917 40.933 42.7317 41.493C42.5817 41.563 42.4417 41.643 42.3117 41.733C41.4217 42.313 40.8717 43.293 40.8617 44.353C40.8617 45.033 41.0717 45.703 41.4817 46.253C42.0717 47.053 43.0117 47.523 44.0017 47.533C44.2117 47.533 44.4117 47.513 44.6117 47.473C45.2817 47.343 45.9017 47.003 46.3617 46.493C45.9917 47.053 45.4617 47.513 44.8817 47.833ZM48.8317 44.413L49.0517 44.723L49.6617 45.573L48.3017 45.123L47.4617 46.283V44.853L46.1017 44.393L47.4617 43.963L47.4817 42.533L47.8417 43.033L48.3217 43.693L49.6817 43.263L48.8317 44.413Z" fill="white"/>
</svg>
